  0
SECTION
  2
HEADER
  9
$ANGBASE
  50
0.0
  9
$ANGDIR
  70
1
  9
$MEASUREMENT
  70
1
  0
ENDSEC
  0
SECTION
  2
TABLES
  0
TABLE
  2
LTYPE
  70
4
  0
LTYPE
  5
40F
  2
CONTINUOUS
  70
0
  3
Solid line
  72
65
  73
0
  40
0.0
  0
LTYPE
  5
410
  2
DASHDOT
 70
0
  3
Dash Dot ____ _ ____ _
 72
65
 73
4
 40
2.0
 49
1.25
 49
-0.25
 49
0.25
 49
-0.25
  0
LTYPE
  5
411
  2
DASHED
 70
0
  3
Dashed __ __ __ __ __
 72
65
 73
2
 40
0.75
 49
0.5
 49
-0.25
  0
LTYPE
  5
43B
  2
DOTTED
 70
0
  3
Dotted .  .  .  .
 72
65
 73
2
 40
0.2
 49
0.0
 49
-0.2
  0
ENDTAB
  0
TABLE
  2
STYLE
  70
4
  0
STYLE
  2
KICAD
  70
0
  40
0
  41
1
  42
1
  50
0
  71
0
  3
isocp.shx
  0
STYLE
  2
KICADB
  70
0
  40
0
  41
1
  42
1
  50
0
  71
0
  3
isocp.shx
  0
STYLE
  2
KICADI
  70
0
  40
0
  41
1
  42
1
  50
15
  71
0
  3
isocp.shx
  0
STYLE
  2
KICADBI
  70
0
  40
0
  41
1
  42
1
  50
15
  71
0
  3
isocp.shx
  0
ENDTAB
  0
TABLE
  2
LAYER
  70
1
  0
LAYER
  2
BLACK
  70
0
  62
7
  6
CONTINUOUS
  0
ENDTAB
  0
ENDSEC
  0
SECTION
  2
ENTITIES
0
LINE
8
BLACK
6
CONTINUOUS
10
122.6499999999999915
20
-77.25
11
122.766822999999988
21
-77.2631629999999916
0
LINE
8
BLACK
6
CONTINUOUS
10
122.766822999999988
20
-77.2631629999999916
11
122.8777889999999928
21
-77.301991000000001
0
LINE
8
BLACK
6
CONTINUOUS
10
122.8777889999999928
20
-77.301991000000001
11
122.9773319999999899
21
-77.364537999999996
0
LINE
8
BLACK
6
CONTINUOUS
10
122.9773319999999899
20
-77.364537999999996
11
123.0604620000000011
21
-77.4476679999999931
0
LINE
8
BLACK
6
CONTINUOUS
10
123.0604620000000011
20
-77.4476679999999931
11
123.1230089999999961
21
-77.5472109999999901
0
LINE
8
BLACK
6
CONTINUOUS
10
123.1230089999999961
20
-77.5472109999999901
11
123.1618369999999913
21
-77.6581769999999949
0
LINE
8
BLACK
6
CONTINUOUS
10
123.1618369999999913
20
-77.6581769999999949
11
123.1749999999999972
21
-77.7749999999999915
0
LINE
8
BLACK
6
CONTINUOUS
10
123.1749999999999972
20
-77.7749999999999915
11
123.1749999999999972
21
-81.4249999999999972
0
LINE
8
BLACK
6
CONTINUOUS
10
123.1749999999999972
20
-81.4249999999999972
11
123.1749999999999972
21
-81.4875349999999941
0
LINE
8
BLACK
6
CONTINUOUS
10
123.1749999999999972
20
-81.4875349999999941
11
123.2073699999999974
21
-81.6083429999999908
0
LINE
8
BLACK
6
CONTINUOUS
10
123.2073699999999974
20
-81.6083429999999908
11
123.2699049999999943
21
-81.7166569999999979
0
LINE
8
BLACK
6
CONTINUOUS
10
123.2699049999999943
20
-81.7166569999999979
11
123.3583429999999908
21
-81.8050949999999943
0
LINE
8
BLACK
6
CONTINUOUS
10
123.3583429999999908
20
-81.8050949999999943
11
123.4666569999999979
21
-81.8676299999999912
0
LINE
8
BLACK
6
CONTINUOUS
10
123.4666569999999979
20
-81.8676299999999912
11
123.5874649999999946
21
-81.8999999999999915
0
LINE
8
BLACK
6
CONTINUOUS
10
123.5874649999999946
20
-81.8999999999999915
11
123.6499999999999915
21
-81.8999999999999915
0
LINE
8
BLACK
6
CONTINUOUS
10
123.6499999999999915
20
-81.8999999999999915
11
124.
21
-81.8999999999999915
0
LINE
8
BLACK
6
CONTINUOUS
10
124.
20
-81.8999999999999915
11
124.1168229999999966
21
-81.9131629999999973
0
LINE
8
BLACK
6
CONTINUOUS
10
124.1168229999999966
20
-81.9131629999999973
11
124.2277890000000014
21
-81.9519909999999925
0
LINE
8
BLACK
6
CONTINUOUS
10
124.2277890000000014
20
-81.9519909999999925
11
124.3273319999999984
21
-82.0145380000000017
0
LINE
8
BLACK
6
CONTINUOUS
10
124.3273319999999984
20
-82.0145380000000017
11
124.4104619999999954
21
-82.0976679999999988
0
LINE
8
BLACK
6
CONTINUOUS
10
124.4104619999999954
20
-82.0976679999999988
11
124.4730089999999905
21
-82.1972109999999958
0
LINE
8
BLACK
6
CONTINUOUS
10
124.4730089999999905
20
-82.1972109999999958
11
124.5118369999999999
21
-82.3081770000000006
0
LINE
8
BLACK
6
CONTINUOUS
10
124.5118369999999999
20
-82.3081770000000006
11
124.5249999999999915
21
-82.4249999999999972
0
LINE
8
BLACK
6
CONTINUOUS
10
124.5249999999999915
20
-82.4249999999999972
11
124.5249999999999915
21
-88.2749999999999915
0
LINE
8
BLACK
6
CONTINUOUS
10
124.5249999999999915
20
-88.2749999999999915
11
124.5118369999999999
21
-88.3918230000000023
0
LINE
8
BLACK
6
CONTINUOUS
10
124.5118369999999999
20
-88.3918230000000023
11
124.4730089999999905
21
-88.5027889999999928
0
LINE
8
BLACK
6
CONTINUOUS
10
124.4730089999999905
20
-88.5027889999999928
11
124.4104619999999954
21
-88.6023319999999899
0
LINE
8
BLACK
6
CONTINUOUS
10
124.4104619999999954
20
-88.6023319999999899
11
124.3273319999999984
21
-88.6854620000000011
0
LINE
8
BLACK
6
CONTINUOUS
10
124.3273319999999984
20
-88.6854620000000011
11
124.2277890000000014
21
-88.7480089999999961
0
LINE
8
BLACK
6
CONTINUOUS
10
124.2277890000000014
20
-88.7480089999999961
11
124.1168229999999966
21
-88.7868369999999913
0
LINE
8
BLACK
6
CONTINUOUS
10
124.1168229999999966
20
-88.7868369999999913
11
124.
21
-88.7999999999999972
0
LINE
8
BLACK
6
CONTINUOUS
10
124.
20
-88.7999999999999972
11
118.6999999999999886
21
-88.7999999999999972
0
LINE
8
BLACK
6
CONTINUOUS
10
118.6999999999999886
20
-88.7999999999999972
11
118.5831769999999921
21
-88.7868369999999913
0
LINE
8
BLACK
6
CONTINUOUS
10
118.5831769999999921
20
-88.7868369999999913
11
118.4722110000000015
21
-88.7480089999999961
0
LINE
8
BLACK
6
CONTINUOUS
10
118.4722110000000015
20
-88.7480089999999961
11
118.3726679999999902
21
-88.6854620000000011
0
LINE
8
BLACK
6
CONTINUOUS
10
118.3726679999999902
20
-88.6854620000000011
11
118.2895379999999932
21
-88.6023319999999899
0
LINE
8
BLACK
6
CONTINUOUS
10
118.2895379999999932
20
-88.6023319999999899
11
118.2269909999999982
21
-88.5027889999999928
0
LINE
8
BLACK
6
CONTINUOUS
10
118.2269909999999982
20
-88.5027889999999928
11
118.1881629999999888
21
-88.3918230000000023
0
LINE
8
BLACK
6
CONTINUOUS
10
118.1881629999999888
20
-88.3918230000000023
11
118.1749999999999972
21
-88.2749999999999915
0
LINE
8
BLACK
6
CONTINUOUS
10
118.1749999999999972
20
-88.2749999999999915
11
118.1749999999999972
21
-82.4249999999999972
0
LINE
8
BLACK
6
CONTINUOUS
10
118.1749999999999972
20
-82.4249999999999972
11
118.1881629999999888
21
-82.3081770000000006
0
LINE
8
BLACK
6
CONTINUOUS
10
118.1881629999999888
20
-82.3081770000000006
11
118.2269909999999982
21
-82.1972109999999958
0
LINE
8
BLACK
6
CONTINUOUS
10
118.2269909999999982
20
-82.1972109999999958
11
118.2895379999999932
21
-82.0976679999999988
0
LINE
8
BLACK
6
CONTINUOUS
10
118.2895379999999932
20
-82.0976679999999988
11
118.3726679999999902
21
-82.0145380000000017
0
LINE
8
BLACK
6
CONTINUOUS
10
118.3726679999999902
20
-82.0145380000000017
11
118.4722110000000015
21
-81.9519909999999925
0
LINE
8
BLACK
6
CONTINUOUS
10
118.4722110000000015
20
-81.9519909999999925
11
118.5831769999999921
21
-81.9131629999999973
0
LINE
8
BLACK
6
CONTINUOUS
10
118.5831769999999921
20
-81.9131629999999973
11
118.6999999999999886
21
-81.8999999999999915
0
LINE
8
BLACK
6
CONTINUOUS
10
118.6999999999999886
20
-81.8999999999999915
11
119.0499999999999972
21
-81.8999999999999915
0
LINE
8
BLACK
6
CONTINUOUS
10
119.0499999999999972
20
-81.8999999999999915
11
119.1125349999999941
21
-81.8999999999999915
0
LINE
8
BLACK
6
CONTINUOUS
10
119.1125349999999941
20
-81.8999999999999915
11
119.2333429999999908
21
-81.8676299999999912
0
LINE
8
BLACK
6
CONTINUOUS
10
119.2333429999999908
20
-81.8676299999999912
11
119.3416569999999979
21
-81.8050949999999943
0
LINE
8
BLACK
6
CONTINUOUS
10
119.3416569999999979
20
-81.8050949999999943
11
119.4300949999999943
21
-81.7166569999999979
0
LINE
8
BLACK
6
CONTINUOUS
10
119.4300949999999943
20
-81.7166569999999979
11
119.4926299999999912
21
-81.6083429999999908
0
LINE
8
BLACK
6
CONTINUOUS
10
119.4926299999999912
20
-81.6083429999999908
11
119.5249999999999915
21
-81.4875349999999941
0
LINE
8
BLACK
6
CONTINUOUS
10
119.5249999999999915
20
-81.4875349999999941
11
119.5249999999999915
21
-81.4249999999999972
0
LINE
8
BLACK
6
CONTINUOUS
10
119.5249999999999915
20
-81.4249999999999972
11
119.5249999999999915
21
-77.7749999999999915
0
LINE
8
BLACK
6
CONTINUOUS
10
119.5249999999999915
20
-77.7749999999999915
11
119.5381629999999973
21
-77.6581769999999949
0
LINE
8
BLACK
6
CONTINUOUS
10
119.5381629999999973
20
-77.6581769999999949
11
119.5769909999999925
21
-77.5472109999999901
0
LINE
8
BLACK
6
CONTINUOUS
10
119.5769909999999925
20
-77.5472109999999901
11
119.6395379999999875
21
-77.4476679999999931
0
LINE
8
BLACK
6
CONTINUOUS
10
119.6395379999999875
20
-77.4476679999999931
11
119.7226679999999988
21
-77.364537999999996
0
LINE
8
BLACK
6
CONTINUOUS
10
119.7226679999999988
20
-77.364537999999996
11
119.8222109999999958
21
-77.301991000000001
0
LINE
8
BLACK
6
CONTINUOUS
10
119.8222109999999958
20
-77.301991000000001
11
119.9331770000000006
21
-77.2631629999999916
0
LINE
8
BLACK
6
CONTINUOUS
10
119.9331770000000006
20
-77.2631629999999916
11
120.0499999999999972
21
-77.25
0
LINE
8
BLACK
6
CONTINUOUS
10
120.0499999999999972
20
-77.25
11
122.6499999999999915
21
-77.25
0
LINE
8
BLACK
6
CONTINUOUS
10
120.0499999999999972
20
-77.2999999999999972
11
119.9874650000000003
21
-77.2999999999999972
0
LINE
8
BLACK
6
CONTINUOUS
10
119.9874650000000003
20
-77.2999999999999972
11
119.8666569999999894
21
-77.3323699999999974
0
LINE
8
BLACK
6
CONTINUOUS
10
119.8666569999999894
20
-77.3323699999999974
11
119.7583429999999964
21
-77.3949049999999943
0
LINE
8
BLACK
6
CONTINUOUS
10
119.7583429999999964
20
-77.3949049999999943
11
119.669905
21
-77.4833429999999908
0
LINE
8
BLACK
6
CONTINUOUS
10
119.669905
20
-77.4833429999999908
11
119.6073699999999889
21
-77.5916569999999979
0
LINE
8
BLACK
6
CONTINUOUS
10
119.6073699999999889
20
-77.5916569999999979
11
119.5749999999999886
21
-77.7124649999999946
0
LINE
8
BLACK
6
CONTINUOUS
10
119.5749999999999886
20
-77.7124649999999946
11
119.5749999999999886
21
-77.7749999999999915
0
LINE
8
BLACK
6
CONTINUOUS
10
119.5749999999999886
20
-77.7749999999999915
11
119.5749999999999886
21
-81.4249999999999972
0
LINE
8
BLACK
6
CONTINUOUS
10
119.5749999999999886
20
-81.4249999999999972
11
119.561836999999997
21
-81.5418229999999937
0
LINE
8
BLACK
6
CONTINUOUS
10
119.561836999999997
20
-81.5418229999999937
11
119.5230089999999876
21
-81.6527889999999985
0
LINE
8
BLACK
6
CONTINUOUS
10
119.5230089999999876
20
-81.6527889999999985
11
119.4604619999999926
21
-81.7523319999999956
0
LINE
8
BLACK
6
CONTINUOUS
10
119.4604619999999926
20
-81.7523319999999956
11
119.3773319999999956
21
-81.8354619999999926
0
LINE
8
BLACK
6
CONTINUOUS
10
119.3773319999999956
20
-81.8354619999999926
11
119.2777889999999985
21
-81.8980090000000018
0
LINE
8
BLACK
6
CONTINUOUS
10
119.2777889999999985
20
-81.8980090000000018
11
119.1668229999999937
21
-81.936836999999997
0
LINE
8
BLACK
6
CONTINUOUS
10
119.1668229999999937
20
-81.936836999999997
11
119.0499999999999972
21
-81.9500000000000028
0
LINE
8
BLACK
6
CONTINUOUS
10
119.0499999999999972
20
-81.9500000000000028
11
118.6999999999999886
21
-81.9500000000000028
0
LINE
8
BLACK
6
CONTINUOUS
10
118.6999999999999886
20
-81.9500000000000028
11
118.6374649999999917
21
-81.9500000000000028
0
LINE
8
BLACK
6
CONTINUOUS
10
118.6374649999999917
20
-81.9500000000000028
11
118.516656999999995
21
-81.9823700000000031
0
LINE
8
BLACK
6
CONTINUOUS
10
118.516656999999995
20
-81.9823700000000031
11
118.4083429999999879
21
-82.044905
0
LINE
8
BLACK
6
CONTINUOUS
10
118.4083429999999879
20
-82.044905
11
118.3199049999999914
21
-82.1333429999999964
0
LINE
8
BLACK
6
CONTINUOUS
10
118.3199049999999914
20
-82.1333429999999964
11
118.2573699999999945
21
-82.2416569999999894
0
LINE
8
BLACK
6
CONTINUOUS
10
118.2573699999999945
20
-82.2416569999999894
11
118.2249999999999943
21
-82.3624650000000003
0
LINE
8
BLACK
6
CONTINUOUS
10
118.2249999999999943
20
-82.3624650000000003
11
118.2249999999999943
21
-82.4249999999999972
0
LINE
8
BLACK
6
CONTINUOUS
10
118.2249999999999943
20
-82.4249999999999972
11
118.2249999999999943
21
-88.2749999999999915
0
LINE
8
BLACK
6
CONTINUOUS
10
118.2249999999999943
20
-88.2749999999999915
11
118.2249999999999943
21
-88.3375350000000026
0
LINE
8
BLACK
6
CONTINUOUS
10
118.2249999999999943
20
-88.3375350000000026
11
118.2573699999999945
21
-88.4583429999999993
0
LINE
8
BLACK
6
CONTINUOUS
10
118.2573699999999945
20
-88.4583429999999993
11
118.3199049999999914
21
-88.5666569999999922
0
LINE
8
BLACK
6
CONTINUOUS
10
118.3199049999999914
20
-88.5666569999999922
11
118.4083429999999879
21
-88.6550950000000029
0
LINE
8
BLACK
6
CONTINUOUS
10
118.4083429999999879
20
-88.6550950000000029
11
118.516656999999995
21
-88.7176299999999998
0
LINE
8
BLACK
6
CONTINUOUS
10
118.516656999999995
20
-88.7176299999999998
11
118.6374649999999917
21
-88.75
0
LINE
8
BLACK
6
CONTINUOUS
10
118.6374649999999917
20
-88.75
11
118.6999999999999886
21
-88.75
0
LINE
8
BLACK
6
CONTINUOUS
10
118.6999999999999886
20
-88.75
11
124.
21
-88.75
0
LINE
8
BLACK
6
CONTINUOUS
10
124.
20
-88.75
11
124.0625349999999969
21
-88.75
0
LINE
8
BLACK
6
CONTINUOUS
10
124.0625349999999969
20
-88.75
11
124.1833429999999936
21
-88.7176299999999998
0
LINE
8
BLACK
6
CONTINUOUS
10
124.1833429999999936
20
-88.7176299999999998
11
124.2916570000000007
21
-88.6550950000000029
0
LINE
8
BLACK
6
CONTINUOUS
10
124.2916570000000007
20
-88.6550950000000029
11
124.3800949999999972
21
-88.5666569999999922
0
LINE
8
BLACK
6
CONTINUOUS
10
124.3800949999999972
20
-88.5666569999999922
11
124.4426299999999941
21
-88.4583429999999993
0
LINE
8
BLACK
6
CONTINUOUS
10
124.4426299999999941
20
-88.4583429999999993
11
124.4749999999999943
21
-88.3375350000000026
0
LINE
8
BLACK
6
CONTINUOUS
10
124.4749999999999943
20
-88.3375350000000026
11
124.4749999999999943
21
-88.2749999999999915
0
LINE
8
BLACK
6
CONTINUOUS
10
124.4749999999999943
20
-88.2749999999999915
11
124.4749999999999943
21
-82.4249999999999972
0
LINE
8
BLACK
6
CONTINUOUS
10
124.4749999999999943
20
-82.4249999999999972
11
124.4749999999999943
21
-82.3624650000000003
0
LINE
8
BLACK
6
CONTINUOUS
10
124.4749999999999943
20
-82.3624650000000003
11
124.4426299999999941
21
-82.2416569999999894
0
LINE
8
BLACK
6
CONTINUOUS
10
124.4426299999999941
20
-82.2416569999999894
11
124.3800949999999972
21
-82.1333429999999964
0
LINE
8
BLACK
6
CONTINUOUS
10
124.3800949999999972
20
-82.1333429999999964
11
124.2916570000000007
21
-82.044905
0
LINE
8
BLACK
6
CONTINUOUS
10
124.2916570000000007
20
-82.044905
11
124.1833429999999936
21
-81.9823700000000031
0
LINE
8
BLACK
6
CONTINUOUS
10
124.1833429999999936
20
-81.9823700000000031
11
124.0625349999999969
21
-81.9500000000000028
0
LINE
8
BLACK
6
CONTINUOUS
10
124.0625349999999969
20
-81.9500000000000028
11
124.
21
-81.9500000000000028
0
LINE
8
BLACK
6
CONTINUOUS
10
124.
20
-81.9500000000000028
11
123.6499999999999915
21
-81.9500000000000028
0
LINE
8
BLACK
6
CONTINUOUS
10
123.6499999999999915
20
-81.9500000000000028
11
123.5331769999999949
21
-81.936836999999997
0
LINE
8
BLACK
6
CONTINUOUS
10
123.5331769999999949
20
-81.936836999999997
11
123.4222109999999901
21
-81.8980090000000018
0
LINE
8
BLACK
6
CONTINUOUS
10
123.4222109999999901
20
-81.8980090000000018
11
123.3226679999999931
21
-81.8354619999999926
0
LINE
8
BLACK
6
CONTINUOUS
10
123.3226679999999931
20
-81.8354619999999926
11
123.239537999999996
21
-81.7523319999999956
0
LINE
8
BLACK
6
CONTINUOUS
10
123.239537999999996
20
-81.7523319999999956
11
123.176991000000001
21
-81.6527889999999985
0
LINE
8
BLACK
6
CONTINUOUS
10
123.176991000000001
20
-81.6527889999999985
11
123.1381629999999916
21
-81.5418229999999937
0
LINE
8
BLACK
6
CONTINUOUS
10
123.1381629999999916
20
-81.5418229999999937
11
123.125
21
-81.4249999999999972
0
LINE
8
BLACK
6
CONTINUOUS
10
123.125
20
-81.4249999999999972
11
123.125
21
-77.7749999999999915
0
LINE
8
BLACK
6
CONTINUOUS
10
123.125
20
-77.7749999999999915
11
123.125
21
-77.7124649999999946
0
LINE
8
BLACK
6
CONTINUOUS
10
123.125
20
-77.7124649999999946
11
123.0926299999999998
21
-77.5916569999999979
0
LINE
8
BLACK
6
CONTINUOUS
10
123.0926299999999998
20
-77.5916569999999979
11
123.0300949999999887
21
-77.4833429999999908
0
LINE
8
BLACK
6
CONTINUOUS
10
123.0300949999999887
20
-77.4833429999999908
11
122.9416569999999922
21
-77.3949049999999943
0
LINE
8
BLACK
6
CONTINUOUS
10
122.9416569999999922
20
-77.3949049999999943
11
122.8333429999999993
21
-77.3323699999999974
0
LINE
8
BLACK
6
CONTINUOUS
10
122.8333429999999993
20
-77.3323699999999974
11
122.7125349999999884
21
-77.2999999999999972
0
LINE
8
BLACK
6
CONTINUOUS
10
122.7125349999999884
20
-77.2999999999999972
11
122.6499999999999915
21
-77.2999999999999972
0
LINE
8
BLACK
6
CONTINUOUS
10
122.6499999999999915
20
-77.2999999999999972
11
120.0499999999999972
21
-77.2999999999999972
0
LINE
8
BLACK
6
CONTINUOUS
10
146.6500000000000057
20
-77.25
11
146.766822999999988
21
-77.2631629999999916
0
LINE
8
BLACK
6
CONTINUOUS
10
146.766822999999988
20
-77.2631629999999916
11
146.877789000000007
21
-77.301991000000001
0
LINE
8
BLACK
6
CONTINUOUS
10
146.877789000000007
20
-77.301991000000001
11
146.9773319999999899
21
-77.364537999999996
0
LINE
8
BLACK
6
CONTINUOUS
10
146.9773319999999899
20
-77.364537999999996
11
147.0604620000000011
21
-77.4476679999999931
0
LINE
8
BLACK
6
CONTINUOUS
10
147.0604620000000011
20
-77.4476679999999931
11
147.1230089999999961
21
-77.5472109999999901
0
LINE
8
BLACK
6
CONTINUOUS
10
147.1230089999999961
20
-77.5472109999999901
11
147.1618369999999913
21
-77.6581769999999949
0
LINE
8
BLACK
6
CONTINUOUS
10
147.1618369999999913
20
-77.6581769999999949
11
147.1749999999999829
21
-77.7749999999999915
0
LINE
8
BLACK
6
CONTINUOUS
10
147.1749999999999829
20
-77.7749999999999915
11
147.1749999999999829
21
-81.4249999999999972
0
LINE
8
BLACK
6
CONTINUOUS
10
147.1749999999999829
20
-81.4249999999999972
11
147.1749999999999829
21
-81.4875349999999941
0
LINE
8
BLACK
6
CONTINUOUS
10
147.1749999999999829
20
-81.4875349999999941
11
147.2073699999999974
21
-81.6083429999999908
0
LINE
8
BLACK
6
CONTINUOUS
10
147.2073699999999974
20
-81.6083429999999908
11
147.2699049999999943
21
-81.7166569999999979
0
LINE
8
BLACK
6
CONTINUOUS
10
147.2699049999999943
20
-81.7166569999999979
11
147.3583429999999908
21
-81.8050949999999943
0
LINE
8
BLACK
6
CONTINUOUS
10
147.3583429999999908
20
-81.8050949999999943
11
147.4666569999999979
21
-81.8676299999999912
0
LINE
8
BLACK
6
CONTINUOUS
10
147.4666569999999979
20
-81.8676299999999912
11
147.5874649999999804
21
-81.8999999999999915
0
LINE
8
BLACK
6
CONTINUOUS
10
147.5874649999999804
20
-81.8999999999999915
11
147.6500000000000057
21
-81.8999999999999915
0
LINE
8
BLACK
6
CONTINUOUS
10
147.6500000000000057
20
-81.8999999999999915
11
148.
21
-81.8999999999999915
0
LINE
8
BLACK
6
CONTINUOUS
10
148.
20
-81.8999999999999915
11
148.1168229999999824
21
-81.9131629999999973
0
LINE
8
BLACK
6
CONTINUOUS
10
148.1168229999999824
20
-81.9131629999999973
11
148.2277890000000014
21
-81.9519909999999925
0
LINE
8
BLACK
6
CONTINUOUS
10
148.2277890000000014
20
-81.9519909999999925
11
148.3273319999999842
21
-82.0145380000000017
0
LINE
8
BLACK
6
CONTINUOUS
10
148.3273319999999842
20
-82.0145380000000017
11
148.4104619999999954
21
-82.0976679999999988
0
LINE
8
BLACK
6
CONTINUOUS
10
148.4104619999999954
20
-82.0976679999999988
11
148.4730089999999905
21
-82.1972109999999958
0
LINE
8
BLACK
6
CONTINUOUS
10
148.4730089999999905
20
-82.1972109999999958
11
148.5118369999999857
21
-82.3081770000000006
0
LINE
8
BLACK
6
CONTINUOUS
10
148.5118369999999857
20
-82.3081770000000006
11
148.5250000000000057
21
-82.4249999999999972
0
LINE
8
BLACK
6
CONTINUOUS
10
148.5250000000000057
20
-82.4249999999999972
11
148.5250000000000057
21
-88.2749999999999915
0
LINE
8
BLACK
6
CONTINUOUS
10
148.5250000000000057
20
-88.2749999999999915
11
148.5118369999999857
21
-88.3918230000000023
0
LINE
8
BLACK
6
CONTINUOUS
10
148.5118369999999857
20
-88.3918230000000023
11
148.4730089999999905
21
-88.5027889999999928
0
LINE
8
BLACK
6
CONTINUOUS
10
148.4730089999999905
20
-88.5027889999999928
11
148.4104619999999954
21
-88.6023319999999899
0
LINE
8
BLACK
6
CONTINUOUS
10
148.4104619999999954
20
-88.6023319999999899
11
148.3273319999999842
21
-88.6854620000000011
0
LINE
8
BLACK
6
CONTINUOUS
10
148.3273319999999842
20
-88.6854620000000011
11
148.2277890000000014
21
-88.7480089999999961
0
LINE
8
BLACK
6
CONTINUOUS
10
148.2277890000000014
20
-88.7480089999999961
11
148.1168229999999824
21
-88.7868369999999913
0
LINE
8
BLACK
6
CONTINUOUS
10
148.1168229999999824
20
-88.7868369999999913
11
148.
21
-88.7999999999999972
0
LINE
8
BLACK
6
CONTINUOUS
10
148.
20
-88.7999999999999972
11
142.6999999999999886
21
-88.7999999999999972
0
LINE
8
BLACK
6
CONTINUOUS
10
142.6999999999999886
20
-88.7999999999999972
11
142.5831770000000063
21
-88.7868369999999913
0
LINE
8
BLACK
6
CONTINUOUS
10
142.5831770000000063
20
-88.7868369999999913
11
142.4722109999999873
21
-88.7480089999999961
0
LINE
8
BLACK
6
CONTINUOUS
10
142.4722109999999873
20
-88.7480089999999961
11
142.3726680000000044
21
-88.6854620000000011
0
LINE
8
BLACK
6
CONTINUOUS
10
142.3726680000000044
20
-88.6854620000000011
11
142.2895379999999932
21
-88.6023319999999899
0
LINE
8
BLACK
6
CONTINUOUS
10
142.2895379999999932
20
-88.6023319999999899
11
142.2269909999999982
21
-88.5027889999999928
0
LINE
8
BLACK
6
CONTINUOUS
10
142.2269909999999982
20
-88.5027889999999928
11
142.188163000000003
21
-88.3918230000000023
0
LINE
8
BLACK
6
CONTINUOUS
10
142.188163000000003
20
-88.3918230000000023
11
142.1749999999999829
21
-88.2749999999999915
0
LINE
8
BLACK
6
CONTINUOUS
10
142.1749999999999829
20
-88.2749999999999915
11
142.1749999999999829
21
-82.4249999999999972
0
LINE
8
BLACK
6
CONTINUOUS
10
142.1749999999999829
20
-82.4249999999999972
11
142.188163000000003
21
-82.3081770000000006
0
LINE
8
BLACK
6
CONTINUOUS
10
142.188163000000003
20
-82.3081770000000006
11
142.2269909999999982
21
-82.1972109999999958
0
LINE
8
BLACK
6
CONTINUOUS
10
142.2269909999999982
20
-82.1972109999999958
11
142.2895379999999932
21
-82.0976679999999988
0
LINE
8
BLACK
6
CONTINUOUS
10
142.2895379999999932
20
-82.0976679999999988
11
142.3726680000000044
21
-82.0145380000000017
0
LINE
8
BLACK
6
CONTINUOUS
10
142.3726680000000044
20
-82.0145380000000017
11
142.4722109999999873
21
-81.9519909999999925
0
LINE
8
BLACK
6
CONTINUOUS
10
142.4722109999999873
20
-81.9519909999999925
11
142.5831770000000063
21
-81.9131629999999973
0
LINE
8
BLACK
6
CONTINUOUS
10
142.5831770000000063
20
-81.9131629999999973
11
142.6999999999999886
21
-81.8999999999999915
0
LINE
8
BLACK
6
CONTINUOUS
10
142.6999999999999886
20
-81.8999999999999915
11
143.0499999999999829
21
-81.8999999999999915
0
LINE
8
BLACK
6
CONTINUOUS
10
143.0499999999999829
20
-81.8999999999999915
11
143.1125349999999798
21
-81.8999999999999915
0
LINE
8
BLACK
6
CONTINUOUS
10
143.1125349999999798
20
-81.8999999999999915
11
143.2333429999999908
21
-81.8676299999999912
0
LINE
8
BLACK
6
CONTINUOUS
10
143.2333429999999908
20
-81.8676299999999912
11
143.3416569999999979
21
-81.8050949999999943
0
LINE
8
BLACK
6
CONTINUOUS
10
143.3416569999999979
20
-81.8050949999999943
11
143.4300949999999943
21
-81.7166569999999979
0
LINE
8
BLACK
6
CONTINUOUS
10
143.4300949999999943
20
-81.7166569999999979
11
143.4926299999999912
21
-81.6083429999999908
0
LINE
8
BLACK
6
CONTINUOUS
10
143.4926299999999912
20
-81.6083429999999908
11
143.5250000000000057
21
-81.4875349999999941
0
LINE
8
BLACK
6
CONTINUOUS
10
143.5250000000000057
20
-81.4875349999999941
11
143.5250000000000057
21
-81.4249999999999972
0
LINE
8
BLACK
6
CONTINUOUS
10
143.5250000000000057
20
-81.4249999999999972
11
143.5250000000000057
21
-77.7749999999999915
0
LINE
8
BLACK
6
CONTINUOUS
10
143.5250000000000057
20
-77.7749999999999915
11
143.5381629999999973
21
-77.6581769999999949
0
LINE
8
BLACK
6
CONTINUOUS
10
143.5381629999999973
20
-77.6581769999999949
11
143.5769909999999925
21
-77.5472109999999901
0
LINE
8
BLACK
6
CONTINUOUS
10
143.5769909999999925
20
-77.5472109999999901
11
143.6395379999999875
21
-77.4476679999999931
0
LINE
8
BLACK
6
CONTINUOUS
10
143.6395379999999875
20
-77.4476679999999931
11
143.7226679999999988
21
-77.364537999999996
0
LINE
8
BLACK
6
CONTINUOUS
10
143.7226679999999988
20
-77.364537999999996
11
143.8222109999999816
21
-77.301991000000001
0
LINE
8
BLACK
6
CONTINUOUS
10
143.8222109999999816
20
-77.301991000000001
11
143.9331770000000006
21
-77.2631629999999916
0
LINE
8
BLACK
6
CONTINUOUS
10
143.9331770000000006
20
-77.2631629999999916
11
144.0499999999999829
21
-77.25
0
LINE
8
BLACK
6
CONTINUOUS
10
144.0499999999999829
20
-77.25
11
146.6500000000000057
21
-77.25
0
LINE
8
BLACK
6
CONTINUOUS
10
144.0499999999999829
20
-77.2999999999999972
11
143.987464999999986
21
-77.2999999999999972
0
LINE
8
BLACK
6
CONTINUOUS
10
143.987464999999986
20
-77.2999999999999972
11
143.8666570000000036
21
-77.3323699999999974
0
LINE
8
BLACK
6
CONTINUOUS
10
143.8666570000000036
20
-77.3323699999999974
11
143.7583429999999964
21
-77.3949049999999943
0
LINE
8
BLACK
6
CONTINUOUS
10
143.7583429999999964
20
-77.3949049999999943
11
143.669905
21
-77.4833429999999908
0
LINE
8
BLACK
6
CONTINUOUS
10
143.669905
20
-77.4833429999999908
11
143.6073700000000031
21
-77.5916569999999979
0
LINE
8
BLACK
6
CONTINUOUS
10
143.6073700000000031
20
-77.5916569999999979
11
143.5749999999999886
21
-77.7124649999999946
0
LINE
8
BLACK
6
CONTINUOUS
10
143.5749999999999886
20
-77.7124649999999946
11
143.5749999999999886
21
-77.7749999999999915
0
LINE
8
BLACK
6
CONTINUOUS
10
143.5749999999999886
20
-77.7749999999999915
11
143.5749999999999886
21
-81.4249999999999972
0
LINE
8
BLACK
6
CONTINUOUS
10
143.5749999999999886
20
-81.4249999999999972
11
143.561836999999997
21
-81.5418229999999937
0
LINE
8
BLACK
6
CONTINUOUS
10
143.561836999999997
20
-81.5418229999999937
11
143.5230090000000018
21
-81.6527889999999985
0
LINE
8
BLACK
6
CONTINUOUS
10
143.5230090000000018
20
-81.6527889999999985
11
143.4604620000000068
21
-81.7523319999999956
0
LINE
8
BLACK
6
CONTINUOUS
10
143.4604620000000068
20
-81.7523319999999956
11
143.3773319999999956
21
-81.8354619999999926
0
LINE
8
BLACK
6
CONTINUOUS
10
143.3773319999999956
20
-81.8354619999999926
11
143.2777889999999843
21
-81.8980090000000018
0
LINE
8
BLACK
6
CONTINUOUS
10
143.2777889999999843
20
-81.8980090000000018
11
143.1668229999999937
21
-81.936836999999997
0
LINE
8
BLACK
6
CONTINUOUS
10
143.1668229999999937
20
-81.936836999999997
11
143.0499999999999829
21
-81.9500000000000028
0
LINE
8
BLACK
6
CONTINUOUS
10
143.0499999999999829
20
-81.9500000000000028
11
142.6999999999999886
21
-81.9500000000000028
0
LINE
8
BLACK
6
CONTINUOUS
10
142.6999999999999886
20
-81.9500000000000028
11
142.6374649999999917
21
-81.9500000000000028
0
LINE
8
BLACK
6
CONTINUOUS
10
142.6374649999999917
20
-81.9500000000000028
11
142.5166569999999808
21
-81.9823700000000031
0
LINE
8
BLACK
6
CONTINUOUS
10
142.5166569999999808
20
-81.9823700000000031
11
142.4083430000000021
21
-82.044905
0
LINE
8
BLACK
6
CONTINUOUS
10
142.4083430000000021
20
-82.044905
11
142.3199050000000057
21
-82.1333429999999964
0
LINE
8
BLACK
6
CONTINUOUS
10
142.3199050000000057
20
-82.1333429999999964
11
142.2573699999999803
21
-82.2416569999999894
0
LINE
8
BLACK
6
CONTINUOUS
10
142.2573699999999803
20
-82.2416569999999894
11
142.2249999999999943
21
-82.3624650000000003
0
LINE
8
BLACK
6
CONTINUOUS
10
142.2249999999999943
20
-82.3624650000000003
11
142.2249999999999943
21
-82.4249999999999972
0
LINE
8
BLACK
6
CONTINUOUS
10
142.2249999999999943
20
-82.4249999999999972
11
142.2249999999999943
21
-88.2749999999999915
0
LINE
8
BLACK
6
CONTINUOUS
10
142.2249999999999943
20
-88.2749999999999915
11
142.2249999999999943
21
-88.3375350000000026
0
LINE
8
BLACK
6
CONTINUOUS
10
142.2249999999999943
20
-88.3375350000000026
11
142.2573699999999803
21
-88.4583429999999993
0
LINE
8
BLACK
6
CONTINUOUS
10
142.2573699999999803
20
-88.4583429999999993
11
142.3199050000000057
21
-88.5666569999999922
0
LINE
8
BLACK
6
CONTINUOUS
10
142.3199050000000057
20
-88.5666569999999922
11
142.4083430000000021
21
-88.6550950000000029
0
LINE
8
BLACK
6
CONTINUOUS
10
142.4083430000000021
20
-88.6550950000000029
11
142.5166569999999808
21
-88.7176299999999998
0
LINE
8
BLACK
6
CONTINUOUS
10
142.5166569999999808
20
-88.7176299999999998
11
142.6374649999999917
21
-88.75
0
LINE
8
BLACK
6
CONTINUOUS
10
142.6374649999999917
20
-88.75
11
142.6999999999999886
21
-88.75
0
LINE
8
BLACK
6
CONTINUOUS
10
142.6999999999999886
20
-88.75
11
148.
21
-88.75
0
LINE
8
BLACK
6
CONTINUOUS
10
148.
20
-88.75
11
148.0625349999999969
21
-88.75
0
LINE
8
BLACK
6
CONTINUOUS
10
148.0625349999999969
20
-88.75
11
148.1833429999999794
21
-88.7176299999999998
0
LINE
8
BLACK
6
CONTINUOUS
10
148.1833429999999794
20
-88.7176299999999998
11
148.2916569999999865
21
-88.6550950000000029
0
LINE
8
BLACK
6
CONTINUOUS
10
148.2916569999999865
20
-88.6550950000000029
11
148.380094999999983
21
-88.5666569999999922
0
LINE
8
BLACK
6
CONTINUOUS
10
148.380094999999983
20
-88.5666569999999922
11
148.4426299999999799
21
-88.4583429999999993
0
LINE
8
BLACK
6
CONTINUOUS
10
148.4426299999999799
20
-88.4583429999999993
11
148.4749999999999943
21
-88.3375350000000026
0
LINE
8
BLACK
6
CONTINUOUS
10
148.4749999999999943
20
-88.3375350000000026
11
148.4749999999999943
21
-88.2749999999999915
0
LINE
8
BLACK
6
CONTINUOUS
10
148.4749999999999943
20
-88.2749999999999915
11
148.4749999999999943
21
-82.4249999999999972
0
LINE
8
BLACK
6
CONTINUOUS
10
148.4749999999999943
20
-82.4249999999999972
11
148.4749999999999943
21
-82.3624650000000003
0
LINE
8
BLACK
6
CONTINUOUS
10
148.4749999999999943
20
-82.3624650000000003
11
148.4426299999999799
21
-82.2416569999999894
0
LINE
8
BLACK
6
CONTINUOUS
10
148.4426299999999799
20
-82.2416569999999894
11
148.380094999999983
21
-82.1333429999999964
0
LINE
8
BLACK
6
CONTINUOUS
10
148.380094999999983
20
-82.1333429999999964
11
148.2916569999999865
21
-82.044905
0
LINE
8
BLACK
6
CONTINUOUS
10
148.2916569999999865
20
-82.044905
11
148.1833429999999794
21
-81.9823700000000031
0
LINE
8
BLACK
6
CONTINUOUS
10
148.1833429999999794
20
-81.9823700000000031
11
148.0625349999999969
21
-81.9500000000000028
0
LINE
8
BLACK
6
CONTINUOUS
10
148.0625349999999969
20
-81.9500000000000028
11
148.
21
-81.9500000000000028
0
LINE
8
BLACK
6
CONTINUOUS
10
148.
20
-81.9500000000000028
11
147.6500000000000057
21
-81.9500000000000028
0
LINE
8
BLACK
6
CONTINUOUS
10
147.6500000000000057
20
-81.9500000000000028
11
147.5331769999999949
21
-81.936836999999997
0
LINE
8
BLACK
6
CONTINUOUS
10
147.5331769999999949
20
-81.936836999999997
11
147.4222110000000043
21
-81.8980090000000018
0
LINE
8
BLACK
6
CONTINUOUS
10
147.4222110000000043
20
-81.8980090000000018
11
147.3226679999999931
21
-81.8354619999999926
0
LINE
8
BLACK
6
CONTINUOUS
10
147.3226679999999931
20
-81.8354619999999926
11
147.2395379999999818
21
-81.7523319999999956
0
LINE
8
BLACK
6
CONTINUOUS
10
147.2395379999999818
20
-81.7523319999999956
11
147.1769909999999868
21
-81.6527889999999985
0
LINE
8
BLACK
6
CONTINUOUS
10
147.1769909999999868
20
-81.6527889999999985
11
147.1381629999999916
21
-81.5418229999999937
0
LINE
8
BLACK
6
CONTINUOUS
10
147.1381629999999916
20
-81.5418229999999937
11
147.125
21
-81.4249999999999972
0
LINE
8
BLACK
6
CONTINUOUS
10
147.125
20
-81.4249999999999972
11
147.125
21
-77.7749999999999915
0
LINE
8
BLACK
6
CONTINUOUS
10
147.125
20
-77.7749999999999915
11
147.125
21
-77.7124649999999946
0
LINE
8
BLACK
6
CONTINUOUS
10
147.125
20
-77.7124649999999946
11
147.0926299999999856
21
-77.5916569999999979
0
LINE
8
BLACK
6
CONTINUOUS
10
147.0926299999999856
20
-77.5916569999999979
11
147.0300949999999887
21
-77.4833429999999908
0
LINE
8
BLACK
6
CONTINUOUS
10
147.0300949999999887
20
-77.4833429999999908
11
146.9416569999999922
21
-77.3949049999999943
0
LINE
8
BLACK
6
CONTINUOUS
10
146.9416569999999922
20
-77.3949049999999943
11
146.8333429999999851
21
-77.3323699999999974
0
LINE
8
BLACK
6
CONTINUOUS
10
146.8333429999999851
20
-77.3323699999999974
11
146.7125350000000026
21
-77.2999999999999972
0
LINE
8
BLACK
6
CONTINUOUS
10
146.7125350000000026
20
-77.2999999999999972
11
146.6500000000000057
21
-77.2999999999999972
0
LINE
8
BLACK
6
CONTINUOUS
10
146.6500000000000057
20
-77.2999999999999972
11
144.0499999999999829
21
-77.2999999999999972
0
LINE
8
BLACK
6
CONTINUOUS
10
138.1050280000000043
20
-19.024044
11
138.1055719999999951
21
-19.0238629999999986
0
LINE
8
BLACK
6
CONTINUOUS
10
138.1055719999999951
20
-19.0238629999999986
11
138.1094359999999881
21
-19.0249209999999991
0
LINE
8
BLACK
6
CONTINUOUS
10
138.1094359999999881
20
-19.0249209999999991
11
138.1133669999999825
21
-19.025703
0
LINE
8
BLACK
6
CONTINUOUS
10
138.1133669999999825
20
-19.025703
11
138.1137719999999831
21
-19.0261080000000007
0
LINE
8
BLACK
6
CONTINUOUS
10
138.1137719999999831
20
-19.0261080000000007
11
138.1149800000000027
21
-19.0264389999999999
0
LINE
8
BLACK
6
CONTINUOUS
10
138.1149800000000027
20
-19.0264389999999999
11
139.697102000000001
21
-19.817499999999999
0
LINE
8
BLACK
6
CONTINUOUS
10
139.697102000000001
20
-19.817499999999999
11
243.8406999999999982
21
-19.817499999999999
0
LINE
8
BLACK
6
CONTINUOUS
10
243.8406999999999982
20
-19.817499999999999
11
244.1568989999999815
21
-19.834070999999998
0
LINE
8
BLACK
6
CONTINUOUS
10
244.1568989999999815
20
-19.834070999999998
11
244.4696329999999875
21
-19.8836039999999983
0
LINE
8
BLACK
6
CONTINUOUS
10
244.4696329999999875
20
-19.8836039999999983
11
244.7754759999999976
21
-19.9655539999999974
0
LINE
8
BLACK
6
CONTINUOUS
10
244.7754759999999976
20
-19.9655539999999974
11
245.071078
21
-20.0790249999999979
0
LINE
8
BLACK
6
CONTINUOUS
10
245.071078
20
-20.0790249999999979
11
245.3531999999999869
21
-20.2227730000000001
0
LINE
8
BLACK
6
CONTINUOUS
10
245.3531999999999869
20
-20.2227730000000001
11
245.6187499999999773
21
-20.3952239999999989
0
LINE
8
BLACK
6
CONTINUOUS
10
245.6187499999999773
20
-20.3952239999999989
11
245.8648199999999804
21
-20.5944869999999973
0
LINE
8
BLACK
6
CONTINUOUS
10
245.8648199999999804
20
-20.5944869999999973
11
246.0887129999999843
21
-20.8183799999999977
0
LINE
8
BLACK
6
CONTINUOUS
10
246.0887129999999843
20
-20.8183799999999977
11
246.2879759999999862
21
-21.0644500000000008
0
LINE
8
BLACK
6
CONTINUOUS
10
246.2879759999999862
20
-21.0644500000000008
11
246.4604269999999815
21
-21.3299999999999983
0
LINE
8
BLACK
6
CONTINUOUS
10
246.4604269999999815
20
-21.3299999999999983
11
246.6041749999999979
21
-21.6121219999999994
0
LINE
8
BLACK
6
CONTINUOUS
10
246.6041749999999979
20
-21.6121219999999994
11
246.717646000000002
21
-21.9077239999999982
0
LINE
8
BLACK
6
CONTINUOUS
10
246.717646000000002
20
-21.9077239999999982
11
246.7995959999999798
21
-22.2135669999999976
0
LINE
8
BLACK
6
CONTINUOUS
10
246.7995959999999798
20
-22.2135669999999976
11
246.8491289999999765
21
-22.5263010000000001
0
LINE
8
BLACK
6
CONTINUOUS
10
246.8491289999999765
20
-22.5263010000000001
11
246.8656999999999755
21
-22.8424999999999976
0
LINE
8
BLACK
6
CONTINUOUS
10
246.8656999999999755
20
-22.8424999999999976
11
246.8656999999999755
21
-91.4502999999999986
0
LINE
8
BLACK
6
CONTINUOUS
10
246.8656999999999755
20
-91.4502999999999986
11
246.8491289999999765
21
-91.766498999999996
0
LINE
8
BLACK
6
CONTINUOUS
10
246.8491289999999765
20
-91.766498999999996
11
246.7995959999999798
21
-92.0792330000000021
0
LINE
8
BLACK
6
CONTINUOUS
10
246.7995959999999798
20
-92.0792330000000021
11
246.717646000000002
21
-92.385075999999998
0
LINE
8
BLACK
6
CONTINUOUS
10
246.717646000000002
20
-92.385075999999998
11
246.6041749999999979
21
-92.6806780000000003
0
LINE
8
BLACK
6
CONTINUOUS
10
246.6041749999999979
20
-92.6806780000000003
11
246.4604269999999815
21
-92.9628000000000014
0
LINE
8
BLACK
6
CONTINUOUS
10
246.4604269999999815
20
-92.9628000000000014
11
246.2879759999999862
21
-93.2283499999999918
0
LINE
8
BLACK
6
CONTINUOUS
10
246.2879759999999862
20
-93.2283499999999918
11
246.0887129999999843
21
-93.474419999999995
0
LINE
8
BLACK
6
CONTINUOUS
10
246.0887129999999843
20
-93.474419999999995
11
245.8648199999999804
21
-93.6983129999999989
0
LINE
8
BLACK
6
CONTINUOUS
10
245.8648199999999804
20
-93.6983129999999989
11
245.6187499999999773
21
-93.8975760000000008
0
LINE
8
BLACK
6
CONTINUOUS
10
245.6187499999999773
20
-93.8975760000000008
11
245.3531999999999869
21
-94.0700269999999961
0
LINE
8
BLACK
6
CONTINUOUS
10
245.3531999999999869
20
-94.0700269999999961
11
245.071078
21
-94.2137749999999983
0
LINE
8
BLACK
6
CONTINUOUS
10
245.071078
20
-94.2137749999999983
11
244.7754759999999976
21
-94.3272460000000024
0
LINE
8
BLACK
6
CONTINUOUS
10
244.7754759999999976
20
-94.3272460000000024
11
244.4696329999999875
21
-94.4091959999999943
0
LINE
8
BLACK
6
CONTINUOUS
10
244.4696329999999875
20
-94.4091959999999943
11
244.1568989999999815
21
-94.4587289999999911
0
LINE
8
BLACK
6
CONTINUOUS
10
244.1568989999999815
20
-94.4587289999999911
11
243.8406999999999982
21
-94.4752999999999901
0
LINE
8
BLACK
6
CONTINUOUS
10
243.8406999999999982
20
-94.4752999999999901
11
22.8424999999999976
21
-94.4752999999999901
0
LINE
8
BLACK
6
CONTINUOUS
10
22.8424999999999976
20
-94.4752999999999901
11
22.5263010000000001
21
-94.4587289999999911
0
LINE
8
BLACK
6
CONTINUOUS
10
22.5263010000000001
20
-94.4587289999999911
11
22.2135669999999976
21
-94.4091959999999943
0
LINE
8
BLACK
6
CONTINUOUS
10
22.2135669999999976
20
-94.4091959999999943
11
21.9077239999999982
21
-94.3272460000000024
0
LINE
8
BLACK
6
CONTINUOUS
10
21.9077239999999982
20
-94.3272460000000024
11
21.6121219999999994
21
-94.2137749999999983
0
LINE
8
BLACK
6
CONTINUOUS
10
21.6121219999999994
20
-94.2137749999999983
11
21.3299999999999983
21
-94.0700269999999961
0
LINE
8
BLACK
6
CONTINUOUS
10
21.3299999999999983
20
-94.0700269999999961
11
21.0644500000000008
21
-93.8975760000000008
0
LINE
8
BLACK
6
CONTINUOUS
10
21.0644500000000008
20
-93.8975760000000008
11
20.8183799999999977
21
-93.6983129999999989
0
LINE
8
BLACK
6
CONTINUOUS
10
20.8183799999999977
20
-93.6983129999999989
11
20.5944869999999973
21
-93.474419999999995
0
LINE
8
BLACK
6
CONTINUOUS
10
20.5944869999999973
20
-93.474419999999995
11
20.3952239999999989
21
-93.2283499999999918
0
LINE
8
BLACK
6
CONTINUOUS
10
20.3952239999999989
20
-93.2283499999999918
11
20.2227730000000001
21
-92.9628000000000014
0
LINE
8
BLACK
6
CONTINUOUS
10
20.2227730000000001
20
-92.9628000000000014
11
20.0790249999999979
21
-92.6806780000000003
0
LINE
8
BLACK
6
CONTINUOUS
10
20.0790249999999979
20
-92.6806780000000003
11
19.9655539999999974
21
-92.385075999999998
0
LINE
8
BLACK
6
CONTINUOUS
10
19.9655539999999974
20
-92.385075999999998
11
19.8836039999999983
21
-92.0792330000000021
0
LINE
8
BLACK
6
CONTINUOUS
10
19.8836039999999983
20
-92.0792330000000021
11
19.834070999999998
21
-91.766498999999996
0
LINE
8
BLACK
6
CONTINUOUS
10
19.834070999999998
20
-91.766498999999996
11
19.817499999999999
21
-91.4502999999999986
0
LINE
8
BLACK
6
CONTINUOUS
10
19.817499999999999
20
-91.4502999999999986
11
19.817499999999999
21
-22.8424999999999976
0
LINE
8
BLACK
6
CONTINUOUS
10
19.817499999999999
20
-22.8424999999999976
11
19.834070999999998
21
-22.5263010000000001
0
LINE
8
BLACK
6
CONTINUOUS
10
19.834070999999998
20
-22.5263010000000001
11
19.8836039999999983
21
-22.2135669999999976
0
LINE
8
BLACK
6
CONTINUOUS
10
19.8836039999999983
20
-22.2135669999999976
11
19.9655539999999974
21
-21.9077239999999982
0
LINE
8
BLACK
6
CONTINUOUS
10
19.9655539999999974
20
-21.9077239999999982
11
20.0790249999999979
21
-21.6121219999999994
0
LINE
8
BLACK
6
CONTINUOUS
10
20.0790249999999979
20
-21.6121219999999994
11
20.2227730000000001
21
-21.3299999999999983
0
LINE
8
BLACK
6
CONTINUOUS
10
20.2227730000000001
20
-21.3299999999999983
11
20.3952239999999989
21
-21.0644500000000008
0
LINE
8
BLACK
6
CONTINUOUS
10
20.3952239999999989
20
-21.0644500000000008
11
20.5944869999999973
21
-20.8183799999999977
0
LINE
8
BLACK
6
CONTINUOUS
10
20.5944869999999973
20
-20.8183799999999977
11
20.8183799999999977
21
-20.5944869999999973
0
LINE
8
BLACK
6
CONTINUOUS
10
20.8183799999999977
20
-20.5944869999999973
11
21.0644500000000008
21
-20.3952239999999989
0
LINE
8
BLACK
6
CONTINUOUS
10
21.0644500000000008
20
-20.3952239999999989
11
21.3299999999999983
21
-20.2227730000000001
0
LINE
8
BLACK
6
CONTINUOUS
10
21.3299999999999983
20
-20.2227730000000001
11
21.6121219999999994
21
-20.0790249999999979
0
LINE
8
BLACK
6
CONTINUOUS
10
21.6121219999999994
20
-20.0790249999999979
11
21.9077239999999982
21
-19.9655539999999974
0
LINE
8
BLACK
6
CONTINUOUS
10
21.9077239999999982
20
-19.9655539999999974
11
22.2135669999999976
21
-19.8836039999999983
0
LINE
8
BLACK
6
CONTINUOUS
10
22.2135669999999976
20
-19.8836039999999983
11
22.5263010000000001
21
-19.834070999999998
0
LINE
8
BLACK
6
CONTINUOUS
10
22.5263010000000001
20
-19.834070999999998
11
22.8424999999999976
21
-19.817499999999999
0
LINE
8
BLACK
6
CONTINUOUS
10
22.8424999999999976
20
-19.817499999999999
11
126.9860979999999984
21
-19.817499999999999
0
LINE
8
BLACK
6
CONTINUOUS
10
126.9860979999999984
20
-19.817499999999999
11
128.5682199999999966
21
-19.0264389999999999
0
LINE
8
BLACK
6
CONTINUOUS
10
128.5682199999999966
20
-19.0264389999999999
11
128.5694269999999904
21
-19.0261080000000007
0
LINE
8
BLACK
6
CONTINUOUS
10
128.5694269999999904
20
-19.0261080000000007
11
128.5698329999999885
21
-19.025703
0
LINE
8
BLACK
6
CONTINUOUS
10
128.5698329999999885
20
-19.025703
11
128.5737629999999854
21
-19.0249209999999991
0
LINE
8
BLACK
6
CONTINUOUS
10
128.5737629999999854
20
-19.0249209999999991
11
128.5776280000000042
21
-19.0238629999999986
0
LINE
8
BLACK
6
CONTINUOUS
10
128.5776280000000042
20
-19.0238629999999986
11
128.5781709999999975
21
-19.024044
0
LINE
8
BLACK
6
CONTINUOUS
10
128.5781709999999975
20
-19.024044
11
128.5793999999999926
21
-19.0237999999999978
0
LINE
8
BLACK
6
CONTINUOUS
10
128.5793999999999926
20
-19.0237999999999978
11
138.1038000000000068
21
-19.0237999999999978
0
LINE
8
BLACK
6
CONTINUOUS
10
138.1038000000000068
20
-19.0237999999999978
11
138.1050280000000043
21
-19.024044
0
LINE
8
BLACK
6
CONTINUOUS
10
128.5853019999999844
20
-19.0737999999999985
11
127.0031800000000004
21
-19.8648609999999977
0
LINE
8
BLACK
6
CONTINUOUS
10
127.0031800000000004
20
-19.8648609999999977
11
127.001971999999995
21
-19.8651909999999994
0
LINE
8
BLACK
6
CONTINUOUS
10
127.001971999999995
20
-19.8651909999999994
11
127.0015669999999943
21
-19.8655969999999975
0
LINE
8
BLACK
6
CONTINUOUS
10
127.0015669999999943
20
-19.8655969999999975
11
126.997636
21
-19.8663779999999974
0
LINE
8
BLACK
6
CONTINUOUS
10
126.997636
20
-19.8663779999999974
11
126.9937719999999928
21
-19.8674369999999989
0
LINE
8
BLACK
6
CONTINUOUS
10
126.9937719999999928
20
-19.8674369999999989
11
126.9932279999999878
21
-19.8672550000000001
0
LINE
8
BLACK
6
CONTINUOUS
10
126.9932279999999878
20
-19.8672550000000001
11
126.9919999999999902
21
-19.8674999999999997
0
LINE
8
BLACK
6
CONTINUOUS
10
126.9919999999999902
20
-19.8674999999999997
11
22.8424999999999976
21
-19.8674999999999997
0
LINE
8
BLACK
6
CONTINUOUS
10
22.8424999999999976
20
-19.8674999999999997
11
22.6865869999999994
21
-19.8674999999999997
0
LINE
8
BLACK
6
CONTINUOUS
10
22.6865869999999994
20
-19.8674999999999997
11
22.3764690000000002
21
-19.9000939999999993
0
LINE
8
BLACK
6
CONTINUOUS
10
22.3764690000000002
20
-19.9000939999999993
11
22.0714569999999988
21
-19.9649269999999994
0
LINE
8
BLACK
6
CONTINUOUS
10
22.0714569999999988
20
-19.9649269999999994
11
21.7748919999999977
21
-20.0612859999999991
0
LINE
8
BLACK
6
CONTINUOUS
10
21.7748919999999977
20
-20.0612859999999991
11
21.4900249999999993
21
-20.1881179999999993
0
LINE
8
BLACK
6
CONTINUOUS
10
21.4900249999999993
20
-20.1881179999999993
11
21.219974999999998
21
-20.3440309999999975
0
LINE
8
BLACK
6
CONTINUOUS
10
21.219974999999998
20
-20.3440309999999975
11
20.9677019999999992
21
-20.5273179999999975
0
LINE
8
BLACK
6
CONTINUOUS
10
20.9677019999999992
20
-20.5273179999999975
11
20.7359699999999982
21
-20.7359699999999982
0
LINE
8
BLACK
6
CONTINUOUS
10
20.7359699999999982
20
-20.7359699999999982
11
20.5273179999999975
21
-20.9677019999999992
0
LINE
8
BLACK
6
CONTINUOUS
10
20.5273179999999975
20
-20.9677019999999992
11
20.3440309999999975
21
-21.219974999999998
0
LINE
8
BLACK
6
CONTINUOUS
10
20.3440309999999975
20
-21.219974999999998
11
20.1881179999999993
21
-21.4900249999999993
0
LINE
8
BLACK
6
CONTINUOUS
10
20.1881179999999993
20
-21.4900249999999993
11
20.0612859999999991
21
-21.7748919999999977
0
LINE
8
BLACK
6
CONTINUOUS
10
20.0612859999999991
20
-21.7748919999999977
11
19.9649269999999994
21
-22.0714569999999988
0
LINE
8
BLACK
6
CONTINUOUS
10
19.9649269999999994
20
-22.0714569999999988
11
19.9000939999999993
21
-22.3764690000000002
0
LINE
8
BLACK
6
CONTINUOUS
10
19.9000939999999993
20
-22.3764690000000002
11
19.8674999999999997
21
-22.6865869999999994
0
LINE
8
BLACK
6
CONTINUOUS
10
19.8674999999999997
20
-22.6865869999999994
11
19.8674999999999997
21
-22.8424999999999976
0
LINE
8
BLACK
6
CONTINUOUS
10
19.8674999999999997
20
-22.8424999999999976
11
19.8674999999999997
21
-91.4502999999999986
0
LINE
8
BLACK
6
CONTINUOUS
10
19.8674999999999997
20
-91.4502999999999986
11
19.8674999999999997
21
-91.6062129999999968
0
LINE
8
BLACK
6
CONTINUOUS
10
19.8674999999999997
20
-91.6062129999999968
11
19.9000939999999993
21
-91.9163309999999996
0
LINE
8
BLACK
6
CONTINUOUS
10
19.9000939999999993
20
-91.9163309999999996
11
19.9649269999999994
21
-92.2213429999999903
0
LINE
8
BLACK
6
CONTINUOUS
10
19.9649269999999994
20
-92.2213429999999903
11
20.0612859999999991
21
-92.5179079999999914
0
LINE
8
BLACK
6
CONTINUOUS
10
20.0612859999999991
20
-92.5179079999999914
11
20.1881179999999993
21
-92.8027749999999969
0
LINE
8
BLACK
6
CONTINUOUS
10
20.1881179999999993
20
-92.8027749999999969
11
20.3440309999999975
21
-93.0728249999999946
0
LINE
8
BLACK
6
CONTINUOUS
10
20.3440309999999975
20
-93.0728249999999946
11
20.5273179999999975
21
-93.325097999999997
0
LINE
8
BLACK
6
CONTINUOUS
10
20.5273179999999975
20
-93.325097999999997
11
20.7359699999999982
21
-93.5568299999999908
0
LINE
8
BLACK
6
CONTINUOUS
10
20.7359699999999982
20
-93.5568299999999908
11
20.9677019999999992
21
-93.7654819999999916
0
LINE
8
BLACK
6
CONTINUOUS
10
20.9677019999999992
20
-93.7654819999999916
11
21.219974999999998
21
-93.9487689999999986
0
LINE
8
BLACK
6
CONTINUOUS
10
21.219974999999998
20
-93.9487689999999986
11
21.4900249999999993
21
-94.1046819999999968
0
LINE
8
BLACK
6
CONTINUOUS
10
21.4900249999999993
20
-94.1046819999999968
11
21.7748919999999977
21
-94.23151399999999
0
LINE
8
BLACK
6
CONTINUOUS
10
21.7748919999999977
20
-94.23151399999999
11
22.0714569999999988
21
-94.3278729999999968
0
LINE
8
BLACK
6
CONTINUOUS
10
22.0714569999999988
20
-94.3278729999999968
11
22.3764690000000002
21
-94.3927059999999898
0
LINE
8
BLACK
6
CONTINUOUS
10
22.3764690000000002
20
-94.3927059999999898
11
22.6865869999999994
21
-94.4252999999999929
0
LINE
8
BLACK
6
CONTINUOUS
10
22.6865869999999994
20
-94.4252999999999929
11
22.8424999999999976
21
-94.4252999999999929
0
LINE
8
BLACK
6
CONTINUOUS
10
22.8424999999999976
20
-94.4252999999999929
11
243.8406999999999982
21
-94.4252999999999929
0
LINE
8
BLACK
6
CONTINUOUS
10
243.8406999999999982
20
-94.4252999999999929
11
243.9966129999999964
21
-94.4252999999999929
0
LINE
8
BLACK
6
CONTINUOUS
10
243.9966129999999964
20
-94.4252999999999929
11
244.306730999999985
21
-94.3927059999999898
0
LINE
8
BLACK
6
CONTINUOUS
10
244.306730999999985
20
-94.3927059999999898
11
244.6117429999999899
21
-94.3278729999999968
0
LINE
8
BLACK
6
CONTINUOUS
10
244.6117429999999899
20
-94.3278729999999968
11
244.9083079999999768
21
-94.23151399999999
0
LINE
8
BLACK
6
CONTINUOUS
10
244.9083079999999768
20
-94.23151399999999
11
245.1931749999999965
21
-94.1046819999999968
0
LINE
8
BLACK
6
CONTINUOUS
10
245.1931749999999965
20
-94.1046819999999968
11
245.4632249999999942
21
-93.9487689999999986
0
LINE
8
BLACK
6
CONTINUOUS
10
245.4632249999999942
20
-93.9487689999999986
11
245.7154979999999966
21
-93.7654819999999916
0
LINE
8
BLACK
6
CONTINUOUS
10
245.7154979999999966
20
-93.7654819999999916
11
245.9472299999999905
21
-93.5568299999999908
0
LINE
8
BLACK
6
CONTINUOUS
10
245.9472299999999905
20
-93.5568299999999908
11
246.1558819999999912
21
-93.325097999999997
0
LINE
8
BLACK
6
CONTINUOUS
10
246.1558819999999912
20
-93.325097999999997
11
246.3391689999999983
21
-93.0728249999999946
0
LINE
8
BLACK
6
CONTINUOUS
10
246.3391689999999983
20
-93.0728249999999946
11
246.4950819999999965
21
-92.8027749999999969
0
LINE
8
BLACK
6
CONTINUOUS
10
246.4950819999999965
20
-92.8027749999999969
11
246.6219139999999754
21
-92.5179079999999914
0
LINE
8
BLACK
6
CONTINUOUS
10
246.6219139999999754
20
-92.5179079999999914
11
246.7182729999999822
21
-92.2213429999999903
0
LINE
8
BLACK
6
CONTINUOUS
10
246.7182729999999822
20
-92.2213429999999903
11
246.7831059999999752
21
-91.9163309999999996
0
LINE
8
BLACK
6
CONTINUOUS
10
246.7831059999999752
20
-91.9163309999999996
11
246.8156999999999925
21
-91.6062129999999968
0
LINE
8
BLACK
6
CONTINUOUS
10
246.8156999999999925
20
-91.6062129999999968
11
246.8156999999999925
21
-91.4502999999999986
0
LINE
8
BLACK
6
CONTINUOUS
10
246.8156999999999925
20
-91.4502999999999986
11
246.8156999999999925
21
-22.8424999999999976
0
LINE
8
BLACK
6
CONTINUOUS
10
246.8156999999999925
20
-22.8424999999999976
11
246.8156999999999925
21
-22.6865869999999994
0
LINE
8
BLACK
6
CONTINUOUS
10
246.8156999999999925
20
-22.6865869999999994
11
246.7831059999999752
21
-22.3764690000000002
0
LINE
8
BLACK
6
CONTINUOUS
10
246.7831059999999752
20
-22.3764690000000002
11
246.7182729999999822
21
-22.0714569999999988
0
LINE
8
BLACK
6
CONTINUOUS
10
246.7182729999999822
20
-22.0714569999999988
11
246.6219139999999754
21
-21.7748919999999977
0
LINE
8
BLACK
6
CONTINUOUS
10
246.6219139999999754
20
-21.7748919999999977
11
246.4950819999999965
21
-21.4900249999999993
0
LINE
8
BLACK
6
CONTINUOUS
10
246.4950819999999965
20
-21.4900249999999993
11
246.3391689999999983
21
-21.219974999999998
0
LINE
8
BLACK
6
CONTINUOUS
10
246.3391689999999983
20
-21.219974999999998
11
246.1558819999999912
21
-20.9677019999999992
0
LINE
8
BLACK
6
CONTINUOUS
10
246.1558819999999912
20
-20.9677019999999992
11
245.9472299999999905
21
-20.7359699999999982
0
LINE
8
BLACK
6
CONTINUOUS
10
245.9472299999999905
20
-20.7359699999999982
11
245.7154979999999966
21
-20.5273179999999975
0
LINE
8
BLACK
6
CONTINUOUS
10
245.7154979999999966
20
-20.5273179999999975
11
245.4632249999999942
21
-20.3440309999999975
0
LINE
8
BLACK
6
CONTINUOUS
10
245.4632249999999942
20
-20.3440309999999975
11
245.1931749999999965
21
-20.1881179999999993
0
LINE
8
BLACK
6
CONTINUOUS
10
245.1931749999999965
20
-20.1881179999999993
11
244.9083079999999768
21
-20.0612859999999991
0
LINE
8
BLACK
6
CONTINUOUS
10
244.9083079999999768
20
-20.0612859999999991
11
244.6117429999999899
21
-19.9649269999999994
0
LINE
8
BLACK
6
CONTINUOUS
10
244.6117429999999899
20
-19.9649269999999994
11
244.306730999999985
21
-19.9000939999999993
0
LINE
8
BLACK
6
CONTINUOUS
10
244.306730999999985
20
-19.9000939999999993
11
243.9966129999999964
21
-19.8674999999999997
0
LINE
8
BLACK
6
CONTINUOUS
10
243.9966129999999964
20
-19.8674999999999997
11
243.8406999999999982
21
-19.8674999999999997
0
LINE
8
BLACK
6
CONTINUOUS
10
243.8406999999999982
20
-19.8674999999999997
11
139.6911999999999807
21
-19.8674999999999997
0
LINE
8
BLACK
6
CONTINUOUS
10
139.6911999999999807
20
-19.8674999999999997
11
139.6899709999999857
21
-19.8672550000000001
0
LINE
8
BLACK
6
CONTINUOUS
10
139.6899709999999857
20
-19.8672550000000001
11
139.6894279999999924
21
-19.8674369999999989
0
LINE
8
BLACK
6
CONTINUOUS
10
139.6894279999999924
20
-19.8674369999999989
11
139.6855630000000019
21
-19.8663779999999974
0
LINE
8
BLACK
6
CONTINUOUS
10
139.6855630000000019
20
-19.8663779999999974
11
139.681633000000005
21
-19.8655969999999975
0
LINE
8
BLACK
6
CONTINUOUS
10
139.681633000000005
20
-19.8655969999999975
11
139.6812270000000069
21
-19.8651909999999994
0
LINE
8
BLACK
6
CONTINUOUS
10
139.6812270000000069
20
-19.8651909999999994
11
139.6800199999999847
21
-19.8648609999999977
0
LINE
8
BLACK
6
CONTINUOUS
10
139.6800199999999847
20
-19.8648609999999977
11
138.0978979999999865
21
-19.0737999999999985
0
LINE
8
BLACK
6
CONTINUOUS
10
138.0978979999999865
20
-19.0737999999999985
11
128.5853019999999844
21
-19.0737999999999985
  0
ENDSEC
  0
EOF
