%TF.GenerationSoftware,KiCad,Pcbnew,9.0.7*%
%TF.CreationDate,2026-03-14T00:10:16+02:00*%
%TF.ProjectId,koiboard2,6b6f6962-6f61-4726-9432-2e6b69636164,rev?*%
%TF.SameCoordinates,Original*%
%TF.FileFunction,Legend,Bot*%
%TF.FilePolarity,Positive*%
%FSLAX46Y46*%
G04 Gerber Fmt 4.6, Leading zero omitted, Abs format (unit mm)*
G04 Created by KiCad (PCBNEW 9.0.7) date 2026-03-14 00:10:16*
%MOMM*%
%LPD*%
G01*
G04 APERTURE LIST*
%ADD10C,0.150000*%
%ADD11C,0.120000*%
G04 APERTURE END LIST*
D10*
X133400000Y-49600000D02*
X135200000Y-47800000D01*
X132800000Y-42600000D02*
X132800000Y-49200000D01*
X132200000Y-48600000D02*
X132200000Y-50600000D01*
X135200000Y-47800000D02*
X135200000Y-45000000D01*
X137000000Y-53800000D02*
X141600000Y-58400000D01*
X132800000Y-51200000D02*
X132800000Y-50000000D01*
X141600000Y-59400000D02*
X141600000Y-57000000D01*
X119400000Y-66200000D02*
X113200000Y-66200000D01*
X128400000Y-62400000D02*
X126800000Y-62400000D01*
X132200000Y-49600000D02*
X133400000Y-49600000D01*
X125000000Y-60400000D02*
X119400000Y-66200000D01*
X132800000Y-51200000D02*
X127000000Y-57000000D01*
X126800000Y-62400000D02*
X126800000Y-57600000D01*
X53869656Y-67569031D02*
X52869656Y-67569031D01*
X52869656Y-67569031D02*
X52869656Y-67807126D01*
X52869656Y-67807126D02*
X52917275Y-67949983D01*
X52917275Y-67949983D02*
X53012513Y-68045221D01*
X53012513Y-68045221D02*
X53107751Y-68092840D01*
X53107751Y-68092840D02*
X53298227Y-68140459D01*
X53298227Y-68140459D02*
X53441084Y-68140459D01*
X53441084Y-68140459D02*
X53631560Y-68092840D01*
X53631560Y-68092840D02*
X53726798Y-68045221D01*
X53726798Y-68045221D02*
X53822037Y-67949983D01*
X53822037Y-67949983D02*
X53869656Y-67807126D01*
X53869656Y-67807126D02*
X53869656Y-67569031D01*
X52964894Y-68521412D02*
X52917275Y-68569031D01*
X52917275Y-68569031D02*
X52869656Y-68664269D01*
X52869656Y-68664269D02*
X52869656Y-68902364D01*
X52869656Y-68902364D02*
X52917275Y-68997602D01*
X52917275Y-68997602D02*
X52964894Y-69045221D01*
X52964894Y-69045221D02*
X53060132Y-69092840D01*
X53060132Y-69092840D02*
X53155370Y-69092840D01*
X53155370Y-69092840D02*
X53298227Y-69045221D01*
X53298227Y-69045221D02*
X53869656Y-68473793D01*
X53869656Y-68473793D02*
X53869656Y-69092840D01*
X52869656Y-69949983D02*
X52869656Y-69759507D01*
X52869656Y-69759507D02*
X52917275Y-69664269D01*
X52917275Y-69664269D02*
X52964894Y-69616650D01*
X52964894Y-69616650D02*
X53107751Y-69521412D01*
X53107751Y-69521412D02*
X53298227Y-69473793D01*
X53298227Y-69473793D02*
X53679179Y-69473793D01*
X53679179Y-69473793D02*
X53774417Y-69521412D01*
X53774417Y-69521412D02*
X53822037Y-69569031D01*
X53822037Y-69569031D02*
X53869656Y-69664269D01*
X53869656Y-69664269D02*
X53869656Y-69854745D01*
X53869656Y-69854745D02*
X53822037Y-69949983D01*
X53822037Y-69949983D02*
X53774417Y-69997602D01*
X53774417Y-69997602D02*
X53679179Y-70045221D01*
X53679179Y-70045221D02*
X53441084Y-70045221D01*
X53441084Y-70045221D02*
X53345846Y-69997602D01*
X53345846Y-69997602D02*
X53298227Y-69949983D01*
X53298227Y-69949983D02*
X53250608Y-69854745D01*
X53250608Y-69854745D02*
X53250608Y-69664269D01*
X53250608Y-69664269D02*
X53298227Y-69569031D01*
X53298227Y-69569031D02*
X53345846Y-69521412D01*
X53345846Y-69521412D02*
X53441084Y-69473793D01*
X140233474Y-83886525D02*
X140940580Y-83179418D01*
X140940580Y-83179418D02*
X140772222Y-83011059D01*
X140772222Y-83011059D02*
X140637535Y-82943716D01*
X140637535Y-82943716D02*
X140502848Y-82943716D01*
X140502848Y-82943716D02*
X140401832Y-82977388D01*
X140401832Y-82977388D02*
X140233474Y-83078403D01*
X140233474Y-83078403D02*
X140132458Y-83179418D01*
X140132458Y-83179418D02*
X140031443Y-83347777D01*
X140031443Y-83347777D02*
X139997771Y-83448792D01*
X139997771Y-83448792D02*
X139997771Y-83583479D01*
X139997771Y-83583479D02*
X140065115Y-83718166D01*
X140065115Y-83718166D02*
X140233474Y-83886525D01*
X139694726Y-82404968D02*
X139223321Y-82876372D01*
X140132458Y-82303953D02*
X139795741Y-82977388D01*
X139795741Y-82977388D02*
X139358008Y-82539655D01*
X139021290Y-81731533D02*
X138549886Y-82202937D01*
X139459023Y-81630517D02*
X139122306Y-82303952D01*
X139122306Y-82303952D02*
X138684573Y-81866220D01*
X168169656Y-67569031D02*
X167169656Y-67569031D01*
X167169656Y-67569031D02*
X167169656Y-67807126D01*
X167169656Y-67807126D02*
X167217275Y-67949983D01*
X167217275Y-67949983D02*
X167312513Y-68045221D01*
X167312513Y-68045221D02*
X167407751Y-68092840D01*
X167407751Y-68092840D02*
X167598227Y-68140459D01*
X167598227Y-68140459D02*
X167741084Y-68140459D01*
X167741084Y-68140459D02*
X167931560Y-68092840D01*
X167931560Y-68092840D02*
X168026798Y-68045221D01*
X168026798Y-68045221D02*
X168122037Y-67949983D01*
X168122037Y-67949983D02*
X168169656Y-67807126D01*
X168169656Y-67807126D02*
X168169656Y-67569031D01*
X167169656Y-68473793D02*
X167169656Y-69092840D01*
X167169656Y-69092840D02*
X167550608Y-68759507D01*
X167550608Y-68759507D02*
X167550608Y-68902364D01*
X167550608Y-68902364D02*
X167598227Y-68997602D01*
X167598227Y-68997602D02*
X167645846Y-69045221D01*
X167645846Y-69045221D02*
X167741084Y-69092840D01*
X167741084Y-69092840D02*
X167979179Y-69092840D01*
X167979179Y-69092840D02*
X168074417Y-69045221D01*
X168074417Y-69045221D02*
X168122037Y-68997602D01*
X168122037Y-68997602D02*
X168169656Y-68902364D01*
X168169656Y-68902364D02*
X168169656Y-68616650D01*
X168169656Y-68616650D02*
X168122037Y-68521412D01*
X168122037Y-68521412D02*
X168074417Y-68473793D01*
X167264894Y-69473793D02*
X167217275Y-69521412D01*
X167217275Y-69521412D02*
X167169656Y-69616650D01*
X167169656Y-69616650D02*
X167169656Y-69854745D01*
X167169656Y-69854745D02*
X167217275Y-69949983D01*
X167217275Y-69949983D02*
X167264894Y-69997602D01*
X167264894Y-69997602D02*
X167360132Y-70045221D01*
X167360132Y-70045221D02*
X167455370Y-70045221D01*
X167455370Y-70045221D02*
X167598227Y-69997602D01*
X167598227Y-69997602D02*
X168169656Y-69426174D01*
X168169656Y-69426174D02*
X168169656Y-70045221D01*
X128331139Y-27933588D02*
X128331139Y-26933588D01*
X128331139Y-26933588D02*
X128093044Y-26933588D01*
X128093044Y-26933588D02*
X127950187Y-26981207D01*
X127950187Y-26981207D02*
X127854949Y-27076445D01*
X127854949Y-27076445D02*
X127807330Y-27171683D01*
X127807330Y-27171683D02*
X127759711Y-27362159D01*
X127759711Y-27362159D02*
X127759711Y-27505016D01*
X127759711Y-27505016D02*
X127807330Y-27695492D01*
X127807330Y-27695492D02*
X127854949Y-27790730D01*
X127854949Y-27790730D02*
X127950187Y-27885969D01*
X127950187Y-27885969D02*
X128093044Y-27933588D01*
X128093044Y-27933588D02*
X128331139Y-27933588D01*
X126902568Y-26933588D02*
X127093044Y-26933588D01*
X127093044Y-26933588D02*
X127188282Y-26981207D01*
X127188282Y-26981207D02*
X127235901Y-27028826D01*
X127235901Y-27028826D02*
X127331139Y-27171683D01*
X127331139Y-27171683D02*
X127378758Y-27362159D01*
X127378758Y-27362159D02*
X127378758Y-27743111D01*
X127378758Y-27743111D02*
X127331139Y-27838349D01*
X127331139Y-27838349D02*
X127283520Y-27885969D01*
X127283520Y-27885969D02*
X127188282Y-27933588D01*
X127188282Y-27933588D02*
X126997806Y-27933588D01*
X126997806Y-27933588D02*
X126902568Y-27885969D01*
X126902568Y-27885969D02*
X126854949Y-27838349D01*
X126854949Y-27838349D02*
X126807330Y-27743111D01*
X126807330Y-27743111D02*
X126807330Y-27505016D01*
X126807330Y-27505016D02*
X126854949Y-27409778D01*
X126854949Y-27409778D02*
X126902568Y-27362159D01*
X126902568Y-27362159D02*
X126997806Y-27314540D01*
X126997806Y-27314540D02*
X127188282Y-27314540D01*
X127188282Y-27314540D02*
X127283520Y-27362159D01*
X127283520Y-27362159D02*
X127331139Y-27409778D01*
X127331139Y-27409778D02*
X127378758Y-27505016D01*
X139600306Y-62708829D02*
X139600306Y-62776173D01*
X139600306Y-62776173D02*
X139667650Y-62910860D01*
X139667650Y-62910860D02*
X139734993Y-62978203D01*
X139734993Y-62978203D02*
X139869680Y-63045547D01*
X139869680Y-63045547D02*
X140004367Y-63045547D01*
X140004367Y-63045547D02*
X140105382Y-63011875D01*
X140105382Y-63011875D02*
X140273741Y-62910860D01*
X140273741Y-62910860D02*
X140374756Y-62809845D01*
X140374756Y-62809845D02*
X140475772Y-62641486D01*
X140475772Y-62641486D02*
X140509443Y-62540471D01*
X140509443Y-62540471D02*
X140509443Y-62405784D01*
X140509443Y-62405784D02*
X140442100Y-62271097D01*
X140442100Y-62271097D02*
X140374756Y-62203753D01*
X140374756Y-62203753D02*
X140240069Y-62136410D01*
X140240069Y-62136410D02*
X140172726Y-62136410D01*
X138859528Y-62102738D02*
X139263589Y-62506799D01*
X139061558Y-62304768D02*
X139768665Y-61597662D01*
X139768665Y-61597662D02*
X139734993Y-61766020D01*
X139734993Y-61766020D02*
X139734993Y-61900707D01*
X139734993Y-61900707D02*
X139768665Y-62001723D01*
X139128901Y-60957898D02*
X139061558Y-60890555D01*
X139061558Y-60890555D02*
X138960543Y-60856883D01*
X138960543Y-60856883D02*
X138893199Y-60856883D01*
X138893199Y-60856883D02*
X138792184Y-60890555D01*
X138792184Y-60890555D02*
X138623825Y-60991570D01*
X138623825Y-60991570D02*
X138455466Y-61159929D01*
X138455466Y-61159929D02*
X138354451Y-61328287D01*
X138354451Y-61328287D02*
X138320779Y-61429303D01*
X138320779Y-61429303D02*
X138320779Y-61496646D01*
X138320779Y-61496646D02*
X138354451Y-61597661D01*
X138354451Y-61597661D02*
X138421795Y-61665005D01*
X138421795Y-61665005D02*
X138522810Y-61698677D01*
X138522810Y-61698677D02*
X138590153Y-61698677D01*
X138590153Y-61698677D02*
X138691169Y-61665005D01*
X138691169Y-61665005D02*
X138859527Y-61563990D01*
X138859527Y-61563990D02*
X139027886Y-61395631D01*
X139027886Y-61395631D02*
X139128901Y-61227272D01*
X139128901Y-61227272D02*
X139162573Y-61126257D01*
X139162573Y-61126257D02*
X139162573Y-61058913D01*
X139162573Y-61058913D02*
X139128901Y-60957898D01*
X126359580Y-58433333D02*
X126407200Y-58385714D01*
X126407200Y-58385714D02*
X126454819Y-58242857D01*
X126454819Y-58242857D02*
X126454819Y-58147619D01*
X126454819Y-58147619D02*
X126407200Y-58004762D01*
X126407200Y-58004762D02*
X126311961Y-57909524D01*
X126311961Y-57909524D02*
X126216723Y-57861905D01*
X126216723Y-57861905D02*
X126026247Y-57814286D01*
X126026247Y-57814286D02*
X125883390Y-57814286D01*
X125883390Y-57814286D02*
X125692914Y-57861905D01*
X125692914Y-57861905D02*
X125597676Y-57909524D01*
X125597676Y-57909524D02*
X125502438Y-58004762D01*
X125502438Y-58004762D02*
X125454819Y-58147619D01*
X125454819Y-58147619D02*
X125454819Y-58242857D01*
X125454819Y-58242857D02*
X125502438Y-58385714D01*
X125502438Y-58385714D02*
X125550057Y-58433333D01*
X125883390Y-59004762D02*
X125835771Y-58909524D01*
X125835771Y-58909524D02*
X125788152Y-58861905D01*
X125788152Y-58861905D02*
X125692914Y-58814286D01*
X125692914Y-58814286D02*
X125645295Y-58814286D01*
X125645295Y-58814286D02*
X125550057Y-58861905D01*
X125550057Y-58861905D02*
X125502438Y-58909524D01*
X125502438Y-58909524D02*
X125454819Y-59004762D01*
X125454819Y-59004762D02*
X125454819Y-59195238D01*
X125454819Y-59195238D02*
X125502438Y-59290476D01*
X125502438Y-59290476D02*
X125550057Y-59338095D01*
X125550057Y-59338095D02*
X125645295Y-59385714D01*
X125645295Y-59385714D02*
X125692914Y-59385714D01*
X125692914Y-59385714D02*
X125788152Y-59338095D01*
X125788152Y-59338095D02*
X125835771Y-59290476D01*
X125835771Y-59290476D02*
X125883390Y-59195238D01*
X125883390Y-59195238D02*
X125883390Y-59004762D01*
X125883390Y-59004762D02*
X125931009Y-58909524D01*
X125931009Y-58909524D02*
X125978628Y-58861905D01*
X125978628Y-58861905D02*
X126073866Y-58814286D01*
X126073866Y-58814286D02*
X126264342Y-58814286D01*
X126264342Y-58814286D02*
X126359580Y-58861905D01*
X126359580Y-58861905D02*
X126407200Y-58909524D01*
X126407200Y-58909524D02*
X126454819Y-59004762D01*
X126454819Y-59004762D02*
X126454819Y-59195238D01*
X126454819Y-59195238D02*
X126407200Y-59290476D01*
X126407200Y-59290476D02*
X126359580Y-59338095D01*
X126359580Y-59338095D02*
X126264342Y-59385714D01*
X126264342Y-59385714D02*
X126073866Y-59385714D01*
X126073866Y-59385714D02*
X125978628Y-59338095D01*
X125978628Y-59338095D02*
X125931009Y-59290476D01*
X125931009Y-59290476D02*
X125883390Y-59195238D01*
X131811607Y-43701428D02*
X131859226Y-43749048D01*
X131859226Y-43749048D02*
X132002083Y-43796667D01*
X132002083Y-43796667D02*
X132097321Y-43796667D01*
X132097321Y-43796667D02*
X132240178Y-43749048D01*
X132240178Y-43749048D02*
X132335416Y-43653809D01*
X132335416Y-43653809D02*
X132383035Y-43558571D01*
X132383035Y-43558571D02*
X132430654Y-43368095D01*
X132430654Y-43368095D02*
X132430654Y-43225238D01*
X132430654Y-43225238D02*
X132383035Y-43034762D01*
X132383035Y-43034762D02*
X132335416Y-42939524D01*
X132335416Y-42939524D02*
X132240178Y-42844286D01*
X132240178Y-42844286D02*
X132097321Y-42796667D01*
X132097321Y-42796667D02*
X132002083Y-42796667D01*
X132002083Y-42796667D02*
X131859226Y-42844286D01*
X131859226Y-42844286D02*
X131811607Y-42891905D01*
X130954464Y-43130000D02*
X130954464Y-43796667D01*
X131192559Y-42749048D02*
X131430654Y-43463333D01*
X131430654Y-43463333D02*
X130811607Y-43463333D01*
X134302337Y-47480519D02*
X134635670Y-47004328D01*
X134873765Y-47480519D02*
X134873765Y-46480519D01*
X134873765Y-46480519D02*
X134492813Y-46480519D01*
X134492813Y-46480519D02*
X134397575Y-46528138D01*
X134397575Y-46528138D02*
X134349956Y-46575757D01*
X134349956Y-46575757D02*
X134302337Y-46670995D01*
X134302337Y-46670995D02*
X134302337Y-46813852D01*
X134302337Y-46813852D02*
X134349956Y-46909090D01*
X134349956Y-46909090D02*
X134397575Y-46956709D01*
X134397575Y-46956709D02*
X134492813Y-47004328D01*
X134492813Y-47004328D02*
X134873765Y-47004328D01*
X133969003Y-46480519D02*
X133302337Y-46480519D01*
X133302337Y-46480519D02*
X133730908Y-47480519D01*
X187219656Y-67569031D02*
X186219656Y-67569031D01*
X186219656Y-67569031D02*
X186219656Y-67807126D01*
X186219656Y-67807126D02*
X186267275Y-67949983D01*
X186267275Y-67949983D02*
X186362513Y-68045221D01*
X186362513Y-68045221D02*
X186457751Y-68092840D01*
X186457751Y-68092840D02*
X186648227Y-68140459D01*
X186648227Y-68140459D02*
X186791084Y-68140459D01*
X186791084Y-68140459D02*
X186981560Y-68092840D01*
X186981560Y-68092840D02*
X187076798Y-68045221D01*
X187076798Y-68045221D02*
X187172037Y-67949983D01*
X187172037Y-67949983D02*
X187219656Y-67807126D01*
X187219656Y-67807126D02*
X187219656Y-67569031D01*
X186219656Y-68473793D02*
X186219656Y-69092840D01*
X186219656Y-69092840D02*
X186600608Y-68759507D01*
X186600608Y-68759507D02*
X186600608Y-68902364D01*
X186600608Y-68902364D02*
X186648227Y-68997602D01*
X186648227Y-68997602D02*
X186695846Y-69045221D01*
X186695846Y-69045221D02*
X186791084Y-69092840D01*
X186791084Y-69092840D02*
X187029179Y-69092840D01*
X187029179Y-69092840D02*
X187124417Y-69045221D01*
X187124417Y-69045221D02*
X187172037Y-68997602D01*
X187172037Y-68997602D02*
X187219656Y-68902364D01*
X187219656Y-68902364D02*
X187219656Y-68616650D01*
X187219656Y-68616650D02*
X187172037Y-68521412D01*
X187172037Y-68521412D02*
X187124417Y-68473793D01*
X186219656Y-69426174D02*
X186219656Y-70045221D01*
X186219656Y-70045221D02*
X186600608Y-69711888D01*
X186600608Y-69711888D02*
X186600608Y-69854745D01*
X186600608Y-69854745D02*
X186648227Y-69949983D01*
X186648227Y-69949983D02*
X186695846Y-69997602D01*
X186695846Y-69997602D02*
X186791084Y-70045221D01*
X186791084Y-70045221D02*
X187029179Y-70045221D01*
X187029179Y-70045221D02*
X187124417Y-69997602D01*
X187124417Y-69997602D02*
X187172037Y-69949983D01*
X187172037Y-69949983D02*
X187219656Y-69854745D01*
X187219656Y-69854745D02*
X187219656Y-69569031D01*
X187219656Y-69569031D02*
X187172037Y-69473793D01*
X187172037Y-69473793D02*
X187124417Y-69426174D01*
X244369656Y-29469031D02*
X243369656Y-29469031D01*
X243369656Y-29469031D02*
X243369656Y-29707126D01*
X243369656Y-29707126D02*
X243417275Y-29849983D01*
X243417275Y-29849983D02*
X243512513Y-29945221D01*
X243512513Y-29945221D02*
X243607751Y-29992840D01*
X243607751Y-29992840D02*
X243798227Y-30040459D01*
X243798227Y-30040459D02*
X243941084Y-30040459D01*
X243941084Y-30040459D02*
X244131560Y-29992840D01*
X244131560Y-29992840D02*
X244226798Y-29945221D01*
X244226798Y-29945221D02*
X244322037Y-29849983D01*
X244322037Y-29849983D02*
X244369656Y-29707126D01*
X244369656Y-29707126D02*
X244369656Y-29469031D01*
X244369656Y-30992840D02*
X244369656Y-30421412D01*
X244369656Y-30707126D02*
X243369656Y-30707126D01*
X243369656Y-30707126D02*
X243512513Y-30611888D01*
X243512513Y-30611888D02*
X243607751Y-30516650D01*
X243607751Y-30516650D02*
X243655370Y-30421412D01*
X243464894Y-31373793D02*
X243417275Y-31421412D01*
X243417275Y-31421412D02*
X243369656Y-31516650D01*
X243369656Y-31516650D02*
X243369656Y-31754745D01*
X243369656Y-31754745D02*
X243417275Y-31849983D01*
X243417275Y-31849983D02*
X243464894Y-31897602D01*
X243464894Y-31897602D02*
X243560132Y-31945221D01*
X243560132Y-31945221D02*
X243655370Y-31945221D01*
X243655370Y-31945221D02*
X243798227Y-31897602D01*
X243798227Y-31897602D02*
X244369656Y-31326174D01*
X244369656Y-31326174D02*
X244369656Y-31945221D01*
X149119656Y-48519031D02*
X148119656Y-48519031D01*
X148119656Y-48519031D02*
X148119656Y-48757126D01*
X148119656Y-48757126D02*
X148167275Y-48899983D01*
X148167275Y-48899983D02*
X148262513Y-48995221D01*
X148262513Y-48995221D02*
X148357751Y-49042840D01*
X148357751Y-49042840D02*
X148548227Y-49090459D01*
X148548227Y-49090459D02*
X148691084Y-49090459D01*
X148691084Y-49090459D02*
X148881560Y-49042840D01*
X148881560Y-49042840D02*
X148976798Y-48995221D01*
X148976798Y-48995221D02*
X149072037Y-48899983D01*
X149072037Y-48899983D02*
X149119656Y-48757126D01*
X149119656Y-48757126D02*
X149119656Y-48519031D01*
X149119656Y-50042840D02*
X149119656Y-49471412D01*
X149119656Y-49757126D02*
X148119656Y-49757126D01*
X148119656Y-49757126D02*
X148262513Y-49661888D01*
X148262513Y-49661888D02*
X148357751Y-49566650D01*
X148357751Y-49566650D02*
X148405370Y-49471412D01*
X149119656Y-50519031D02*
X149119656Y-50709507D01*
X149119656Y-50709507D02*
X149072037Y-50804745D01*
X149072037Y-50804745D02*
X149024417Y-50852364D01*
X149024417Y-50852364D02*
X148881560Y-50947602D01*
X148881560Y-50947602D02*
X148691084Y-50995221D01*
X148691084Y-50995221D02*
X148310132Y-50995221D01*
X148310132Y-50995221D02*
X148214894Y-50947602D01*
X148214894Y-50947602D02*
X148167275Y-50899983D01*
X148167275Y-50899983D02*
X148119656Y-50804745D01*
X148119656Y-50804745D02*
X148119656Y-50614269D01*
X148119656Y-50614269D02*
X148167275Y-50519031D01*
X148167275Y-50519031D02*
X148214894Y-50471412D01*
X148214894Y-50471412D02*
X148310132Y-50423793D01*
X148310132Y-50423793D02*
X148548227Y-50423793D01*
X148548227Y-50423793D02*
X148643465Y-50471412D01*
X148643465Y-50471412D02*
X148691084Y-50519031D01*
X148691084Y-50519031D02*
X148738703Y-50614269D01*
X148738703Y-50614269D02*
X148738703Y-50804745D01*
X148738703Y-50804745D02*
X148691084Y-50899983D01*
X148691084Y-50899983D02*
X148643465Y-50947602D01*
X148643465Y-50947602D02*
X148548227Y-50995221D01*
X206269656Y-48519031D02*
X205269656Y-48519031D01*
X205269656Y-48519031D02*
X205269656Y-48757126D01*
X205269656Y-48757126D02*
X205317275Y-48899983D01*
X205317275Y-48899983D02*
X205412513Y-48995221D01*
X205412513Y-48995221D02*
X205507751Y-49042840D01*
X205507751Y-49042840D02*
X205698227Y-49090459D01*
X205698227Y-49090459D02*
X205841084Y-49090459D01*
X205841084Y-49090459D02*
X206031560Y-49042840D01*
X206031560Y-49042840D02*
X206126798Y-48995221D01*
X206126798Y-48995221D02*
X206222037Y-48899983D01*
X206222037Y-48899983D02*
X206269656Y-48757126D01*
X206269656Y-48757126D02*
X206269656Y-48519031D01*
X205364894Y-49471412D02*
X205317275Y-49519031D01*
X205317275Y-49519031D02*
X205269656Y-49614269D01*
X205269656Y-49614269D02*
X205269656Y-49852364D01*
X205269656Y-49852364D02*
X205317275Y-49947602D01*
X205317275Y-49947602D02*
X205364894Y-49995221D01*
X205364894Y-49995221D02*
X205460132Y-50042840D01*
X205460132Y-50042840D02*
X205555370Y-50042840D01*
X205555370Y-50042840D02*
X205698227Y-49995221D01*
X205698227Y-49995221D02*
X206269656Y-49423793D01*
X206269656Y-49423793D02*
X206269656Y-50042840D01*
X205364894Y-50423793D02*
X205317275Y-50471412D01*
X205317275Y-50471412D02*
X205269656Y-50566650D01*
X205269656Y-50566650D02*
X205269656Y-50804745D01*
X205269656Y-50804745D02*
X205317275Y-50899983D01*
X205317275Y-50899983D02*
X205364894Y-50947602D01*
X205364894Y-50947602D02*
X205460132Y-50995221D01*
X205460132Y-50995221D02*
X205555370Y-50995221D01*
X205555370Y-50995221D02*
X205698227Y-50947602D01*
X205698227Y-50947602D02*
X206269656Y-50376174D01*
X206269656Y-50376174D02*
X206269656Y-50995221D01*
X123966666Y-40044580D02*
X124014285Y-40092200D01*
X124014285Y-40092200D02*
X124157142Y-40139819D01*
X124157142Y-40139819D02*
X124252380Y-40139819D01*
X124252380Y-40139819D02*
X124395237Y-40092200D01*
X124395237Y-40092200D02*
X124490475Y-39996961D01*
X124490475Y-39996961D02*
X124538094Y-39901723D01*
X124538094Y-39901723D02*
X124585713Y-39711247D01*
X124585713Y-39711247D02*
X124585713Y-39568390D01*
X124585713Y-39568390D02*
X124538094Y-39377914D01*
X124538094Y-39377914D02*
X124490475Y-39282676D01*
X124490475Y-39282676D02*
X124395237Y-39187438D01*
X124395237Y-39187438D02*
X124252380Y-39139819D01*
X124252380Y-39139819D02*
X124157142Y-39139819D01*
X124157142Y-39139819D02*
X124014285Y-39187438D01*
X124014285Y-39187438D02*
X123966666Y-39235057D01*
X123585713Y-39235057D02*
X123538094Y-39187438D01*
X123538094Y-39187438D02*
X123442856Y-39139819D01*
X123442856Y-39139819D02*
X123204761Y-39139819D01*
X123204761Y-39139819D02*
X123109523Y-39187438D01*
X123109523Y-39187438D02*
X123061904Y-39235057D01*
X123061904Y-39235057D02*
X123014285Y-39330295D01*
X123014285Y-39330295D02*
X123014285Y-39425533D01*
X123014285Y-39425533D02*
X123061904Y-39568390D01*
X123061904Y-39568390D02*
X123633332Y-40139819D01*
X123633332Y-40139819D02*
X123014285Y-40139819D01*
X72919656Y-29945222D02*
X71919656Y-29945222D01*
X71919656Y-29945222D02*
X71919656Y-30183317D01*
X71919656Y-30183317D02*
X71967275Y-30326174D01*
X71967275Y-30326174D02*
X72062513Y-30421412D01*
X72062513Y-30421412D02*
X72157751Y-30469031D01*
X72157751Y-30469031D02*
X72348227Y-30516650D01*
X72348227Y-30516650D02*
X72491084Y-30516650D01*
X72491084Y-30516650D02*
X72681560Y-30469031D01*
X72681560Y-30469031D02*
X72776798Y-30421412D01*
X72776798Y-30421412D02*
X72872037Y-30326174D01*
X72872037Y-30326174D02*
X72919656Y-30183317D01*
X72919656Y-30183317D02*
X72919656Y-29945222D01*
X71919656Y-30849984D02*
X71919656Y-31469031D01*
X71919656Y-31469031D02*
X72300608Y-31135698D01*
X72300608Y-31135698D02*
X72300608Y-31278555D01*
X72300608Y-31278555D02*
X72348227Y-31373793D01*
X72348227Y-31373793D02*
X72395846Y-31421412D01*
X72395846Y-31421412D02*
X72491084Y-31469031D01*
X72491084Y-31469031D02*
X72729179Y-31469031D01*
X72729179Y-31469031D02*
X72824417Y-31421412D01*
X72824417Y-31421412D02*
X72872037Y-31373793D01*
X72872037Y-31373793D02*
X72919656Y-31278555D01*
X72919656Y-31278555D02*
X72919656Y-30992841D01*
X72919656Y-30992841D02*
X72872037Y-30897603D01*
X72872037Y-30897603D02*
X72824417Y-30849984D01*
X111054819Y-48585714D02*
X110054819Y-48585714D01*
X110054819Y-48585714D02*
X110054819Y-48823809D01*
X110054819Y-48823809D02*
X110102438Y-48966666D01*
X110102438Y-48966666D02*
X110197676Y-49061904D01*
X110197676Y-49061904D02*
X110292914Y-49109523D01*
X110292914Y-49109523D02*
X110483390Y-49157142D01*
X110483390Y-49157142D02*
X110626247Y-49157142D01*
X110626247Y-49157142D02*
X110816723Y-49109523D01*
X110816723Y-49109523D02*
X110911961Y-49061904D01*
X110911961Y-49061904D02*
X111007200Y-48966666D01*
X111007200Y-48966666D02*
X111054819Y-48823809D01*
X111054819Y-48823809D02*
X111054819Y-48585714D01*
X111054819Y-50109523D02*
X111054819Y-49538095D01*
X111054819Y-49823809D02*
X110054819Y-49823809D01*
X110054819Y-49823809D02*
X110197676Y-49728571D01*
X110197676Y-49728571D02*
X110292914Y-49633333D01*
X110292914Y-49633333D02*
X110340533Y-49538095D01*
X110054819Y-50442857D02*
X110054819Y-51109523D01*
X110054819Y-51109523D02*
X111054819Y-50680952D01*
X168169656Y-86619031D02*
X167169656Y-86619031D01*
X167169656Y-86619031D02*
X167169656Y-86857126D01*
X167169656Y-86857126D02*
X167217275Y-86999983D01*
X167217275Y-86999983D02*
X167312513Y-87095221D01*
X167312513Y-87095221D02*
X167407751Y-87142840D01*
X167407751Y-87142840D02*
X167598227Y-87190459D01*
X167598227Y-87190459D02*
X167741084Y-87190459D01*
X167741084Y-87190459D02*
X167931560Y-87142840D01*
X167931560Y-87142840D02*
X168026798Y-87095221D01*
X168026798Y-87095221D02*
X168122037Y-86999983D01*
X168122037Y-86999983D02*
X168169656Y-86857126D01*
X168169656Y-86857126D02*
X168169656Y-86619031D01*
X167502989Y-88047602D02*
X168169656Y-88047602D01*
X167122037Y-87809507D02*
X167836322Y-87571412D01*
X167836322Y-87571412D02*
X167836322Y-88190459D01*
X167169656Y-89047602D02*
X167169656Y-88571412D01*
X167169656Y-88571412D02*
X167645846Y-88523793D01*
X167645846Y-88523793D02*
X167598227Y-88571412D01*
X167598227Y-88571412D02*
X167550608Y-88666650D01*
X167550608Y-88666650D02*
X167550608Y-88904745D01*
X167550608Y-88904745D02*
X167598227Y-88999983D01*
X167598227Y-88999983D02*
X167645846Y-89047602D01*
X167645846Y-89047602D02*
X167741084Y-89095221D01*
X167741084Y-89095221D02*
X167979179Y-89095221D01*
X167979179Y-89095221D02*
X168074417Y-89047602D01*
X168074417Y-89047602D02*
X168122037Y-88999983D01*
X168122037Y-88999983D02*
X168169656Y-88904745D01*
X168169656Y-88904745D02*
X168169656Y-88666650D01*
X168169656Y-88666650D02*
X168122037Y-88571412D01*
X168122037Y-88571412D02*
X168074417Y-88523793D01*
X23238182Y-25724242D02*
X22238182Y-25724242D01*
X22238182Y-25724242D02*
X22238182Y-25962337D01*
X22238182Y-25962337D02*
X22285801Y-26105194D01*
X22285801Y-26105194D02*
X22381039Y-26200432D01*
X22381039Y-26200432D02*
X22476277Y-26248051D01*
X22476277Y-26248051D02*
X22666753Y-26295670D01*
X22666753Y-26295670D02*
X22809610Y-26295670D01*
X22809610Y-26295670D02*
X23000086Y-26248051D01*
X23000086Y-26248051D02*
X23095324Y-26200432D01*
X23095324Y-26200432D02*
X23190563Y-26105194D01*
X23190563Y-26105194D02*
X23238182Y-25962337D01*
X23238182Y-25962337D02*
X23238182Y-25724242D01*
X23238182Y-27248051D02*
X23238182Y-26676623D01*
X23238182Y-26962337D02*
X22238182Y-26962337D01*
X22238182Y-26962337D02*
X22381039Y-26867099D01*
X22381039Y-26867099D02*
X22476277Y-26771861D01*
X22476277Y-26771861D02*
X22523896Y-26676623D01*
X91969656Y-48519031D02*
X90969656Y-48519031D01*
X90969656Y-48519031D02*
X90969656Y-48757126D01*
X90969656Y-48757126D02*
X91017275Y-48899983D01*
X91017275Y-48899983D02*
X91112513Y-48995221D01*
X91112513Y-48995221D02*
X91207751Y-49042840D01*
X91207751Y-49042840D02*
X91398227Y-49090459D01*
X91398227Y-49090459D02*
X91541084Y-49090459D01*
X91541084Y-49090459D02*
X91731560Y-49042840D01*
X91731560Y-49042840D02*
X91826798Y-48995221D01*
X91826798Y-48995221D02*
X91922037Y-48899983D01*
X91922037Y-48899983D02*
X91969656Y-48757126D01*
X91969656Y-48757126D02*
X91969656Y-48519031D01*
X91969656Y-50042840D02*
X91969656Y-49471412D01*
X91969656Y-49757126D02*
X90969656Y-49757126D01*
X90969656Y-49757126D02*
X91112513Y-49661888D01*
X91112513Y-49661888D02*
X91207751Y-49566650D01*
X91207751Y-49566650D02*
X91255370Y-49471412D01*
X90969656Y-50899983D02*
X90969656Y-50709507D01*
X90969656Y-50709507D02*
X91017275Y-50614269D01*
X91017275Y-50614269D02*
X91064894Y-50566650D01*
X91064894Y-50566650D02*
X91207751Y-50471412D01*
X91207751Y-50471412D02*
X91398227Y-50423793D01*
X91398227Y-50423793D02*
X91779179Y-50423793D01*
X91779179Y-50423793D02*
X91874417Y-50471412D01*
X91874417Y-50471412D02*
X91922037Y-50519031D01*
X91922037Y-50519031D02*
X91969656Y-50614269D01*
X91969656Y-50614269D02*
X91969656Y-50804745D01*
X91969656Y-50804745D02*
X91922037Y-50899983D01*
X91922037Y-50899983D02*
X91874417Y-50947602D01*
X91874417Y-50947602D02*
X91779179Y-50995221D01*
X91779179Y-50995221D02*
X91541084Y-50995221D01*
X91541084Y-50995221D02*
X91445846Y-50947602D01*
X91445846Y-50947602D02*
X91398227Y-50899983D01*
X91398227Y-50899983D02*
X91350608Y-50804745D01*
X91350608Y-50804745D02*
X91350608Y-50614269D01*
X91350608Y-50614269D02*
X91398227Y-50519031D01*
X91398227Y-50519031D02*
X91445846Y-50471412D01*
X91445846Y-50471412D02*
X91541084Y-50423793D01*
X23239030Y-44296003D02*
X22239030Y-44296003D01*
X22239030Y-44296003D02*
X22239030Y-44534098D01*
X22239030Y-44534098D02*
X22286649Y-44676955D01*
X22286649Y-44676955D02*
X22381887Y-44772193D01*
X22381887Y-44772193D02*
X22477125Y-44819812D01*
X22477125Y-44819812D02*
X22667601Y-44867431D01*
X22667601Y-44867431D02*
X22810458Y-44867431D01*
X22810458Y-44867431D02*
X23000934Y-44819812D01*
X23000934Y-44819812D02*
X23096172Y-44772193D01*
X23096172Y-44772193D02*
X23191411Y-44676955D01*
X23191411Y-44676955D02*
X23239030Y-44534098D01*
X23239030Y-44534098D02*
X23239030Y-44296003D01*
X23239030Y-45819812D02*
X23239030Y-45248384D01*
X23239030Y-45534098D02*
X22239030Y-45534098D01*
X22239030Y-45534098D02*
X22381887Y-45438860D01*
X22381887Y-45438860D02*
X22477125Y-45343622D01*
X22477125Y-45343622D02*
X22524744Y-45248384D01*
X22239030Y-46153146D02*
X22239030Y-46772193D01*
X22239030Y-46772193D02*
X22619982Y-46438860D01*
X22619982Y-46438860D02*
X22619982Y-46581717D01*
X22619982Y-46581717D02*
X22667601Y-46676955D01*
X22667601Y-46676955D02*
X22715220Y-46724574D01*
X22715220Y-46724574D02*
X22810458Y-46772193D01*
X22810458Y-46772193D02*
X23048553Y-46772193D01*
X23048553Y-46772193D02*
X23143791Y-46724574D01*
X23143791Y-46724574D02*
X23191411Y-46676955D01*
X23191411Y-46676955D02*
X23239030Y-46581717D01*
X23239030Y-46581717D02*
X23239030Y-46296003D01*
X23239030Y-46296003D02*
X23191411Y-46200765D01*
X23191411Y-46200765D02*
X23143791Y-46153146D01*
X23240727Y-82391906D02*
X22240727Y-82391906D01*
X22240727Y-82391906D02*
X22240727Y-82630001D01*
X22240727Y-82630001D02*
X22288346Y-82772858D01*
X22288346Y-82772858D02*
X22383584Y-82868096D01*
X22383584Y-82868096D02*
X22478822Y-82915715D01*
X22478822Y-82915715D02*
X22669298Y-82963334D01*
X22669298Y-82963334D02*
X22812155Y-82963334D01*
X22812155Y-82963334D02*
X23002631Y-82915715D01*
X23002631Y-82915715D02*
X23097869Y-82868096D01*
X23097869Y-82868096D02*
X23193108Y-82772858D01*
X23193108Y-82772858D02*
X23240727Y-82630001D01*
X23240727Y-82630001D02*
X23240727Y-82391906D01*
X22240727Y-83296668D02*
X22240727Y-83915715D01*
X22240727Y-83915715D02*
X22621679Y-83582382D01*
X22621679Y-83582382D02*
X22621679Y-83725239D01*
X22621679Y-83725239D02*
X22669298Y-83820477D01*
X22669298Y-83820477D02*
X22716917Y-83868096D01*
X22716917Y-83868096D02*
X22812155Y-83915715D01*
X22812155Y-83915715D02*
X23050250Y-83915715D01*
X23050250Y-83915715D02*
X23145488Y-83868096D01*
X23145488Y-83868096D02*
X23193108Y-83820477D01*
X23193108Y-83820477D02*
X23240727Y-83725239D01*
X23240727Y-83725239D02*
X23240727Y-83439525D01*
X23240727Y-83439525D02*
X23193108Y-83344287D01*
X23193108Y-83344287D02*
X23145488Y-83296668D01*
X22240727Y-84249049D02*
X22240727Y-84915715D01*
X22240727Y-84915715D02*
X23240727Y-84487144D01*
X131361904Y-40454819D02*
X131361904Y-41264342D01*
X131361904Y-41264342D02*
X131314285Y-41359580D01*
X131314285Y-41359580D02*
X131266666Y-41407200D01*
X131266666Y-41407200D02*
X131171428Y-41454819D01*
X131171428Y-41454819D02*
X130980952Y-41454819D01*
X130980952Y-41454819D02*
X130885714Y-41407200D01*
X130885714Y-41407200D02*
X130838095Y-41359580D01*
X130838095Y-41359580D02*
X130790476Y-41264342D01*
X130790476Y-41264342D02*
X130790476Y-40454819D01*
X129790476Y-41454819D02*
X130361904Y-41454819D01*
X130076190Y-41454819D02*
X130076190Y-40454819D01*
X130076190Y-40454819D02*
X130171428Y-40597676D01*
X130171428Y-40597676D02*
X130266666Y-40692914D01*
X130266666Y-40692914D02*
X130361904Y-40740533D01*
X167366666Y-81254819D02*
X167699999Y-80778628D01*
X167938094Y-81254819D02*
X167938094Y-80254819D01*
X167938094Y-80254819D02*
X167557142Y-80254819D01*
X167557142Y-80254819D02*
X167461904Y-80302438D01*
X167461904Y-80302438D02*
X167414285Y-80350057D01*
X167414285Y-80350057D02*
X167366666Y-80445295D01*
X167366666Y-80445295D02*
X167366666Y-80588152D01*
X167366666Y-80588152D02*
X167414285Y-80683390D01*
X167414285Y-80683390D02*
X167461904Y-80731009D01*
X167461904Y-80731009D02*
X167557142Y-80778628D01*
X167557142Y-80778628D02*
X167938094Y-80778628D01*
X167033332Y-80254819D02*
X166414285Y-80254819D01*
X166414285Y-80254819D02*
X166747618Y-80635771D01*
X166747618Y-80635771D02*
X166604761Y-80635771D01*
X166604761Y-80635771D02*
X166509523Y-80683390D01*
X166509523Y-80683390D02*
X166461904Y-80731009D01*
X166461904Y-80731009D02*
X166414285Y-80826247D01*
X166414285Y-80826247D02*
X166414285Y-81064342D01*
X166414285Y-81064342D02*
X166461904Y-81159580D01*
X166461904Y-81159580D02*
X166509523Y-81207200D01*
X166509523Y-81207200D02*
X166604761Y-81254819D01*
X166604761Y-81254819D02*
X166890475Y-81254819D01*
X166890475Y-81254819D02*
X166985713Y-81207200D01*
X166985713Y-81207200D02*
X167033332Y-81159580D01*
X175120208Y-76742966D02*
X175167827Y-76885823D01*
X175167827Y-76885823D02*
X175215446Y-76933442D01*
X175215446Y-76933442D02*
X175310684Y-76981061D01*
X175310684Y-76981061D02*
X175453541Y-76981061D01*
X175453541Y-76981061D02*
X175548779Y-76933442D01*
X175548779Y-76933442D02*
X175596399Y-76885823D01*
X175596399Y-76885823D02*
X175644018Y-76790585D01*
X175644018Y-76790585D02*
X175644018Y-76409633D01*
X175644018Y-76409633D02*
X174644018Y-76409633D01*
X174644018Y-76409633D02*
X174644018Y-76742966D01*
X174644018Y-76742966D02*
X174691637Y-76838204D01*
X174691637Y-76838204D02*
X174739256Y-76885823D01*
X174739256Y-76885823D02*
X174834494Y-76933442D01*
X174834494Y-76933442D02*
X174929732Y-76933442D01*
X174929732Y-76933442D02*
X175024970Y-76885823D01*
X175024970Y-76885823D02*
X175072589Y-76838204D01*
X175072589Y-76838204D02*
X175120208Y-76742966D01*
X175120208Y-76742966D02*
X175120208Y-76409633D01*
X174644018Y-77600109D02*
X174644018Y-77790585D01*
X174644018Y-77790585D02*
X174691637Y-77885823D01*
X174691637Y-77885823D02*
X174786875Y-77981061D01*
X174786875Y-77981061D02*
X174977351Y-78028680D01*
X174977351Y-78028680D02*
X175310684Y-78028680D01*
X175310684Y-78028680D02*
X175501160Y-77981061D01*
X175501160Y-77981061D02*
X175596399Y-77885823D01*
X175596399Y-77885823D02*
X175644018Y-77790585D01*
X175644018Y-77790585D02*
X175644018Y-77600109D01*
X175644018Y-77600109D02*
X175596399Y-77504871D01*
X175596399Y-77504871D02*
X175501160Y-77409633D01*
X175501160Y-77409633D02*
X175310684Y-77362014D01*
X175310684Y-77362014D02*
X174977351Y-77362014D01*
X174977351Y-77362014D02*
X174786875Y-77409633D01*
X174786875Y-77409633D02*
X174691637Y-77504871D01*
X174691637Y-77504871D02*
X174644018Y-77600109D01*
X174644018Y-78647728D02*
X174644018Y-78838204D01*
X174644018Y-78838204D02*
X174691637Y-78933442D01*
X174691637Y-78933442D02*
X174786875Y-79028680D01*
X174786875Y-79028680D02*
X174977351Y-79076299D01*
X174977351Y-79076299D02*
X175310684Y-79076299D01*
X175310684Y-79076299D02*
X175501160Y-79028680D01*
X175501160Y-79028680D02*
X175596399Y-78933442D01*
X175596399Y-78933442D02*
X175644018Y-78838204D01*
X175644018Y-78838204D02*
X175644018Y-78647728D01*
X175644018Y-78647728D02*
X175596399Y-78552490D01*
X175596399Y-78552490D02*
X175501160Y-78457252D01*
X175501160Y-78457252D02*
X175310684Y-78409633D01*
X175310684Y-78409633D02*
X174977351Y-78409633D01*
X174977351Y-78409633D02*
X174786875Y-78457252D01*
X174786875Y-78457252D02*
X174691637Y-78552490D01*
X174691637Y-78552490D02*
X174644018Y-78647728D01*
X174644018Y-79362014D02*
X174644018Y-79933442D01*
X175644018Y-79647728D02*
X174644018Y-79647728D01*
X175644018Y-80790585D02*
X175644018Y-80219157D01*
X175644018Y-80504871D02*
X174644018Y-80504871D01*
X174644018Y-80504871D02*
X174786875Y-80409633D01*
X174786875Y-80409633D02*
X174882113Y-80314395D01*
X174882113Y-80314395D02*
X174929732Y-80219157D01*
X134637947Y-66290689D02*
X134637947Y-66358033D01*
X134637947Y-66358033D02*
X134705291Y-66492720D01*
X134705291Y-66492720D02*
X134772634Y-66560063D01*
X134772634Y-66560063D02*
X134907321Y-66627407D01*
X134907321Y-66627407D02*
X135042008Y-66627407D01*
X135042008Y-66627407D02*
X135143023Y-66593735D01*
X135143023Y-66593735D02*
X135311382Y-66492720D01*
X135311382Y-66492720D02*
X135412397Y-66391705D01*
X135412397Y-66391705D02*
X135513413Y-66223346D01*
X135513413Y-66223346D02*
X135547084Y-66122331D01*
X135547084Y-66122331D02*
X135547084Y-65987644D01*
X135547084Y-65987644D02*
X135479741Y-65852957D01*
X135479741Y-65852957D02*
X135412397Y-65785613D01*
X135412397Y-65785613D02*
X135277710Y-65718270D01*
X135277710Y-65718270D02*
X135210367Y-65718270D01*
X134233886Y-66021315D02*
X134099199Y-65886628D01*
X134099199Y-65886628D02*
X134065527Y-65785613D01*
X134065527Y-65785613D02*
X134065527Y-65718270D01*
X134065527Y-65718270D02*
X134099199Y-65549911D01*
X134099199Y-65549911D02*
X134200214Y-65381552D01*
X134200214Y-65381552D02*
X134469588Y-65112178D01*
X134469588Y-65112178D02*
X134570604Y-65078506D01*
X134570604Y-65078506D02*
X134637947Y-65078506D01*
X134637947Y-65078506D02*
X134738962Y-65112178D01*
X134738962Y-65112178D02*
X134873649Y-65246865D01*
X134873649Y-65246865D02*
X134907321Y-65347880D01*
X134907321Y-65347880D02*
X134907321Y-65415224D01*
X134907321Y-65415224D02*
X134873649Y-65516239D01*
X134873649Y-65516239D02*
X134705291Y-65684598D01*
X134705291Y-65684598D02*
X134604275Y-65718270D01*
X134604275Y-65718270D02*
X134536932Y-65718270D01*
X134536932Y-65718270D02*
X134435917Y-65684598D01*
X134435917Y-65684598D02*
X134301230Y-65549911D01*
X134301230Y-65549911D02*
X134267558Y-65448896D01*
X134267558Y-65448896D02*
X134267558Y-65381552D01*
X134267558Y-65381552D02*
X134301230Y-65280537D01*
X244369656Y-48519031D02*
X243369656Y-48519031D01*
X243369656Y-48519031D02*
X243369656Y-48757126D01*
X243369656Y-48757126D02*
X243417275Y-48899983D01*
X243417275Y-48899983D02*
X243512513Y-48995221D01*
X243512513Y-48995221D02*
X243607751Y-49042840D01*
X243607751Y-49042840D02*
X243798227Y-49090459D01*
X243798227Y-49090459D02*
X243941084Y-49090459D01*
X243941084Y-49090459D02*
X244131560Y-49042840D01*
X244131560Y-49042840D02*
X244226798Y-48995221D01*
X244226798Y-48995221D02*
X244322037Y-48899983D01*
X244322037Y-48899983D02*
X244369656Y-48757126D01*
X244369656Y-48757126D02*
X244369656Y-48519031D01*
X243464894Y-49471412D02*
X243417275Y-49519031D01*
X243417275Y-49519031D02*
X243369656Y-49614269D01*
X243369656Y-49614269D02*
X243369656Y-49852364D01*
X243369656Y-49852364D02*
X243417275Y-49947602D01*
X243417275Y-49947602D02*
X243464894Y-49995221D01*
X243464894Y-49995221D02*
X243560132Y-50042840D01*
X243560132Y-50042840D02*
X243655370Y-50042840D01*
X243655370Y-50042840D02*
X243798227Y-49995221D01*
X243798227Y-49995221D02*
X244369656Y-49423793D01*
X244369656Y-49423793D02*
X244369656Y-50042840D01*
X243702989Y-50899983D02*
X244369656Y-50899983D01*
X243322037Y-50661888D02*
X244036322Y-50423793D01*
X244036322Y-50423793D02*
X244036322Y-51042840D01*
X53869656Y-29945222D02*
X52869656Y-29945222D01*
X52869656Y-29945222D02*
X52869656Y-30183317D01*
X52869656Y-30183317D02*
X52917275Y-30326174D01*
X52917275Y-30326174D02*
X53012513Y-30421412D01*
X53012513Y-30421412D02*
X53107751Y-30469031D01*
X53107751Y-30469031D02*
X53298227Y-30516650D01*
X53298227Y-30516650D02*
X53441084Y-30516650D01*
X53441084Y-30516650D02*
X53631560Y-30469031D01*
X53631560Y-30469031D02*
X53726798Y-30421412D01*
X53726798Y-30421412D02*
X53822037Y-30326174D01*
X53822037Y-30326174D02*
X53869656Y-30183317D01*
X53869656Y-30183317D02*
X53869656Y-29945222D01*
X52964894Y-30897603D02*
X52917275Y-30945222D01*
X52917275Y-30945222D02*
X52869656Y-31040460D01*
X52869656Y-31040460D02*
X52869656Y-31278555D01*
X52869656Y-31278555D02*
X52917275Y-31373793D01*
X52917275Y-31373793D02*
X52964894Y-31421412D01*
X52964894Y-31421412D02*
X53060132Y-31469031D01*
X53060132Y-31469031D02*
X53155370Y-31469031D01*
X53155370Y-31469031D02*
X53298227Y-31421412D01*
X53298227Y-31421412D02*
X53869656Y-30849984D01*
X53869656Y-30849984D02*
X53869656Y-31469031D01*
X131766665Y-47959580D02*
X131814284Y-48007200D01*
X131814284Y-48007200D02*
X131957141Y-48054819D01*
X131957141Y-48054819D02*
X132052379Y-48054819D01*
X132052379Y-48054819D02*
X132195236Y-48007200D01*
X132195236Y-48007200D02*
X132290474Y-47911961D01*
X132290474Y-47911961D02*
X132338093Y-47816723D01*
X132338093Y-47816723D02*
X132385712Y-47626247D01*
X132385712Y-47626247D02*
X132385712Y-47483390D01*
X132385712Y-47483390D02*
X132338093Y-47292914D01*
X132338093Y-47292914D02*
X132290474Y-47197676D01*
X132290474Y-47197676D02*
X132195236Y-47102438D01*
X132195236Y-47102438D02*
X132052379Y-47054819D01*
X132052379Y-47054819D02*
X131957141Y-47054819D01*
X131957141Y-47054819D02*
X131814284Y-47102438D01*
X131814284Y-47102438D02*
X131766665Y-47150057D01*
X131433331Y-47054819D02*
X130766665Y-47054819D01*
X130766665Y-47054819D02*
X131195236Y-48054819D01*
X244369656Y-86619031D02*
X243369656Y-86619031D01*
X243369656Y-86619031D02*
X243369656Y-86857126D01*
X243369656Y-86857126D02*
X243417275Y-86999983D01*
X243417275Y-86999983D02*
X243512513Y-87095221D01*
X243512513Y-87095221D02*
X243607751Y-87142840D01*
X243607751Y-87142840D02*
X243798227Y-87190459D01*
X243798227Y-87190459D02*
X243941084Y-87190459D01*
X243941084Y-87190459D02*
X244131560Y-87142840D01*
X244131560Y-87142840D02*
X244226798Y-87095221D01*
X244226798Y-87095221D02*
X244322037Y-86999983D01*
X244322037Y-86999983D02*
X244369656Y-86857126D01*
X244369656Y-86857126D02*
X244369656Y-86619031D01*
X243702989Y-88047602D02*
X244369656Y-88047602D01*
X243322037Y-87809507D02*
X244036322Y-87571412D01*
X244036322Y-87571412D02*
X244036322Y-88190459D01*
X244369656Y-88619031D02*
X244369656Y-88809507D01*
X244369656Y-88809507D02*
X244322037Y-88904745D01*
X244322037Y-88904745D02*
X244274417Y-88952364D01*
X244274417Y-88952364D02*
X244131560Y-89047602D01*
X244131560Y-89047602D02*
X243941084Y-89095221D01*
X243941084Y-89095221D02*
X243560132Y-89095221D01*
X243560132Y-89095221D02*
X243464894Y-89047602D01*
X243464894Y-89047602D02*
X243417275Y-88999983D01*
X243417275Y-88999983D02*
X243369656Y-88904745D01*
X243369656Y-88904745D02*
X243369656Y-88714269D01*
X243369656Y-88714269D02*
X243417275Y-88619031D01*
X243417275Y-88619031D02*
X243464894Y-88571412D01*
X243464894Y-88571412D02*
X243560132Y-88523793D01*
X243560132Y-88523793D02*
X243798227Y-88523793D01*
X243798227Y-88523793D02*
X243893465Y-88571412D01*
X243893465Y-88571412D02*
X243941084Y-88619031D01*
X243941084Y-88619031D02*
X243988703Y-88714269D01*
X243988703Y-88714269D02*
X243988703Y-88904745D01*
X243988703Y-88904745D02*
X243941084Y-88999983D01*
X243941084Y-88999983D02*
X243893465Y-89047602D01*
X243893465Y-89047602D02*
X243798227Y-89095221D01*
X244369656Y-67569031D02*
X243369656Y-67569031D01*
X243369656Y-67569031D02*
X243369656Y-67807126D01*
X243369656Y-67807126D02*
X243417275Y-67949983D01*
X243417275Y-67949983D02*
X243512513Y-68045221D01*
X243512513Y-68045221D02*
X243607751Y-68092840D01*
X243607751Y-68092840D02*
X243798227Y-68140459D01*
X243798227Y-68140459D02*
X243941084Y-68140459D01*
X243941084Y-68140459D02*
X244131560Y-68092840D01*
X244131560Y-68092840D02*
X244226798Y-68045221D01*
X244226798Y-68045221D02*
X244322037Y-67949983D01*
X244322037Y-67949983D02*
X244369656Y-67807126D01*
X244369656Y-67807126D02*
X244369656Y-67569031D01*
X243369656Y-68473793D02*
X243369656Y-69092840D01*
X243369656Y-69092840D02*
X243750608Y-68759507D01*
X243750608Y-68759507D02*
X243750608Y-68902364D01*
X243750608Y-68902364D02*
X243798227Y-68997602D01*
X243798227Y-68997602D02*
X243845846Y-69045221D01*
X243845846Y-69045221D02*
X243941084Y-69092840D01*
X243941084Y-69092840D02*
X244179179Y-69092840D01*
X244179179Y-69092840D02*
X244274417Y-69045221D01*
X244274417Y-69045221D02*
X244322037Y-68997602D01*
X244322037Y-68997602D02*
X244369656Y-68902364D01*
X244369656Y-68902364D02*
X244369656Y-68616650D01*
X244369656Y-68616650D02*
X244322037Y-68521412D01*
X244322037Y-68521412D02*
X244274417Y-68473793D01*
X243369656Y-69949983D02*
X243369656Y-69759507D01*
X243369656Y-69759507D02*
X243417275Y-69664269D01*
X243417275Y-69664269D02*
X243464894Y-69616650D01*
X243464894Y-69616650D02*
X243607751Y-69521412D01*
X243607751Y-69521412D02*
X243798227Y-69473793D01*
X243798227Y-69473793D02*
X244179179Y-69473793D01*
X244179179Y-69473793D02*
X244274417Y-69521412D01*
X244274417Y-69521412D02*
X244322037Y-69569031D01*
X244322037Y-69569031D02*
X244369656Y-69664269D01*
X244369656Y-69664269D02*
X244369656Y-69854745D01*
X244369656Y-69854745D02*
X244322037Y-69949983D01*
X244322037Y-69949983D02*
X244274417Y-69997602D01*
X244274417Y-69997602D02*
X244179179Y-70045221D01*
X244179179Y-70045221D02*
X243941084Y-70045221D01*
X243941084Y-70045221D02*
X243845846Y-69997602D01*
X243845846Y-69997602D02*
X243798227Y-69949983D01*
X243798227Y-69949983D02*
X243750608Y-69854745D01*
X243750608Y-69854745D02*
X243750608Y-69664269D01*
X243750608Y-69664269D02*
X243798227Y-69569031D01*
X243798227Y-69569031D02*
X243845846Y-69521412D01*
X243845846Y-69521412D02*
X243941084Y-69473793D01*
X206269656Y-86619031D02*
X205269656Y-86619031D01*
X205269656Y-86619031D02*
X205269656Y-86857126D01*
X205269656Y-86857126D02*
X205317275Y-86999983D01*
X205317275Y-86999983D02*
X205412513Y-87095221D01*
X205412513Y-87095221D02*
X205507751Y-87142840D01*
X205507751Y-87142840D02*
X205698227Y-87190459D01*
X205698227Y-87190459D02*
X205841084Y-87190459D01*
X205841084Y-87190459D02*
X206031560Y-87142840D01*
X206031560Y-87142840D02*
X206126798Y-87095221D01*
X206126798Y-87095221D02*
X206222037Y-86999983D01*
X206222037Y-86999983D02*
X206269656Y-86857126D01*
X206269656Y-86857126D02*
X206269656Y-86619031D01*
X205602989Y-88047602D02*
X206269656Y-88047602D01*
X205222037Y-87809507D02*
X205936322Y-87571412D01*
X205936322Y-87571412D02*
X205936322Y-88190459D01*
X205269656Y-88476174D02*
X205269656Y-89142840D01*
X205269656Y-89142840D02*
X206269656Y-88714269D01*
X225319656Y-67569031D02*
X224319656Y-67569031D01*
X224319656Y-67569031D02*
X224319656Y-67807126D01*
X224319656Y-67807126D02*
X224367275Y-67949983D01*
X224367275Y-67949983D02*
X224462513Y-68045221D01*
X224462513Y-68045221D02*
X224557751Y-68092840D01*
X224557751Y-68092840D02*
X224748227Y-68140459D01*
X224748227Y-68140459D02*
X224891084Y-68140459D01*
X224891084Y-68140459D02*
X225081560Y-68092840D01*
X225081560Y-68092840D02*
X225176798Y-68045221D01*
X225176798Y-68045221D02*
X225272037Y-67949983D01*
X225272037Y-67949983D02*
X225319656Y-67807126D01*
X225319656Y-67807126D02*
X225319656Y-67569031D01*
X224319656Y-68473793D02*
X224319656Y-69092840D01*
X224319656Y-69092840D02*
X224700608Y-68759507D01*
X224700608Y-68759507D02*
X224700608Y-68902364D01*
X224700608Y-68902364D02*
X224748227Y-68997602D01*
X224748227Y-68997602D02*
X224795846Y-69045221D01*
X224795846Y-69045221D02*
X224891084Y-69092840D01*
X224891084Y-69092840D02*
X225129179Y-69092840D01*
X225129179Y-69092840D02*
X225224417Y-69045221D01*
X225224417Y-69045221D02*
X225272037Y-68997602D01*
X225272037Y-68997602D02*
X225319656Y-68902364D01*
X225319656Y-68902364D02*
X225319656Y-68616650D01*
X225319656Y-68616650D02*
X225272037Y-68521412D01*
X225272037Y-68521412D02*
X225224417Y-68473793D01*
X224319656Y-69997602D02*
X224319656Y-69521412D01*
X224319656Y-69521412D02*
X224795846Y-69473793D01*
X224795846Y-69473793D02*
X224748227Y-69521412D01*
X224748227Y-69521412D02*
X224700608Y-69616650D01*
X224700608Y-69616650D02*
X224700608Y-69854745D01*
X224700608Y-69854745D02*
X224748227Y-69949983D01*
X224748227Y-69949983D02*
X224795846Y-69997602D01*
X224795846Y-69997602D02*
X224891084Y-70045221D01*
X224891084Y-70045221D02*
X225129179Y-70045221D01*
X225129179Y-70045221D02*
X225224417Y-69997602D01*
X225224417Y-69997602D02*
X225272037Y-69949983D01*
X225272037Y-69949983D02*
X225319656Y-69854745D01*
X225319656Y-69854745D02*
X225319656Y-69616650D01*
X225319656Y-69616650D02*
X225272037Y-69521412D01*
X225272037Y-69521412D02*
X225224417Y-69473793D01*
X134309409Y-46059235D02*
X134642742Y-45583044D01*
X134880837Y-46059235D02*
X134880837Y-45059235D01*
X134880837Y-45059235D02*
X134499885Y-45059235D01*
X134499885Y-45059235D02*
X134404647Y-45106854D01*
X134404647Y-45106854D02*
X134357028Y-45154473D01*
X134357028Y-45154473D02*
X134309409Y-45249711D01*
X134309409Y-45249711D02*
X134309409Y-45392568D01*
X134309409Y-45392568D02*
X134357028Y-45487806D01*
X134357028Y-45487806D02*
X134404647Y-45535425D01*
X134404647Y-45535425D02*
X134499885Y-45583044D01*
X134499885Y-45583044D02*
X134880837Y-45583044D01*
X133737980Y-45487806D02*
X133833218Y-45440187D01*
X133833218Y-45440187D02*
X133880837Y-45392568D01*
X133880837Y-45392568D02*
X133928456Y-45297330D01*
X133928456Y-45297330D02*
X133928456Y-45249711D01*
X133928456Y-45249711D02*
X133880837Y-45154473D01*
X133880837Y-45154473D02*
X133833218Y-45106854D01*
X133833218Y-45106854D02*
X133737980Y-45059235D01*
X133737980Y-45059235D02*
X133547504Y-45059235D01*
X133547504Y-45059235D02*
X133452266Y-45106854D01*
X133452266Y-45106854D02*
X133404647Y-45154473D01*
X133404647Y-45154473D02*
X133357028Y-45249711D01*
X133357028Y-45249711D02*
X133357028Y-45297330D01*
X133357028Y-45297330D02*
X133404647Y-45392568D01*
X133404647Y-45392568D02*
X133452266Y-45440187D01*
X133452266Y-45440187D02*
X133547504Y-45487806D01*
X133547504Y-45487806D02*
X133737980Y-45487806D01*
X133737980Y-45487806D02*
X133833218Y-45535425D01*
X133833218Y-45535425D02*
X133880837Y-45583044D01*
X133880837Y-45583044D02*
X133928456Y-45678282D01*
X133928456Y-45678282D02*
X133928456Y-45868758D01*
X133928456Y-45868758D02*
X133880837Y-45963996D01*
X133880837Y-45963996D02*
X133833218Y-46011616D01*
X133833218Y-46011616D02*
X133737980Y-46059235D01*
X133737980Y-46059235D02*
X133547504Y-46059235D01*
X133547504Y-46059235D02*
X133452266Y-46011616D01*
X133452266Y-46011616D02*
X133404647Y-45963996D01*
X133404647Y-45963996D02*
X133357028Y-45868758D01*
X133357028Y-45868758D02*
X133357028Y-45678282D01*
X133357028Y-45678282D02*
X133404647Y-45583044D01*
X133404647Y-45583044D02*
X133452266Y-45535425D01*
X133452266Y-45535425D02*
X133547504Y-45487806D01*
X168169656Y-29945222D02*
X167169656Y-29945222D01*
X167169656Y-29945222D02*
X167169656Y-30183317D01*
X167169656Y-30183317D02*
X167217275Y-30326174D01*
X167217275Y-30326174D02*
X167312513Y-30421412D01*
X167312513Y-30421412D02*
X167407751Y-30469031D01*
X167407751Y-30469031D02*
X167598227Y-30516650D01*
X167598227Y-30516650D02*
X167741084Y-30516650D01*
X167741084Y-30516650D02*
X167931560Y-30469031D01*
X167931560Y-30469031D02*
X168026798Y-30421412D01*
X168026798Y-30421412D02*
X168122037Y-30326174D01*
X168122037Y-30326174D02*
X168169656Y-30183317D01*
X168169656Y-30183317D02*
X168169656Y-29945222D01*
X167598227Y-31088079D02*
X167550608Y-30992841D01*
X167550608Y-30992841D02*
X167502989Y-30945222D01*
X167502989Y-30945222D02*
X167407751Y-30897603D01*
X167407751Y-30897603D02*
X167360132Y-30897603D01*
X167360132Y-30897603D02*
X167264894Y-30945222D01*
X167264894Y-30945222D02*
X167217275Y-30992841D01*
X167217275Y-30992841D02*
X167169656Y-31088079D01*
X167169656Y-31088079D02*
X167169656Y-31278555D01*
X167169656Y-31278555D02*
X167217275Y-31373793D01*
X167217275Y-31373793D02*
X167264894Y-31421412D01*
X167264894Y-31421412D02*
X167360132Y-31469031D01*
X167360132Y-31469031D02*
X167407751Y-31469031D01*
X167407751Y-31469031D02*
X167502989Y-31421412D01*
X167502989Y-31421412D02*
X167550608Y-31373793D01*
X167550608Y-31373793D02*
X167598227Y-31278555D01*
X167598227Y-31278555D02*
X167598227Y-31088079D01*
X167598227Y-31088079D02*
X167645846Y-30992841D01*
X167645846Y-30992841D02*
X167693465Y-30945222D01*
X167693465Y-30945222D02*
X167788703Y-30897603D01*
X167788703Y-30897603D02*
X167979179Y-30897603D01*
X167979179Y-30897603D02*
X168074417Y-30945222D01*
X168074417Y-30945222D02*
X168122037Y-30992841D01*
X168122037Y-30992841D02*
X168169656Y-31088079D01*
X168169656Y-31088079D02*
X168169656Y-31278555D01*
X168169656Y-31278555D02*
X168122037Y-31373793D01*
X168122037Y-31373793D02*
X168074417Y-31421412D01*
X168074417Y-31421412D02*
X167979179Y-31469031D01*
X167979179Y-31469031D02*
X167788703Y-31469031D01*
X167788703Y-31469031D02*
X167693465Y-31421412D01*
X167693465Y-31421412D02*
X167645846Y-31373793D01*
X167645846Y-31373793D02*
X167598227Y-31278555D01*
X156759580Y-62557142D02*
X156807200Y-62509523D01*
X156807200Y-62509523D02*
X156854819Y-62366666D01*
X156854819Y-62366666D02*
X156854819Y-62271428D01*
X156854819Y-62271428D02*
X156807200Y-62128571D01*
X156807200Y-62128571D02*
X156711961Y-62033333D01*
X156711961Y-62033333D02*
X156616723Y-61985714D01*
X156616723Y-61985714D02*
X156426247Y-61938095D01*
X156426247Y-61938095D02*
X156283390Y-61938095D01*
X156283390Y-61938095D02*
X156092914Y-61985714D01*
X156092914Y-61985714D02*
X155997676Y-62033333D01*
X155997676Y-62033333D02*
X155902438Y-62128571D01*
X155902438Y-62128571D02*
X155854819Y-62271428D01*
X155854819Y-62271428D02*
X155854819Y-62366666D01*
X155854819Y-62366666D02*
X155902438Y-62509523D01*
X155902438Y-62509523D02*
X155950057Y-62557142D01*
X156854819Y-63509523D02*
X156854819Y-62938095D01*
X156854819Y-63223809D02*
X155854819Y-63223809D01*
X155854819Y-63223809D02*
X155997676Y-63128571D01*
X155997676Y-63128571D02*
X156092914Y-63033333D01*
X156092914Y-63033333D02*
X156140533Y-62938095D01*
X156188152Y-64366666D02*
X156854819Y-64366666D01*
X155807200Y-64128571D02*
X156521485Y-63890476D01*
X156521485Y-63890476D02*
X156521485Y-64509523D01*
X187219656Y-29945222D02*
X186219656Y-29945222D01*
X186219656Y-29945222D02*
X186219656Y-30183317D01*
X186219656Y-30183317D02*
X186267275Y-30326174D01*
X186267275Y-30326174D02*
X186362513Y-30421412D01*
X186362513Y-30421412D02*
X186457751Y-30469031D01*
X186457751Y-30469031D02*
X186648227Y-30516650D01*
X186648227Y-30516650D02*
X186791084Y-30516650D01*
X186791084Y-30516650D02*
X186981560Y-30469031D01*
X186981560Y-30469031D02*
X187076798Y-30421412D01*
X187076798Y-30421412D02*
X187172037Y-30326174D01*
X187172037Y-30326174D02*
X187219656Y-30183317D01*
X187219656Y-30183317D02*
X187219656Y-29945222D01*
X187219656Y-30992841D02*
X187219656Y-31183317D01*
X187219656Y-31183317D02*
X187172037Y-31278555D01*
X187172037Y-31278555D02*
X187124417Y-31326174D01*
X187124417Y-31326174D02*
X186981560Y-31421412D01*
X186981560Y-31421412D02*
X186791084Y-31469031D01*
X186791084Y-31469031D02*
X186410132Y-31469031D01*
X186410132Y-31469031D02*
X186314894Y-31421412D01*
X186314894Y-31421412D02*
X186267275Y-31373793D01*
X186267275Y-31373793D02*
X186219656Y-31278555D01*
X186219656Y-31278555D02*
X186219656Y-31088079D01*
X186219656Y-31088079D02*
X186267275Y-30992841D01*
X186267275Y-30992841D02*
X186314894Y-30945222D01*
X186314894Y-30945222D02*
X186410132Y-30897603D01*
X186410132Y-30897603D02*
X186648227Y-30897603D01*
X186648227Y-30897603D02*
X186743465Y-30945222D01*
X186743465Y-30945222D02*
X186791084Y-30992841D01*
X186791084Y-30992841D02*
X186838703Y-31088079D01*
X186838703Y-31088079D02*
X186838703Y-31278555D01*
X186838703Y-31278555D02*
X186791084Y-31373793D01*
X186791084Y-31373793D02*
X186743465Y-31421412D01*
X186743465Y-31421412D02*
X186648227Y-31469031D01*
X206269656Y-67569031D02*
X205269656Y-67569031D01*
X205269656Y-67569031D02*
X205269656Y-67807126D01*
X205269656Y-67807126D02*
X205317275Y-67949983D01*
X205317275Y-67949983D02*
X205412513Y-68045221D01*
X205412513Y-68045221D02*
X205507751Y-68092840D01*
X205507751Y-68092840D02*
X205698227Y-68140459D01*
X205698227Y-68140459D02*
X205841084Y-68140459D01*
X205841084Y-68140459D02*
X206031560Y-68092840D01*
X206031560Y-68092840D02*
X206126798Y-68045221D01*
X206126798Y-68045221D02*
X206222037Y-67949983D01*
X206222037Y-67949983D02*
X206269656Y-67807126D01*
X206269656Y-67807126D02*
X206269656Y-67569031D01*
X205269656Y-68473793D02*
X205269656Y-69092840D01*
X205269656Y-69092840D02*
X205650608Y-68759507D01*
X205650608Y-68759507D02*
X205650608Y-68902364D01*
X205650608Y-68902364D02*
X205698227Y-68997602D01*
X205698227Y-68997602D02*
X205745846Y-69045221D01*
X205745846Y-69045221D02*
X205841084Y-69092840D01*
X205841084Y-69092840D02*
X206079179Y-69092840D01*
X206079179Y-69092840D02*
X206174417Y-69045221D01*
X206174417Y-69045221D02*
X206222037Y-68997602D01*
X206222037Y-68997602D02*
X206269656Y-68902364D01*
X206269656Y-68902364D02*
X206269656Y-68616650D01*
X206269656Y-68616650D02*
X206222037Y-68521412D01*
X206222037Y-68521412D02*
X206174417Y-68473793D01*
X205602989Y-69949983D02*
X206269656Y-69949983D01*
X205222037Y-69711888D02*
X205936322Y-69473793D01*
X205936322Y-69473793D02*
X205936322Y-70092840D01*
X225319656Y-86619031D02*
X224319656Y-86619031D01*
X224319656Y-86619031D02*
X224319656Y-86857126D01*
X224319656Y-86857126D02*
X224367275Y-86999983D01*
X224367275Y-86999983D02*
X224462513Y-87095221D01*
X224462513Y-87095221D02*
X224557751Y-87142840D01*
X224557751Y-87142840D02*
X224748227Y-87190459D01*
X224748227Y-87190459D02*
X224891084Y-87190459D01*
X224891084Y-87190459D02*
X225081560Y-87142840D01*
X225081560Y-87142840D02*
X225176798Y-87095221D01*
X225176798Y-87095221D02*
X225272037Y-86999983D01*
X225272037Y-86999983D02*
X225319656Y-86857126D01*
X225319656Y-86857126D02*
X225319656Y-86619031D01*
X224652989Y-88047602D02*
X225319656Y-88047602D01*
X224272037Y-87809507D02*
X224986322Y-87571412D01*
X224986322Y-87571412D02*
X224986322Y-88190459D01*
X224748227Y-88714269D02*
X224700608Y-88619031D01*
X224700608Y-88619031D02*
X224652989Y-88571412D01*
X224652989Y-88571412D02*
X224557751Y-88523793D01*
X224557751Y-88523793D02*
X224510132Y-88523793D01*
X224510132Y-88523793D02*
X224414894Y-88571412D01*
X224414894Y-88571412D02*
X224367275Y-88619031D01*
X224367275Y-88619031D02*
X224319656Y-88714269D01*
X224319656Y-88714269D02*
X224319656Y-88904745D01*
X224319656Y-88904745D02*
X224367275Y-88999983D01*
X224367275Y-88999983D02*
X224414894Y-89047602D01*
X224414894Y-89047602D02*
X224510132Y-89095221D01*
X224510132Y-89095221D02*
X224557751Y-89095221D01*
X224557751Y-89095221D02*
X224652989Y-89047602D01*
X224652989Y-89047602D02*
X224700608Y-88999983D01*
X224700608Y-88999983D02*
X224748227Y-88904745D01*
X224748227Y-88904745D02*
X224748227Y-88714269D01*
X224748227Y-88714269D02*
X224795846Y-88619031D01*
X224795846Y-88619031D02*
X224843465Y-88571412D01*
X224843465Y-88571412D02*
X224938703Y-88523793D01*
X224938703Y-88523793D02*
X225129179Y-88523793D01*
X225129179Y-88523793D02*
X225224417Y-88571412D01*
X225224417Y-88571412D02*
X225272037Y-88619031D01*
X225272037Y-88619031D02*
X225319656Y-88714269D01*
X225319656Y-88714269D02*
X225319656Y-88904745D01*
X225319656Y-88904745D02*
X225272037Y-88999983D01*
X225272037Y-88999983D02*
X225224417Y-89047602D01*
X225224417Y-89047602D02*
X225129179Y-89095221D01*
X225129179Y-89095221D02*
X224938703Y-89095221D01*
X224938703Y-89095221D02*
X224843465Y-89047602D01*
X224843465Y-89047602D02*
X224795846Y-88999983D01*
X224795846Y-88999983D02*
X224748227Y-88904745D01*
X168169656Y-48519031D02*
X167169656Y-48519031D01*
X167169656Y-48519031D02*
X167169656Y-48757126D01*
X167169656Y-48757126D02*
X167217275Y-48899983D01*
X167217275Y-48899983D02*
X167312513Y-48995221D01*
X167312513Y-48995221D02*
X167407751Y-49042840D01*
X167407751Y-49042840D02*
X167598227Y-49090459D01*
X167598227Y-49090459D02*
X167741084Y-49090459D01*
X167741084Y-49090459D02*
X167931560Y-49042840D01*
X167931560Y-49042840D02*
X168026798Y-48995221D01*
X168026798Y-48995221D02*
X168122037Y-48899983D01*
X168122037Y-48899983D02*
X168169656Y-48757126D01*
X168169656Y-48757126D02*
X168169656Y-48519031D01*
X167264894Y-49471412D02*
X167217275Y-49519031D01*
X167217275Y-49519031D02*
X167169656Y-49614269D01*
X167169656Y-49614269D02*
X167169656Y-49852364D01*
X167169656Y-49852364D02*
X167217275Y-49947602D01*
X167217275Y-49947602D02*
X167264894Y-49995221D01*
X167264894Y-49995221D02*
X167360132Y-50042840D01*
X167360132Y-50042840D02*
X167455370Y-50042840D01*
X167455370Y-50042840D02*
X167598227Y-49995221D01*
X167598227Y-49995221D02*
X168169656Y-49423793D01*
X168169656Y-49423793D02*
X168169656Y-50042840D01*
X167169656Y-50661888D02*
X167169656Y-50757126D01*
X167169656Y-50757126D02*
X167217275Y-50852364D01*
X167217275Y-50852364D02*
X167264894Y-50899983D01*
X167264894Y-50899983D02*
X167360132Y-50947602D01*
X167360132Y-50947602D02*
X167550608Y-50995221D01*
X167550608Y-50995221D02*
X167788703Y-50995221D01*
X167788703Y-50995221D02*
X167979179Y-50947602D01*
X167979179Y-50947602D02*
X168074417Y-50899983D01*
X168074417Y-50899983D02*
X168122037Y-50852364D01*
X168122037Y-50852364D02*
X168169656Y-50757126D01*
X168169656Y-50757126D02*
X168169656Y-50661888D01*
X168169656Y-50661888D02*
X168122037Y-50566650D01*
X168122037Y-50566650D02*
X168074417Y-50519031D01*
X168074417Y-50519031D02*
X167979179Y-50471412D01*
X167979179Y-50471412D02*
X167788703Y-50423793D01*
X167788703Y-50423793D02*
X167550608Y-50423793D01*
X167550608Y-50423793D02*
X167360132Y-50471412D01*
X167360132Y-50471412D02*
X167264894Y-50519031D01*
X167264894Y-50519031D02*
X167217275Y-50566650D01*
X167217275Y-50566650D02*
X167169656Y-50661888D01*
X225319656Y-29469031D02*
X224319656Y-29469031D01*
X224319656Y-29469031D02*
X224319656Y-29707126D01*
X224319656Y-29707126D02*
X224367275Y-29849983D01*
X224367275Y-29849983D02*
X224462513Y-29945221D01*
X224462513Y-29945221D02*
X224557751Y-29992840D01*
X224557751Y-29992840D02*
X224748227Y-30040459D01*
X224748227Y-30040459D02*
X224891084Y-30040459D01*
X224891084Y-30040459D02*
X225081560Y-29992840D01*
X225081560Y-29992840D02*
X225176798Y-29945221D01*
X225176798Y-29945221D02*
X225272037Y-29849983D01*
X225272037Y-29849983D02*
X225319656Y-29707126D01*
X225319656Y-29707126D02*
X225319656Y-29469031D01*
X225319656Y-30992840D02*
X225319656Y-30421412D01*
X225319656Y-30707126D02*
X224319656Y-30707126D01*
X224319656Y-30707126D02*
X224462513Y-30611888D01*
X224462513Y-30611888D02*
X224557751Y-30516650D01*
X224557751Y-30516650D02*
X224605370Y-30421412D01*
X225319656Y-31945221D02*
X225319656Y-31373793D01*
X225319656Y-31659507D02*
X224319656Y-31659507D01*
X224319656Y-31659507D02*
X224462513Y-31564269D01*
X224462513Y-31564269D02*
X224557751Y-31469031D01*
X224557751Y-31469031D02*
X224605370Y-31373793D01*
X91969656Y-29945222D02*
X90969656Y-29945222D01*
X90969656Y-29945222D02*
X90969656Y-30183317D01*
X90969656Y-30183317D02*
X91017275Y-30326174D01*
X91017275Y-30326174D02*
X91112513Y-30421412D01*
X91112513Y-30421412D02*
X91207751Y-30469031D01*
X91207751Y-30469031D02*
X91398227Y-30516650D01*
X91398227Y-30516650D02*
X91541084Y-30516650D01*
X91541084Y-30516650D02*
X91731560Y-30469031D01*
X91731560Y-30469031D02*
X91826798Y-30421412D01*
X91826798Y-30421412D02*
X91922037Y-30326174D01*
X91922037Y-30326174D02*
X91969656Y-30183317D01*
X91969656Y-30183317D02*
X91969656Y-29945222D01*
X91302989Y-31373793D02*
X91969656Y-31373793D01*
X90922037Y-31135698D02*
X91636322Y-30897603D01*
X91636322Y-30897603D02*
X91636322Y-31516650D01*
X91969656Y-67569031D02*
X90969656Y-67569031D01*
X90969656Y-67569031D02*
X90969656Y-67807126D01*
X90969656Y-67807126D02*
X91017275Y-67949983D01*
X91017275Y-67949983D02*
X91112513Y-68045221D01*
X91112513Y-68045221D02*
X91207751Y-68092840D01*
X91207751Y-68092840D02*
X91398227Y-68140459D01*
X91398227Y-68140459D02*
X91541084Y-68140459D01*
X91541084Y-68140459D02*
X91731560Y-68092840D01*
X91731560Y-68092840D02*
X91826798Y-68045221D01*
X91826798Y-68045221D02*
X91922037Y-67949983D01*
X91922037Y-67949983D02*
X91969656Y-67807126D01*
X91969656Y-67807126D02*
X91969656Y-67569031D01*
X91064894Y-68521412D02*
X91017275Y-68569031D01*
X91017275Y-68569031D02*
X90969656Y-68664269D01*
X90969656Y-68664269D02*
X90969656Y-68902364D01*
X90969656Y-68902364D02*
X91017275Y-68997602D01*
X91017275Y-68997602D02*
X91064894Y-69045221D01*
X91064894Y-69045221D02*
X91160132Y-69092840D01*
X91160132Y-69092840D02*
X91255370Y-69092840D01*
X91255370Y-69092840D02*
X91398227Y-69045221D01*
X91398227Y-69045221D02*
X91969656Y-68473793D01*
X91969656Y-68473793D02*
X91969656Y-69092840D01*
X91398227Y-69664269D02*
X91350608Y-69569031D01*
X91350608Y-69569031D02*
X91302989Y-69521412D01*
X91302989Y-69521412D02*
X91207751Y-69473793D01*
X91207751Y-69473793D02*
X91160132Y-69473793D01*
X91160132Y-69473793D02*
X91064894Y-69521412D01*
X91064894Y-69521412D02*
X91017275Y-69569031D01*
X91017275Y-69569031D02*
X90969656Y-69664269D01*
X90969656Y-69664269D02*
X90969656Y-69854745D01*
X90969656Y-69854745D02*
X91017275Y-69949983D01*
X91017275Y-69949983D02*
X91064894Y-69997602D01*
X91064894Y-69997602D02*
X91160132Y-70045221D01*
X91160132Y-70045221D02*
X91207751Y-70045221D01*
X91207751Y-70045221D02*
X91302989Y-69997602D01*
X91302989Y-69997602D02*
X91350608Y-69949983D01*
X91350608Y-69949983D02*
X91398227Y-69854745D01*
X91398227Y-69854745D02*
X91398227Y-69664269D01*
X91398227Y-69664269D02*
X91445846Y-69569031D01*
X91445846Y-69569031D02*
X91493465Y-69521412D01*
X91493465Y-69521412D02*
X91588703Y-69473793D01*
X91588703Y-69473793D02*
X91779179Y-69473793D01*
X91779179Y-69473793D02*
X91874417Y-69521412D01*
X91874417Y-69521412D02*
X91922037Y-69569031D01*
X91922037Y-69569031D02*
X91969656Y-69664269D01*
X91969656Y-69664269D02*
X91969656Y-69854745D01*
X91969656Y-69854745D02*
X91922037Y-69949983D01*
X91922037Y-69949983D02*
X91874417Y-69997602D01*
X91874417Y-69997602D02*
X91779179Y-70045221D01*
X91779179Y-70045221D02*
X91588703Y-70045221D01*
X91588703Y-70045221D02*
X91493465Y-69997602D01*
X91493465Y-69997602D02*
X91445846Y-69949983D01*
X91445846Y-69949983D02*
X91398227Y-69854745D01*
X72919656Y-86619031D02*
X71919656Y-86619031D01*
X71919656Y-86619031D02*
X71919656Y-86857126D01*
X71919656Y-86857126D02*
X71967275Y-86999983D01*
X71967275Y-86999983D02*
X72062513Y-87095221D01*
X72062513Y-87095221D02*
X72157751Y-87142840D01*
X72157751Y-87142840D02*
X72348227Y-87190459D01*
X72348227Y-87190459D02*
X72491084Y-87190459D01*
X72491084Y-87190459D02*
X72681560Y-87142840D01*
X72681560Y-87142840D02*
X72776798Y-87095221D01*
X72776798Y-87095221D02*
X72872037Y-86999983D01*
X72872037Y-86999983D02*
X72919656Y-86857126D01*
X72919656Y-86857126D02*
X72919656Y-86619031D01*
X71919656Y-87523793D02*
X71919656Y-88142840D01*
X71919656Y-88142840D02*
X72300608Y-87809507D01*
X72300608Y-87809507D02*
X72300608Y-87952364D01*
X72300608Y-87952364D02*
X72348227Y-88047602D01*
X72348227Y-88047602D02*
X72395846Y-88095221D01*
X72395846Y-88095221D02*
X72491084Y-88142840D01*
X72491084Y-88142840D02*
X72729179Y-88142840D01*
X72729179Y-88142840D02*
X72824417Y-88095221D01*
X72824417Y-88095221D02*
X72872037Y-88047602D01*
X72872037Y-88047602D02*
X72919656Y-87952364D01*
X72919656Y-87952364D02*
X72919656Y-87666650D01*
X72919656Y-87666650D02*
X72872037Y-87571412D01*
X72872037Y-87571412D02*
X72824417Y-87523793D01*
X72919656Y-88619031D02*
X72919656Y-88809507D01*
X72919656Y-88809507D02*
X72872037Y-88904745D01*
X72872037Y-88904745D02*
X72824417Y-88952364D01*
X72824417Y-88952364D02*
X72681560Y-89047602D01*
X72681560Y-89047602D02*
X72491084Y-89095221D01*
X72491084Y-89095221D02*
X72110132Y-89095221D01*
X72110132Y-89095221D02*
X72014894Y-89047602D01*
X72014894Y-89047602D02*
X71967275Y-88999983D01*
X71967275Y-88999983D02*
X71919656Y-88904745D01*
X71919656Y-88904745D02*
X71919656Y-88714269D01*
X71919656Y-88714269D02*
X71967275Y-88619031D01*
X71967275Y-88619031D02*
X72014894Y-88571412D01*
X72014894Y-88571412D02*
X72110132Y-88523793D01*
X72110132Y-88523793D02*
X72348227Y-88523793D01*
X72348227Y-88523793D02*
X72443465Y-88571412D01*
X72443465Y-88571412D02*
X72491084Y-88619031D01*
X72491084Y-88619031D02*
X72538703Y-88714269D01*
X72538703Y-88714269D02*
X72538703Y-88904745D01*
X72538703Y-88904745D02*
X72491084Y-88999983D01*
X72491084Y-88999983D02*
X72443465Y-89047602D01*
X72443465Y-89047602D02*
X72348227Y-89095221D01*
X130891509Y-34666666D02*
X130891509Y-34333333D01*
X131415319Y-34333333D02*
X130415319Y-34333333D01*
X130415319Y-34333333D02*
X130415319Y-34809523D01*
X131415319Y-35714285D02*
X131415319Y-35142857D01*
X131415319Y-35428571D02*
X130415319Y-35428571D01*
X130415319Y-35428571D02*
X130558176Y-35333333D01*
X130558176Y-35333333D02*
X130653414Y-35238095D01*
X130653414Y-35238095D02*
X130701033Y-35142857D01*
X131811608Y-46501428D02*
X131859227Y-46549048D01*
X131859227Y-46549048D02*
X132002084Y-46596667D01*
X132002084Y-46596667D02*
X132097322Y-46596667D01*
X132097322Y-46596667D02*
X132240179Y-46549048D01*
X132240179Y-46549048D02*
X132335417Y-46453809D01*
X132335417Y-46453809D02*
X132383036Y-46358571D01*
X132383036Y-46358571D02*
X132430655Y-46168095D01*
X132430655Y-46168095D02*
X132430655Y-46025238D01*
X132430655Y-46025238D02*
X132383036Y-45834762D01*
X132383036Y-45834762D02*
X132335417Y-45739524D01*
X132335417Y-45739524D02*
X132240179Y-45644286D01*
X132240179Y-45644286D02*
X132097322Y-45596667D01*
X132097322Y-45596667D02*
X132002084Y-45596667D01*
X132002084Y-45596667D02*
X131859227Y-45644286D01*
X131859227Y-45644286D02*
X131811608Y-45691905D01*
X130954465Y-45596667D02*
X131144941Y-45596667D01*
X131144941Y-45596667D02*
X131240179Y-45644286D01*
X131240179Y-45644286D02*
X131287798Y-45691905D01*
X131287798Y-45691905D02*
X131383036Y-45834762D01*
X131383036Y-45834762D02*
X131430655Y-46025238D01*
X131430655Y-46025238D02*
X131430655Y-46406190D01*
X131430655Y-46406190D02*
X131383036Y-46501428D01*
X131383036Y-46501428D02*
X131335417Y-46549048D01*
X131335417Y-46549048D02*
X131240179Y-46596667D01*
X131240179Y-46596667D02*
X131049703Y-46596667D01*
X131049703Y-46596667D02*
X130954465Y-46549048D01*
X130954465Y-46549048D02*
X130906846Y-46501428D01*
X130906846Y-46501428D02*
X130859227Y-46406190D01*
X130859227Y-46406190D02*
X130859227Y-46168095D01*
X130859227Y-46168095D02*
X130906846Y-46072857D01*
X130906846Y-46072857D02*
X130954465Y-46025238D01*
X130954465Y-46025238D02*
X131049703Y-45977619D01*
X131049703Y-45977619D02*
X131240179Y-45977619D01*
X131240179Y-45977619D02*
X131335417Y-46025238D01*
X131335417Y-46025238D02*
X131383036Y-46072857D01*
X131383036Y-46072857D02*
X131430655Y-46168095D01*
X72919656Y-67569031D02*
X71919656Y-67569031D01*
X71919656Y-67569031D02*
X71919656Y-67807126D01*
X71919656Y-67807126D02*
X71967275Y-67949983D01*
X71967275Y-67949983D02*
X72062513Y-68045221D01*
X72062513Y-68045221D02*
X72157751Y-68092840D01*
X72157751Y-68092840D02*
X72348227Y-68140459D01*
X72348227Y-68140459D02*
X72491084Y-68140459D01*
X72491084Y-68140459D02*
X72681560Y-68092840D01*
X72681560Y-68092840D02*
X72776798Y-68045221D01*
X72776798Y-68045221D02*
X72872037Y-67949983D01*
X72872037Y-67949983D02*
X72919656Y-67807126D01*
X72919656Y-67807126D02*
X72919656Y-67569031D01*
X72014894Y-68521412D02*
X71967275Y-68569031D01*
X71967275Y-68569031D02*
X71919656Y-68664269D01*
X71919656Y-68664269D02*
X71919656Y-68902364D01*
X71919656Y-68902364D02*
X71967275Y-68997602D01*
X71967275Y-68997602D02*
X72014894Y-69045221D01*
X72014894Y-69045221D02*
X72110132Y-69092840D01*
X72110132Y-69092840D02*
X72205370Y-69092840D01*
X72205370Y-69092840D02*
X72348227Y-69045221D01*
X72348227Y-69045221D02*
X72919656Y-68473793D01*
X72919656Y-68473793D02*
X72919656Y-69092840D01*
X71919656Y-69426174D02*
X71919656Y-70092840D01*
X71919656Y-70092840D02*
X72919656Y-69664269D01*
X133042857Y-68159580D02*
X133090476Y-68207200D01*
X133090476Y-68207200D02*
X133233333Y-68254819D01*
X133233333Y-68254819D02*
X133328571Y-68254819D01*
X133328571Y-68254819D02*
X133471428Y-68207200D01*
X133471428Y-68207200D02*
X133566666Y-68111961D01*
X133566666Y-68111961D02*
X133614285Y-68016723D01*
X133614285Y-68016723D02*
X133661904Y-67826247D01*
X133661904Y-67826247D02*
X133661904Y-67683390D01*
X133661904Y-67683390D02*
X133614285Y-67492914D01*
X133614285Y-67492914D02*
X133566666Y-67397676D01*
X133566666Y-67397676D02*
X133471428Y-67302438D01*
X133471428Y-67302438D02*
X133328571Y-67254819D01*
X133328571Y-67254819D02*
X133233333Y-67254819D01*
X133233333Y-67254819D02*
X133090476Y-67302438D01*
X133090476Y-67302438D02*
X133042857Y-67350057D01*
X132090476Y-68254819D02*
X132661904Y-68254819D01*
X132376190Y-68254819D02*
X132376190Y-67254819D01*
X132376190Y-67254819D02*
X132471428Y-67397676D01*
X132471428Y-67397676D02*
X132566666Y-67492914D01*
X132566666Y-67492914D02*
X132661904Y-67540533D01*
X131138095Y-68254819D02*
X131709523Y-68254819D01*
X131423809Y-68254819D02*
X131423809Y-67254819D01*
X131423809Y-67254819D02*
X131519047Y-67397676D01*
X131519047Y-67397676D02*
X131614285Y-67492914D01*
X131614285Y-67492914D02*
X131709523Y-67540533D01*
X117766666Y-67654819D02*
X118099999Y-67178628D01*
X118338094Y-67654819D02*
X118338094Y-66654819D01*
X118338094Y-66654819D02*
X117957142Y-66654819D01*
X117957142Y-66654819D02*
X117861904Y-66702438D01*
X117861904Y-66702438D02*
X117814285Y-66750057D01*
X117814285Y-66750057D02*
X117766666Y-66845295D01*
X117766666Y-66845295D02*
X117766666Y-66988152D01*
X117766666Y-66988152D02*
X117814285Y-67083390D01*
X117814285Y-67083390D02*
X117861904Y-67131009D01*
X117861904Y-67131009D02*
X117957142Y-67178628D01*
X117957142Y-67178628D02*
X118338094Y-67178628D01*
X117290475Y-67654819D02*
X117099999Y-67654819D01*
X117099999Y-67654819D02*
X117004761Y-67607200D01*
X117004761Y-67607200D02*
X116957142Y-67559580D01*
X116957142Y-67559580D02*
X116861904Y-67416723D01*
X116861904Y-67416723D02*
X116814285Y-67226247D01*
X116814285Y-67226247D02*
X116814285Y-66845295D01*
X116814285Y-66845295D02*
X116861904Y-66750057D01*
X116861904Y-66750057D02*
X116909523Y-66702438D01*
X116909523Y-66702438D02*
X117004761Y-66654819D01*
X117004761Y-66654819D02*
X117195237Y-66654819D01*
X117195237Y-66654819D02*
X117290475Y-66702438D01*
X117290475Y-66702438D02*
X117338094Y-66750057D01*
X117338094Y-66750057D02*
X117385713Y-66845295D01*
X117385713Y-66845295D02*
X117385713Y-67083390D01*
X117385713Y-67083390D02*
X117338094Y-67178628D01*
X117338094Y-67178628D02*
X117290475Y-67226247D01*
X117290475Y-67226247D02*
X117195237Y-67273866D01*
X117195237Y-67273866D02*
X117004761Y-67273866D01*
X117004761Y-67273866D02*
X116909523Y-67226247D01*
X116909523Y-67226247D02*
X116861904Y-67178628D01*
X116861904Y-67178628D02*
X116814285Y-67083390D01*
X130069656Y-67569031D02*
X129069656Y-67569031D01*
X129069656Y-67569031D02*
X129069656Y-67807126D01*
X129069656Y-67807126D02*
X129117275Y-67949983D01*
X129117275Y-67949983D02*
X129212513Y-68045221D01*
X129212513Y-68045221D02*
X129307751Y-68092840D01*
X129307751Y-68092840D02*
X129498227Y-68140459D01*
X129498227Y-68140459D02*
X129641084Y-68140459D01*
X129641084Y-68140459D02*
X129831560Y-68092840D01*
X129831560Y-68092840D02*
X129926798Y-68045221D01*
X129926798Y-68045221D02*
X130022037Y-67949983D01*
X130022037Y-67949983D02*
X130069656Y-67807126D01*
X130069656Y-67807126D02*
X130069656Y-67569031D01*
X129069656Y-68473793D02*
X129069656Y-69092840D01*
X129069656Y-69092840D02*
X129450608Y-68759507D01*
X129450608Y-68759507D02*
X129450608Y-68902364D01*
X129450608Y-68902364D02*
X129498227Y-68997602D01*
X129498227Y-68997602D02*
X129545846Y-69045221D01*
X129545846Y-69045221D02*
X129641084Y-69092840D01*
X129641084Y-69092840D02*
X129879179Y-69092840D01*
X129879179Y-69092840D02*
X129974417Y-69045221D01*
X129974417Y-69045221D02*
X130022037Y-68997602D01*
X130022037Y-68997602D02*
X130069656Y-68902364D01*
X130069656Y-68902364D02*
X130069656Y-68616650D01*
X130069656Y-68616650D02*
X130022037Y-68521412D01*
X130022037Y-68521412D02*
X129974417Y-68473793D01*
X129069656Y-69711888D02*
X129069656Y-69807126D01*
X129069656Y-69807126D02*
X129117275Y-69902364D01*
X129117275Y-69902364D02*
X129164894Y-69949983D01*
X129164894Y-69949983D02*
X129260132Y-69997602D01*
X129260132Y-69997602D02*
X129450608Y-70045221D01*
X129450608Y-70045221D02*
X129688703Y-70045221D01*
X129688703Y-70045221D02*
X129879179Y-69997602D01*
X129879179Y-69997602D02*
X129974417Y-69949983D01*
X129974417Y-69949983D02*
X130022037Y-69902364D01*
X130022037Y-69902364D02*
X130069656Y-69807126D01*
X130069656Y-69807126D02*
X130069656Y-69711888D01*
X130069656Y-69711888D02*
X130022037Y-69616650D01*
X130022037Y-69616650D02*
X129974417Y-69569031D01*
X129974417Y-69569031D02*
X129879179Y-69521412D01*
X129879179Y-69521412D02*
X129688703Y-69473793D01*
X129688703Y-69473793D02*
X129450608Y-69473793D01*
X129450608Y-69473793D02*
X129260132Y-69521412D01*
X129260132Y-69521412D02*
X129164894Y-69569031D01*
X129164894Y-69569031D02*
X129117275Y-69616650D01*
X129117275Y-69616650D02*
X129069656Y-69711888D01*
X144042857Y-59359580D02*
X144090476Y-59407200D01*
X144090476Y-59407200D02*
X144233333Y-59454819D01*
X144233333Y-59454819D02*
X144328571Y-59454819D01*
X144328571Y-59454819D02*
X144471428Y-59407200D01*
X144471428Y-59407200D02*
X144566666Y-59311961D01*
X144566666Y-59311961D02*
X144614285Y-59216723D01*
X144614285Y-59216723D02*
X144661904Y-59026247D01*
X144661904Y-59026247D02*
X144661904Y-58883390D01*
X144661904Y-58883390D02*
X144614285Y-58692914D01*
X144614285Y-58692914D02*
X144566666Y-58597676D01*
X144566666Y-58597676D02*
X144471428Y-58502438D01*
X144471428Y-58502438D02*
X144328571Y-58454819D01*
X144328571Y-58454819D02*
X144233333Y-58454819D01*
X144233333Y-58454819D02*
X144090476Y-58502438D01*
X144090476Y-58502438D02*
X144042857Y-58550057D01*
X143090476Y-59454819D02*
X143661904Y-59454819D01*
X143376190Y-59454819D02*
X143376190Y-58454819D01*
X143376190Y-58454819D02*
X143471428Y-58597676D01*
X143471428Y-58597676D02*
X143566666Y-58692914D01*
X143566666Y-58692914D02*
X143661904Y-58740533D01*
X142757142Y-58454819D02*
X142138095Y-58454819D01*
X142138095Y-58454819D02*
X142471428Y-58835771D01*
X142471428Y-58835771D02*
X142328571Y-58835771D01*
X142328571Y-58835771D02*
X142233333Y-58883390D01*
X142233333Y-58883390D02*
X142185714Y-58931009D01*
X142185714Y-58931009D02*
X142138095Y-59026247D01*
X142138095Y-59026247D02*
X142138095Y-59264342D01*
X142138095Y-59264342D02*
X142185714Y-59359580D01*
X142185714Y-59359580D02*
X142233333Y-59407200D01*
X142233333Y-59407200D02*
X142328571Y-59454819D01*
X142328571Y-59454819D02*
X142614285Y-59454819D01*
X142614285Y-59454819D02*
X142709523Y-59407200D01*
X142709523Y-59407200D02*
X142757142Y-59359580D01*
X111019656Y-29945222D02*
X110019656Y-29945222D01*
X110019656Y-29945222D02*
X110019656Y-30183317D01*
X110019656Y-30183317D02*
X110067275Y-30326174D01*
X110067275Y-30326174D02*
X110162513Y-30421412D01*
X110162513Y-30421412D02*
X110257751Y-30469031D01*
X110257751Y-30469031D02*
X110448227Y-30516650D01*
X110448227Y-30516650D02*
X110591084Y-30516650D01*
X110591084Y-30516650D02*
X110781560Y-30469031D01*
X110781560Y-30469031D02*
X110876798Y-30421412D01*
X110876798Y-30421412D02*
X110972037Y-30326174D01*
X110972037Y-30326174D02*
X111019656Y-30183317D01*
X111019656Y-30183317D02*
X111019656Y-29945222D01*
X110019656Y-31421412D02*
X110019656Y-30945222D01*
X110019656Y-30945222D02*
X110495846Y-30897603D01*
X110495846Y-30897603D02*
X110448227Y-30945222D01*
X110448227Y-30945222D02*
X110400608Y-31040460D01*
X110400608Y-31040460D02*
X110400608Y-31278555D01*
X110400608Y-31278555D02*
X110448227Y-31373793D01*
X110448227Y-31373793D02*
X110495846Y-31421412D01*
X110495846Y-31421412D02*
X110591084Y-31469031D01*
X110591084Y-31469031D02*
X110829179Y-31469031D01*
X110829179Y-31469031D02*
X110924417Y-31421412D01*
X110924417Y-31421412D02*
X110972037Y-31373793D01*
X110972037Y-31373793D02*
X111019656Y-31278555D01*
X111019656Y-31278555D02*
X111019656Y-31040460D01*
X111019656Y-31040460D02*
X110972037Y-30945222D01*
X110972037Y-30945222D02*
X110924417Y-30897603D01*
X134103504Y-35152419D02*
X134103504Y-35961942D01*
X134103504Y-35961942D02*
X134055885Y-36057180D01*
X134055885Y-36057180D02*
X134008266Y-36104800D01*
X134008266Y-36104800D02*
X133913028Y-36152419D01*
X133913028Y-36152419D02*
X133722552Y-36152419D01*
X133722552Y-36152419D02*
X133627314Y-36104800D01*
X133627314Y-36104800D02*
X133579695Y-36057180D01*
X133579695Y-36057180D02*
X133532076Y-35961942D01*
X133532076Y-35961942D02*
X133532076Y-35152419D01*
X133103504Y-35247657D02*
X133055885Y-35200038D01*
X133055885Y-35200038D02*
X132960647Y-35152419D01*
X132960647Y-35152419D02*
X132722552Y-35152419D01*
X132722552Y-35152419D02*
X132627314Y-35200038D01*
X132627314Y-35200038D02*
X132579695Y-35247657D01*
X132579695Y-35247657D02*
X132532076Y-35342895D01*
X132532076Y-35342895D02*
X132532076Y-35438133D01*
X132532076Y-35438133D02*
X132579695Y-35580990D01*
X132579695Y-35580990D02*
X133151123Y-36152419D01*
X133151123Y-36152419D02*
X132532076Y-36152419D01*
X91969656Y-86619031D02*
X90969656Y-86619031D01*
X90969656Y-86619031D02*
X90969656Y-86857126D01*
X90969656Y-86857126D02*
X91017275Y-86999983D01*
X91017275Y-86999983D02*
X91112513Y-87095221D01*
X91112513Y-87095221D02*
X91207751Y-87142840D01*
X91207751Y-87142840D02*
X91398227Y-87190459D01*
X91398227Y-87190459D02*
X91541084Y-87190459D01*
X91541084Y-87190459D02*
X91731560Y-87142840D01*
X91731560Y-87142840D02*
X91826798Y-87095221D01*
X91826798Y-87095221D02*
X91922037Y-86999983D01*
X91922037Y-86999983D02*
X91969656Y-86857126D01*
X91969656Y-86857126D02*
X91969656Y-86619031D01*
X91302989Y-88047602D02*
X91969656Y-88047602D01*
X90922037Y-87809507D02*
X91636322Y-87571412D01*
X91636322Y-87571412D02*
X91636322Y-88190459D01*
X90969656Y-88761888D02*
X90969656Y-88857126D01*
X90969656Y-88857126D02*
X91017275Y-88952364D01*
X91017275Y-88952364D02*
X91064894Y-88999983D01*
X91064894Y-88999983D02*
X91160132Y-89047602D01*
X91160132Y-89047602D02*
X91350608Y-89095221D01*
X91350608Y-89095221D02*
X91588703Y-89095221D01*
X91588703Y-89095221D02*
X91779179Y-89047602D01*
X91779179Y-89047602D02*
X91874417Y-88999983D01*
X91874417Y-88999983D02*
X91922037Y-88952364D01*
X91922037Y-88952364D02*
X91969656Y-88857126D01*
X91969656Y-88857126D02*
X91969656Y-88761888D01*
X91969656Y-88761888D02*
X91922037Y-88666650D01*
X91922037Y-88666650D02*
X91874417Y-88619031D01*
X91874417Y-88619031D02*
X91779179Y-88571412D01*
X91779179Y-88571412D02*
X91588703Y-88523793D01*
X91588703Y-88523793D02*
X91350608Y-88523793D01*
X91350608Y-88523793D02*
X91160132Y-88571412D01*
X91160132Y-88571412D02*
X91064894Y-88619031D01*
X91064894Y-88619031D02*
X91017275Y-88666650D01*
X91017275Y-88666650D02*
X90969656Y-88761888D01*
X136654819Y-27633333D02*
X136178628Y-27300000D01*
X136654819Y-27061905D02*
X135654819Y-27061905D01*
X135654819Y-27061905D02*
X135654819Y-27442857D01*
X135654819Y-27442857D02*
X135702438Y-27538095D01*
X135702438Y-27538095D02*
X135750057Y-27585714D01*
X135750057Y-27585714D02*
X135845295Y-27633333D01*
X135845295Y-27633333D02*
X135988152Y-27633333D01*
X135988152Y-27633333D02*
X136083390Y-27585714D01*
X136083390Y-27585714D02*
X136131009Y-27538095D01*
X136131009Y-27538095D02*
X136178628Y-27442857D01*
X136178628Y-27442857D02*
X136178628Y-27061905D01*
X135750057Y-28014286D02*
X135702438Y-28061905D01*
X135702438Y-28061905D02*
X135654819Y-28157143D01*
X135654819Y-28157143D02*
X135654819Y-28395238D01*
X135654819Y-28395238D02*
X135702438Y-28490476D01*
X135702438Y-28490476D02*
X135750057Y-28538095D01*
X135750057Y-28538095D02*
X135845295Y-28585714D01*
X135845295Y-28585714D02*
X135940533Y-28585714D01*
X135940533Y-28585714D02*
X136083390Y-28538095D01*
X136083390Y-28538095D02*
X136654819Y-27966667D01*
X136654819Y-27966667D02*
X136654819Y-28585714D01*
X187219656Y-86619031D02*
X186219656Y-86619031D01*
X186219656Y-86619031D02*
X186219656Y-86857126D01*
X186219656Y-86857126D02*
X186267275Y-86999983D01*
X186267275Y-86999983D02*
X186362513Y-87095221D01*
X186362513Y-87095221D02*
X186457751Y-87142840D01*
X186457751Y-87142840D02*
X186648227Y-87190459D01*
X186648227Y-87190459D02*
X186791084Y-87190459D01*
X186791084Y-87190459D02*
X186981560Y-87142840D01*
X186981560Y-87142840D02*
X187076798Y-87095221D01*
X187076798Y-87095221D02*
X187172037Y-86999983D01*
X187172037Y-86999983D02*
X187219656Y-86857126D01*
X187219656Y-86857126D02*
X187219656Y-86619031D01*
X186552989Y-88047602D02*
X187219656Y-88047602D01*
X186172037Y-87809507D02*
X186886322Y-87571412D01*
X186886322Y-87571412D02*
X186886322Y-88190459D01*
X186219656Y-88999983D02*
X186219656Y-88809507D01*
X186219656Y-88809507D02*
X186267275Y-88714269D01*
X186267275Y-88714269D02*
X186314894Y-88666650D01*
X186314894Y-88666650D02*
X186457751Y-88571412D01*
X186457751Y-88571412D02*
X186648227Y-88523793D01*
X186648227Y-88523793D02*
X187029179Y-88523793D01*
X187029179Y-88523793D02*
X187124417Y-88571412D01*
X187124417Y-88571412D02*
X187172037Y-88619031D01*
X187172037Y-88619031D02*
X187219656Y-88714269D01*
X187219656Y-88714269D02*
X187219656Y-88904745D01*
X187219656Y-88904745D02*
X187172037Y-88999983D01*
X187172037Y-88999983D02*
X187124417Y-89047602D01*
X187124417Y-89047602D02*
X187029179Y-89095221D01*
X187029179Y-89095221D02*
X186791084Y-89095221D01*
X186791084Y-89095221D02*
X186695846Y-89047602D01*
X186695846Y-89047602D02*
X186648227Y-88999983D01*
X186648227Y-88999983D02*
X186600608Y-88904745D01*
X186600608Y-88904745D02*
X186600608Y-88714269D01*
X186600608Y-88714269D02*
X186648227Y-88619031D01*
X186648227Y-88619031D02*
X186695846Y-88571412D01*
X186695846Y-88571412D02*
X186791084Y-88523793D01*
X129902178Y-48510602D02*
X128902178Y-48510602D01*
X128902178Y-48510602D02*
X128902178Y-48748697D01*
X128902178Y-48748697D02*
X128949797Y-48891554D01*
X128949797Y-48891554D02*
X129045035Y-48986792D01*
X129045035Y-48986792D02*
X129140273Y-49034411D01*
X129140273Y-49034411D02*
X129330749Y-49082030D01*
X129330749Y-49082030D02*
X129473606Y-49082030D01*
X129473606Y-49082030D02*
X129664082Y-49034411D01*
X129664082Y-49034411D02*
X129759320Y-48986792D01*
X129759320Y-48986792D02*
X129854559Y-48891554D01*
X129854559Y-48891554D02*
X129902178Y-48748697D01*
X129902178Y-48748697D02*
X129902178Y-48510602D01*
X129902178Y-50034411D02*
X129902178Y-49462983D01*
X129902178Y-49748697D02*
X128902178Y-49748697D01*
X128902178Y-49748697D02*
X129045035Y-49653459D01*
X129045035Y-49653459D02*
X129140273Y-49558221D01*
X129140273Y-49558221D02*
X129187892Y-49462983D01*
X129330749Y-50605840D02*
X129283130Y-50510602D01*
X129283130Y-50510602D02*
X129235511Y-50462983D01*
X129235511Y-50462983D02*
X129140273Y-50415364D01*
X129140273Y-50415364D02*
X129092654Y-50415364D01*
X129092654Y-50415364D02*
X128997416Y-50462983D01*
X128997416Y-50462983D02*
X128949797Y-50510602D01*
X128949797Y-50510602D02*
X128902178Y-50605840D01*
X128902178Y-50605840D02*
X128902178Y-50796316D01*
X128902178Y-50796316D02*
X128949797Y-50891554D01*
X128949797Y-50891554D02*
X128997416Y-50939173D01*
X128997416Y-50939173D02*
X129092654Y-50986792D01*
X129092654Y-50986792D02*
X129140273Y-50986792D01*
X129140273Y-50986792D02*
X129235511Y-50939173D01*
X129235511Y-50939173D02*
X129283130Y-50891554D01*
X129283130Y-50891554D02*
X129330749Y-50796316D01*
X129330749Y-50796316D02*
X129330749Y-50605840D01*
X129330749Y-50605840D02*
X129378368Y-50510602D01*
X129378368Y-50510602D02*
X129425987Y-50462983D01*
X129425987Y-50462983D02*
X129521225Y-50415364D01*
X129521225Y-50415364D02*
X129711701Y-50415364D01*
X129711701Y-50415364D02*
X129806939Y-50462983D01*
X129806939Y-50462983D02*
X129854559Y-50510602D01*
X129854559Y-50510602D02*
X129902178Y-50605840D01*
X129902178Y-50605840D02*
X129902178Y-50796316D01*
X129902178Y-50796316D02*
X129854559Y-50891554D01*
X129854559Y-50891554D02*
X129806939Y-50939173D01*
X129806939Y-50939173D02*
X129711701Y-50986792D01*
X129711701Y-50986792D02*
X129521225Y-50986792D01*
X129521225Y-50986792D02*
X129425987Y-50939173D01*
X129425987Y-50939173D02*
X129378368Y-50891554D01*
X129378368Y-50891554D02*
X129330749Y-50796316D01*
X111019656Y-86619031D02*
X110019656Y-86619031D01*
X110019656Y-86619031D02*
X110019656Y-86857126D01*
X110019656Y-86857126D02*
X110067275Y-86999983D01*
X110067275Y-86999983D02*
X110162513Y-87095221D01*
X110162513Y-87095221D02*
X110257751Y-87142840D01*
X110257751Y-87142840D02*
X110448227Y-87190459D01*
X110448227Y-87190459D02*
X110591084Y-87190459D01*
X110591084Y-87190459D02*
X110781560Y-87142840D01*
X110781560Y-87142840D02*
X110876798Y-87095221D01*
X110876798Y-87095221D02*
X110972037Y-86999983D01*
X110972037Y-86999983D02*
X111019656Y-86857126D01*
X111019656Y-86857126D02*
X111019656Y-86619031D01*
X110352989Y-88047602D02*
X111019656Y-88047602D01*
X109972037Y-87809507D02*
X110686322Y-87571412D01*
X110686322Y-87571412D02*
X110686322Y-88190459D01*
X111019656Y-89095221D02*
X111019656Y-88523793D01*
X111019656Y-88809507D02*
X110019656Y-88809507D01*
X110019656Y-88809507D02*
X110162513Y-88714269D01*
X110162513Y-88714269D02*
X110257751Y-88619031D01*
X110257751Y-88619031D02*
X110305370Y-88523793D01*
X118642857Y-65759580D02*
X118690476Y-65807200D01*
X118690476Y-65807200D02*
X118833333Y-65854819D01*
X118833333Y-65854819D02*
X118928571Y-65854819D01*
X118928571Y-65854819D02*
X119071428Y-65807200D01*
X119071428Y-65807200D02*
X119166666Y-65711961D01*
X119166666Y-65711961D02*
X119214285Y-65616723D01*
X119214285Y-65616723D02*
X119261904Y-65426247D01*
X119261904Y-65426247D02*
X119261904Y-65283390D01*
X119261904Y-65283390D02*
X119214285Y-65092914D01*
X119214285Y-65092914D02*
X119166666Y-64997676D01*
X119166666Y-64997676D02*
X119071428Y-64902438D01*
X119071428Y-64902438D02*
X118928571Y-64854819D01*
X118928571Y-64854819D02*
X118833333Y-64854819D01*
X118833333Y-64854819D02*
X118690476Y-64902438D01*
X118690476Y-64902438D02*
X118642857Y-64950057D01*
X117690476Y-65854819D02*
X118261904Y-65854819D01*
X117976190Y-65854819D02*
X117976190Y-64854819D01*
X117976190Y-64854819D02*
X118071428Y-64997676D01*
X118071428Y-64997676D02*
X118166666Y-65092914D01*
X118166666Y-65092914D02*
X118261904Y-65140533D01*
X116833333Y-64854819D02*
X117023809Y-64854819D01*
X117023809Y-64854819D02*
X117119047Y-64902438D01*
X117119047Y-64902438D02*
X117166666Y-64950057D01*
X117166666Y-64950057D02*
X117261904Y-65092914D01*
X117261904Y-65092914D02*
X117309523Y-65283390D01*
X117309523Y-65283390D02*
X117309523Y-65664342D01*
X117309523Y-65664342D02*
X117261904Y-65759580D01*
X117261904Y-65759580D02*
X117214285Y-65807200D01*
X117214285Y-65807200D02*
X117119047Y-65854819D01*
X117119047Y-65854819D02*
X116928571Y-65854819D01*
X116928571Y-65854819D02*
X116833333Y-65807200D01*
X116833333Y-65807200D02*
X116785714Y-65759580D01*
X116785714Y-65759580D02*
X116738095Y-65664342D01*
X116738095Y-65664342D02*
X116738095Y-65426247D01*
X116738095Y-65426247D02*
X116785714Y-65331009D01*
X116785714Y-65331009D02*
X116833333Y-65283390D01*
X116833333Y-65283390D02*
X116928571Y-65235771D01*
X116928571Y-65235771D02*
X117119047Y-65235771D01*
X117119047Y-65235771D02*
X117214285Y-65283390D01*
X117214285Y-65283390D02*
X117261904Y-65331009D01*
X117261904Y-65331009D02*
X117309523Y-65426247D01*
X115242857Y-65759580D02*
X115290476Y-65807200D01*
X115290476Y-65807200D02*
X115433333Y-65854819D01*
X115433333Y-65854819D02*
X115528571Y-65854819D01*
X115528571Y-65854819D02*
X115671428Y-65807200D01*
X115671428Y-65807200D02*
X115766666Y-65711961D01*
X115766666Y-65711961D02*
X115814285Y-65616723D01*
X115814285Y-65616723D02*
X115861904Y-65426247D01*
X115861904Y-65426247D02*
X115861904Y-65283390D01*
X115861904Y-65283390D02*
X115814285Y-65092914D01*
X115814285Y-65092914D02*
X115766666Y-64997676D01*
X115766666Y-64997676D02*
X115671428Y-64902438D01*
X115671428Y-64902438D02*
X115528571Y-64854819D01*
X115528571Y-64854819D02*
X115433333Y-64854819D01*
X115433333Y-64854819D02*
X115290476Y-64902438D01*
X115290476Y-64902438D02*
X115242857Y-64950057D01*
X114290476Y-65854819D02*
X114861904Y-65854819D01*
X114576190Y-65854819D02*
X114576190Y-64854819D01*
X114576190Y-64854819D02*
X114671428Y-64997676D01*
X114671428Y-64997676D02*
X114766666Y-65092914D01*
X114766666Y-65092914D02*
X114861904Y-65140533D01*
X113385714Y-64854819D02*
X113861904Y-64854819D01*
X113861904Y-64854819D02*
X113909523Y-65331009D01*
X113909523Y-65331009D02*
X113861904Y-65283390D01*
X113861904Y-65283390D02*
X113766666Y-65235771D01*
X113766666Y-65235771D02*
X113528571Y-65235771D01*
X113528571Y-65235771D02*
X113433333Y-65283390D01*
X113433333Y-65283390D02*
X113385714Y-65331009D01*
X113385714Y-65331009D02*
X113338095Y-65426247D01*
X113338095Y-65426247D02*
X113338095Y-65664342D01*
X113338095Y-65664342D02*
X113385714Y-65759580D01*
X113385714Y-65759580D02*
X113433333Y-65807200D01*
X113433333Y-65807200D02*
X113528571Y-65854819D01*
X113528571Y-65854819D02*
X113766666Y-65854819D01*
X113766666Y-65854819D02*
X113861904Y-65807200D01*
X113861904Y-65807200D02*
X113909523Y-65759580D01*
X91948820Y-77552490D02*
X91472629Y-77219157D01*
X91948820Y-76981062D02*
X90948820Y-76981062D01*
X90948820Y-76981062D02*
X90948820Y-77362014D01*
X90948820Y-77362014D02*
X90996439Y-77457252D01*
X90996439Y-77457252D02*
X91044058Y-77504871D01*
X91044058Y-77504871D02*
X91139296Y-77552490D01*
X91139296Y-77552490D02*
X91282153Y-77552490D01*
X91282153Y-77552490D02*
X91377391Y-77504871D01*
X91377391Y-77504871D02*
X91425010Y-77457252D01*
X91425010Y-77457252D02*
X91472629Y-77362014D01*
X91472629Y-77362014D02*
X91472629Y-76981062D01*
X91901201Y-77933443D02*
X91948820Y-78076300D01*
X91948820Y-78076300D02*
X91948820Y-78314395D01*
X91948820Y-78314395D02*
X91901201Y-78409633D01*
X91901201Y-78409633D02*
X91853581Y-78457252D01*
X91853581Y-78457252D02*
X91758343Y-78504871D01*
X91758343Y-78504871D02*
X91663105Y-78504871D01*
X91663105Y-78504871D02*
X91567867Y-78457252D01*
X91567867Y-78457252D02*
X91520248Y-78409633D01*
X91520248Y-78409633D02*
X91472629Y-78314395D01*
X91472629Y-78314395D02*
X91425010Y-78123919D01*
X91425010Y-78123919D02*
X91377391Y-78028681D01*
X91377391Y-78028681D02*
X91329772Y-77981062D01*
X91329772Y-77981062D02*
X91234534Y-77933443D01*
X91234534Y-77933443D02*
X91139296Y-77933443D01*
X91139296Y-77933443D02*
X91044058Y-77981062D01*
X91044058Y-77981062D02*
X90996439Y-78028681D01*
X90996439Y-78028681D02*
X90948820Y-78123919D01*
X90948820Y-78123919D02*
X90948820Y-78362014D01*
X90948820Y-78362014D02*
X90996439Y-78504871D01*
X90948820Y-78790586D02*
X90948820Y-79362014D01*
X91948820Y-79076300D02*
X90948820Y-79076300D01*
X91948820Y-80219157D02*
X91948820Y-79647729D01*
X91948820Y-79933443D02*
X90948820Y-79933443D01*
X90948820Y-79933443D02*
X91091677Y-79838205D01*
X91091677Y-79838205D02*
X91186915Y-79742967D01*
X91186915Y-79742967D02*
X91234534Y-79647729D01*
X131048852Y-27633333D02*
X130572661Y-27300000D01*
X131048852Y-27061905D02*
X130048852Y-27061905D01*
X130048852Y-27061905D02*
X130048852Y-27442857D01*
X130048852Y-27442857D02*
X130096471Y-27538095D01*
X130096471Y-27538095D02*
X130144090Y-27585714D01*
X130144090Y-27585714D02*
X130239328Y-27633333D01*
X130239328Y-27633333D02*
X130382185Y-27633333D01*
X130382185Y-27633333D02*
X130477423Y-27585714D01*
X130477423Y-27585714D02*
X130525042Y-27538095D01*
X130525042Y-27538095D02*
X130572661Y-27442857D01*
X130572661Y-27442857D02*
X130572661Y-27061905D01*
X131048852Y-28585714D02*
X131048852Y-28014286D01*
X131048852Y-28300000D02*
X130048852Y-28300000D01*
X130048852Y-28300000D02*
X130191709Y-28204762D01*
X130191709Y-28204762D02*
X130286947Y-28109524D01*
X130286947Y-28109524D02*
X130334566Y-28014286D01*
X148961904Y-60054819D02*
X148961904Y-60864342D01*
X148961904Y-60864342D02*
X148914285Y-60959580D01*
X148914285Y-60959580D02*
X148866666Y-61007200D01*
X148866666Y-61007200D02*
X148771428Y-61054819D01*
X148771428Y-61054819D02*
X148580952Y-61054819D01*
X148580952Y-61054819D02*
X148485714Y-61007200D01*
X148485714Y-61007200D02*
X148438095Y-60959580D01*
X148438095Y-60959580D02*
X148390476Y-60864342D01*
X148390476Y-60864342D02*
X148390476Y-60054819D01*
X147485714Y-60388152D02*
X147485714Y-61054819D01*
X147723809Y-60007200D02*
X147961904Y-60721485D01*
X147961904Y-60721485D02*
X147342857Y-60721485D01*
X165366666Y-79054819D02*
X165699999Y-78578628D01*
X165938094Y-79054819D02*
X165938094Y-78054819D01*
X165938094Y-78054819D02*
X165557142Y-78054819D01*
X165557142Y-78054819D02*
X165461904Y-78102438D01*
X165461904Y-78102438D02*
X165414285Y-78150057D01*
X165414285Y-78150057D02*
X165366666Y-78245295D01*
X165366666Y-78245295D02*
X165366666Y-78388152D01*
X165366666Y-78388152D02*
X165414285Y-78483390D01*
X165414285Y-78483390D02*
X165461904Y-78531009D01*
X165461904Y-78531009D02*
X165557142Y-78578628D01*
X165557142Y-78578628D02*
X165938094Y-78578628D01*
X164461904Y-78054819D02*
X164938094Y-78054819D01*
X164938094Y-78054819D02*
X164985713Y-78531009D01*
X164985713Y-78531009D02*
X164938094Y-78483390D01*
X164938094Y-78483390D02*
X164842856Y-78435771D01*
X164842856Y-78435771D02*
X164604761Y-78435771D01*
X164604761Y-78435771D02*
X164509523Y-78483390D01*
X164509523Y-78483390D02*
X164461904Y-78531009D01*
X164461904Y-78531009D02*
X164414285Y-78626247D01*
X164414285Y-78626247D02*
X164414285Y-78864342D01*
X164414285Y-78864342D02*
X164461904Y-78959580D01*
X164461904Y-78959580D02*
X164509523Y-79007200D01*
X164509523Y-79007200D02*
X164604761Y-79054819D01*
X164604761Y-79054819D02*
X164842856Y-79054819D01*
X164842856Y-79054819D02*
X164938094Y-79007200D01*
X164938094Y-79007200D02*
X164985713Y-78959580D01*
X136785531Y-90007841D02*
X137492637Y-89300734D01*
X137492637Y-89300734D02*
X137324279Y-89132375D01*
X137324279Y-89132375D02*
X137189592Y-89065032D01*
X137189592Y-89065032D02*
X137054905Y-89065032D01*
X137054905Y-89065032D02*
X136953889Y-89098704D01*
X136953889Y-89098704D02*
X136785531Y-89199719D01*
X136785531Y-89199719D02*
X136684515Y-89300734D01*
X136684515Y-89300734D02*
X136583500Y-89469093D01*
X136583500Y-89469093D02*
X136549828Y-89570108D01*
X136549828Y-89570108D02*
X136549828Y-89704795D01*
X136549828Y-89704795D02*
X136617172Y-89839482D01*
X136617172Y-89839482D02*
X136785531Y-90007841D01*
X136246783Y-88526284D02*
X135775378Y-88997688D01*
X136684515Y-88425269D02*
X136347798Y-89098704D01*
X136347798Y-89098704D02*
X135910065Y-88660971D01*
X136179439Y-87987536D02*
X135741706Y-87549803D01*
X135741706Y-87549803D02*
X135708034Y-88054879D01*
X135708034Y-88054879D02*
X135607019Y-87953864D01*
X135607019Y-87953864D02*
X135506004Y-87920192D01*
X135506004Y-87920192D02*
X135438660Y-87920192D01*
X135438660Y-87920192D02*
X135337645Y-87953864D01*
X135337645Y-87953864D02*
X135169286Y-88122223D01*
X135169286Y-88122223D02*
X135135615Y-88223238D01*
X135135615Y-88223238D02*
X135135615Y-88290581D01*
X135135615Y-88290581D02*
X135169286Y-88391597D01*
X135169286Y-88391597D02*
X135371317Y-88593627D01*
X135371317Y-88593627D02*
X135472332Y-88627299D01*
X135472332Y-88627299D02*
X135539676Y-88627299D01*
X134361904Y-54254819D02*
X134361904Y-55064342D01*
X134361904Y-55064342D02*
X134314285Y-55159580D01*
X134314285Y-55159580D02*
X134266666Y-55207200D01*
X134266666Y-55207200D02*
X134171428Y-55254819D01*
X134171428Y-55254819D02*
X133980952Y-55254819D01*
X133980952Y-55254819D02*
X133885714Y-55207200D01*
X133885714Y-55207200D02*
X133838095Y-55159580D01*
X133838095Y-55159580D02*
X133790476Y-55064342D01*
X133790476Y-55064342D02*
X133790476Y-54254819D01*
X133409523Y-54254819D02*
X132790476Y-54254819D01*
X132790476Y-54254819D02*
X133123809Y-54635771D01*
X133123809Y-54635771D02*
X132980952Y-54635771D01*
X132980952Y-54635771D02*
X132885714Y-54683390D01*
X132885714Y-54683390D02*
X132838095Y-54731009D01*
X132838095Y-54731009D02*
X132790476Y-54826247D01*
X132790476Y-54826247D02*
X132790476Y-55064342D01*
X132790476Y-55064342D02*
X132838095Y-55159580D01*
X132838095Y-55159580D02*
X132885714Y-55207200D01*
X132885714Y-55207200D02*
X132980952Y-55254819D01*
X132980952Y-55254819D02*
X133266666Y-55254819D01*
X133266666Y-55254819D02*
X133361904Y-55207200D01*
X133361904Y-55207200D02*
X133409523Y-55159580D01*
X117276190Y-59978628D02*
X117276190Y-60454819D01*
X117609523Y-59454819D02*
X117276190Y-59978628D01*
X117276190Y-59978628D02*
X116942857Y-59454819D01*
X116085714Y-60454819D02*
X116657142Y-60454819D01*
X116371428Y-60454819D02*
X116371428Y-59454819D01*
X116371428Y-59454819D02*
X116466666Y-59597676D01*
X116466666Y-59597676D02*
X116561904Y-59692914D01*
X116561904Y-59692914D02*
X116657142Y-59740533D01*
X100854819Y-78452628D02*
X100378628Y-78119295D01*
X100854819Y-77881200D02*
X99854819Y-77881200D01*
X99854819Y-77881200D02*
X99854819Y-78262152D01*
X99854819Y-78262152D02*
X99902438Y-78357390D01*
X99902438Y-78357390D02*
X99950057Y-78405009D01*
X99950057Y-78405009D02*
X100045295Y-78452628D01*
X100045295Y-78452628D02*
X100188152Y-78452628D01*
X100188152Y-78452628D02*
X100283390Y-78405009D01*
X100283390Y-78405009D02*
X100331009Y-78357390D01*
X100331009Y-78357390D02*
X100378628Y-78262152D01*
X100378628Y-78262152D02*
X100378628Y-77881200D01*
X100188152Y-79309771D02*
X100854819Y-79309771D01*
X99807200Y-79071676D02*
X100521485Y-78833581D01*
X100521485Y-78833581D02*
X100521485Y-79452628D01*
X126166666Y-44159580D02*
X126214285Y-44207200D01*
X126214285Y-44207200D02*
X126357142Y-44254819D01*
X126357142Y-44254819D02*
X126452380Y-44254819D01*
X126452380Y-44254819D02*
X126595237Y-44207200D01*
X126595237Y-44207200D02*
X126690475Y-44111961D01*
X126690475Y-44111961D02*
X126738094Y-44016723D01*
X126738094Y-44016723D02*
X126785713Y-43826247D01*
X126785713Y-43826247D02*
X126785713Y-43683390D01*
X126785713Y-43683390D02*
X126738094Y-43492914D01*
X126738094Y-43492914D02*
X126690475Y-43397676D01*
X126690475Y-43397676D02*
X126595237Y-43302438D01*
X126595237Y-43302438D02*
X126452380Y-43254819D01*
X126452380Y-43254819D02*
X126357142Y-43254819D01*
X126357142Y-43254819D02*
X126214285Y-43302438D01*
X126214285Y-43302438D02*
X126166666Y-43350057D01*
X125833332Y-43254819D02*
X125214285Y-43254819D01*
X125214285Y-43254819D02*
X125547618Y-43635771D01*
X125547618Y-43635771D02*
X125404761Y-43635771D01*
X125404761Y-43635771D02*
X125309523Y-43683390D01*
X125309523Y-43683390D02*
X125261904Y-43731009D01*
X125261904Y-43731009D02*
X125214285Y-43826247D01*
X125214285Y-43826247D02*
X125214285Y-44064342D01*
X125214285Y-44064342D02*
X125261904Y-44159580D01*
X125261904Y-44159580D02*
X125309523Y-44207200D01*
X125309523Y-44207200D02*
X125404761Y-44254819D01*
X125404761Y-44254819D02*
X125690475Y-44254819D01*
X125690475Y-44254819D02*
X125785713Y-44207200D01*
X125785713Y-44207200D02*
X125833332Y-44159580D01*
X127972173Y-37528428D02*
X128019792Y-37576048D01*
X128019792Y-37576048D02*
X128162649Y-37623667D01*
X128162649Y-37623667D02*
X128257887Y-37623667D01*
X128257887Y-37623667D02*
X128400744Y-37576048D01*
X128400744Y-37576048D02*
X128495982Y-37480809D01*
X128495982Y-37480809D02*
X128543601Y-37385571D01*
X128543601Y-37385571D02*
X128591220Y-37195095D01*
X128591220Y-37195095D02*
X128591220Y-37052238D01*
X128591220Y-37052238D02*
X128543601Y-36861762D01*
X128543601Y-36861762D02*
X128495982Y-36766524D01*
X128495982Y-36766524D02*
X128400744Y-36671286D01*
X128400744Y-36671286D02*
X128257887Y-36623667D01*
X128257887Y-36623667D02*
X128162649Y-36623667D01*
X128162649Y-36623667D02*
X128019792Y-36671286D01*
X128019792Y-36671286D02*
X127972173Y-36718905D01*
X127019792Y-37623667D02*
X127591220Y-37623667D01*
X127305506Y-37623667D02*
X127305506Y-36623667D01*
X127305506Y-36623667D02*
X127400744Y-36766524D01*
X127400744Y-36766524D02*
X127495982Y-36861762D01*
X127495982Y-36861762D02*
X127591220Y-36909381D01*
X225319656Y-48519031D02*
X224319656Y-48519031D01*
X224319656Y-48519031D02*
X224319656Y-48757126D01*
X224319656Y-48757126D02*
X224367275Y-48899983D01*
X224367275Y-48899983D02*
X224462513Y-48995221D01*
X224462513Y-48995221D02*
X224557751Y-49042840D01*
X224557751Y-49042840D02*
X224748227Y-49090459D01*
X224748227Y-49090459D02*
X224891084Y-49090459D01*
X224891084Y-49090459D02*
X225081560Y-49042840D01*
X225081560Y-49042840D02*
X225176798Y-48995221D01*
X225176798Y-48995221D02*
X225272037Y-48899983D01*
X225272037Y-48899983D02*
X225319656Y-48757126D01*
X225319656Y-48757126D02*
X225319656Y-48519031D01*
X224414894Y-49471412D02*
X224367275Y-49519031D01*
X224367275Y-49519031D02*
X224319656Y-49614269D01*
X224319656Y-49614269D02*
X224319656Y-49852364D01*
X224319656Y-49852364D02*
X224367275Y-49947602D01*
X224367275Y-49947602D02*
X224414894Y-49995221D01*
X224414894Y-49995221D02*
X224510132Y-50042840D01*
X224510132Y-50042840D02*
X224605370Y-50042840D01*
X224605370Y-50042840D02*
X224748227Y-49995221D01*
X224748227Y-49995221D02*
X225319656Y-49423793D01*
X225319656Y-49423793D02*
X225319656Y-50042840D01*
X224319656Y-50376174D02*
X224319656Y-50995221D01*
X224319656Y-50995221D02*
X224700608Y-50661888D01*
X224700608Y-50661888D02*
X224700608Y-50804745D01*
X224700608Y-50804745D02*
X224748227Y-50899983D01*
X224748227Y-50899983D02*
X224795846Y-50947602D01*
X224795846Y-50947602D02*
X224891084Y-50995221D01*
X224891084Y-50995221D02*
X225129179Y-50995221D01*
X225129179Y-50995221D02*
X225224417Y-50947602D01*
X225224417Y-50947602D02*
X225272037Y-50899983D01*
X225272037Y-50899983D02*
X225319656Y-50804745D01*
X225319656Y-50804745D02*
X225319656Y-50519031D01*
X225319656Y-50519031D02*
X225272037Y-50423793D01*
X225272037Y-50423793D02*
X225224417Y-50376174D01*
X23239879Y-63343954D02*
X22239879Y-63343954D01*
X22239879Y-63343954D02*
X22239879Y-63582049D01*
X22239879Y-63582049D02*
X22287498Y-63724906D01*
X22287498Y-63724906D02*
X22382736Y-63820144D01*
X22382736Y-63820144D02*
X22477974Y-63867763D01*
X22477974Y-63867763D02*
X22668450Y-63915382D01*
X22668450Y-63915382D02*
X22811307Y-63915382D01*
X22811307Y-63915382D02*
X23001783Y-63867763D01*
X23001783Y-63867763D02*
X23097021Y-63820144D01*
X23097021Y-63820144D02*
X23192260Y-63724906D01*
X23192260Y-63724906D02*
X23239879Y-63582049D01*
X23239879Y-63582049D02*
X23239879Y-63343954D01*
X22335117Y-64296335D02*
X22287498Y-64343954D01*
X22287498Y-64343954D02*
X22239879Y-64439192D01*
X22239879Y-64439192D02*
X22239879Y-64677287D01*
X22239879Y-64677287D02*
X22287498Y-64772525D01*
X22287498Y-64772525D02*
X22335117Y-64820144D01*
X22335117Y-64820144D02*
X22430355Y-64867763D01*
X22430355Y-64867763D02*
X22525593Y-64867763D01*
X22525593Y-64867763D02*
X22668450Y-64820144D01*
X22668450Y-64820144D02*
X23239879Y-64248716D01*
X23239879Y-64248716D02*
X23239879Y-64867763D01*
X22239879Y-65772525D02*
X22239879Y-65296335D01*
X22239879Y-65296335D02*
X22716069Y-65248716D01*
X22716069Y-65248716D02*
X22668450Y-65296335D01*
X22668450Y-65296335D02*
X22620831Y-65391573D01*
X22620831Y-65391573D02*
X22620831Y-65629668D01*
X22620831Y-65629668D02*
X22668450Y-65724906D01*
X22668450Y-65724906D02*
X22716069Y-65772525D01*
X22716069Y-65772525D02*
X22811307Y-65820144D01*
X22811307Y-65820144D02*
X23049402Y-65820144D01*
X23049402Y-65820144D02*
X23144640Y-65772525D01*
X23144640Y-65772525D02*
X23192260Y-65724906D01*
X23192260Y-65724906D02*
X23239879Y-65629668D01*
X23239879Y-65629668D02*
X23239879Y-65391573D01*
X23239879Y-65391573D02*
X23192260Y-65296335D01*
X23192260Y-65296335D02*
X23144640Y-65248716D01*
X139933333Y-21854819D02*
X139933333Y-22569104D01*
X139933333Y-22569104D02*
X139980952Y-22711961D01*
X139980952Y-22711961D02*
X140076190Y-22807200D01*
X140076190Y-22807200D02*
X140219047Y-22854819D01*
X140219047Y-22854819D02*
X140314285Y-22854819D01*
X138933333Y-22854819D02*
X139504761Y-22854819D01*
X139219047Y-22854819D02*
X139219047Y-21854819D01*
X139219047Y-21854819D02*
X139314285Y-21997676D01*
X139314285Y-21997676D02*
X139409523Y-22092914D01*
X139409523Y-22092914D02*
X139504761Y-22140533D01*
X111054819Y-67585714D02*
X110054819Y-67585714D01*
X110054819Y-67585714D02*
X110054819Y-67823809D01*
X110054819Y-67823809D02*
X110102438Y-67966666D01*
X110102438Y-67966666D02*
X110197676Y-68061904D01*
X110197676Y-68061904D02*
X110292914Y-68109523D01*
X110292914Y-68109523D02*
X110483390Y-68157142D01*
X110483390Y-68157142D02*
X110626247Y-68157142D01*
X110626247Y-68157142D02*
X110816723Y-68109523D01*
X110816723Y-68109523D02*
X110911961Y-68061904D01*
X110911961Y-68061904D02*
X111007200Y-67966666D01*
X111007200Y-67966666D02*
X111054819Y-67823809D01*
X111054819Y-67823809D02*
X111054819Y-67585714D01*
X110150057Y-68538095D02*
X110102438Y-68585714D01*
X110102438Y-68585714D02*
X110054819Y-68680952D01*
X110054819Y-68680952D02*
X110054819Y-68919047D01*
X110054819Y-68919047D02*
X110102438Y-69014285D01*
X110102438Y-69014285D02*
X110150057Y-69061904D01*
X110150057Y-69061904D02*
X110245295Y-69109523D01*
X110245295Y-69109523D02*
X110340533Y-69109523D01*
X110340533Y-69109523D02*
X110483390Y-69061904D01*
X110483390Y-69061904D02*
X111054819Y-68490476D01*
X111054819Y-68490476D02*
X111054819Y-69109523D01*
X111054819Y-69585714D02*
X111054819Y-69776190D01*
X111054819Y-69776190D02*
X111007200Y-69871428D01*
X111007200Y-69871428D02*
X110959580Y-69919047D01*
X110959580Y-69919047D02*
X110816723Y-70014285D01*
X110816723Y-70014285D02*
X110626247Y-70061904D01*
X110626247Y-70061904D02*
X110245295Y-70061904D01*
X110245295Y-70061904D02*
X110150057Y-70014285D01*
X110150057Y-70014285D02*
X110102438Y-69966666D01*
X110102438Y-69966666D02*
X110054819Y-69871428D01*
X110054819Y-69871428D02*
X110054819Y-69680952D01*
X110054819Y-69680952D02*
X110102438Y-69585714D01*
X110102438Y-69585714D02*
X110150057Y-69538095D01*
X110150057Y-69538095D02*
X110245295Y-69490476D01*
X110245295Y-69490476D02*
X110483390Y-69490476D01*
X110483390Y-69490476D02*
X110578628Y-69538095D01*
X110578628Y-69538095D02*
X110626247Y-69585714D01*
X110626247Y-69585714D02*
X110673866Y-69680952D01*
X110673866Y-69680952D02*
X110673866Y-69871428D01*
X110673866Y-69871428D02*
X110626247Y-69966666D01*
X110626247Y-69966666D02*
X110578628Y-70014285D01*
X110578628Y-70014285D02*
X110483390Y-70061904D01*
X149119656Y-67569031D02*
X148119656Y-67569031D01*
X148119656Y-67569031D02*
X148119656Y-67807126D01*
X148119656Y-67807126D02*
X148167275Y-67949983D01*
X148167275Y-67949983D02*
X148262513Y-68045221D01*
X148262513Y-68045221D02*
X148357751Y-68092840D01*
X148357751Y-68092840D02*
X148548227Y-68140459D01*
X148548227Y-68140459D02*
X148691084Y-68140459D01*
X148691084Y-68140459D02*
X148881560Y-68092840D01*
X148881560Y-68092840D02*
X148976798Y-68045221D01*
X148976798Y-68045221D02*
X149072037Y-67949983D01*
X149072037Y-67949983D02*
X149119656Y-67807126D01*
X149119656Y-67807126D02*
X149119656Y-67569031D01*
X148119656Y-68473793D02*
X148119656Y-69092840D01*
X148119656Y-69092840D02*
X148500608Y-68759507D01*
X148500608Y-68759507D02*
X148500608Y-68902364D01*
X148500608Y-68902364D02*
X148548227Y-68997602D01*
X148548227Y-68997602D02*
X148595846Y-69045221D01*
X148595846Y-69045221D02*
X148691084Y-69092840D01*
X148691084Y-69092840D02*
X148929179Y-69092840D01*
X148929179Y-69092840D02*
X149024417Y-69045221D01*
X149024417Y-69045221D02*
X149072037Y-68997602D01*
X149072037Y-68997602D02*
X149119656Y-68902364D01*
X149119656Y-68902364D02*
X149119656Y-68616650D01*
X149119656Y-68616650D02*
X149072037Y-68521412D01*
X149072037Y-68521412D02*
X149024417Y-68473793D01*
X149119656Y-70045221D02*
X149119656Y-69473793D01*
X149119656Y-69759507D02*
X148119656Y-69759507D01*
X148119656Y-69759507D02*
X148262513Y-69664269D01*
X148262513Y-69664269D02*
X148357751Y-69569031D01*
X148357751Y-69569031D02*
X148405370Y-69473793D01*
X72919656Y-48519031D02*
X71919656Y-48519031D01*
X71919656Y-48519031D02*
X71919656Y-48757126D01*
X71919656Y-48757126D02*
X71967275Y-48899983D01*
X71967275Y-48899983D02*
X72062513Y-48995221D01*
X72062513Y-48995221D02*
X72157751Y-49042840D01*
X72157751Y-49042840D02*
X72348227Y-49090459D01*
X72348227Y-49090459D02*
X72491084Y-49090459D01*
X72491084Y-49090459D02*
X72681560Y-49042840D01*
X72681560Y-49042840D02*
X72776798Y-48995221D01*
X72776798Y-48995221D02*
X72872037Y-48899983D01*
X72872037Y-48899983D02*
X72919656Y-48757126D01*
X72919656Y-48757126D02*
X72919656Y-48519031D01*
X72919656Y-50042840D02*
X72919656Y-49471412D01*
X72919656Y-49757126D02*
X71919656Y-49757126D01*
X71919656Y-49757126D02*
X72062513Y-49661888D01*
X72062513Y-49661888D02*
X72157751Y-49566650D01*
X72157751Y-49566650D02*
X72205370Y-49471412D01*
X71919656Y-50947602D02*
X71919656Y-50471412D01*
X71919656Y-50471412D02*
X72395846Y-50423793D01*
X72395846Y-50423793D02*
X72348227Y-50471412D01*
X72348227Y-50471412D02*
X72300608Y-50566650D01*
X72300608Y-50566650D02*
X72300608Y-50804745D01*
X72300608Y-50804745D02*
X72348227Y-50899983D01*
X72348227Y-50899983D02*
X72395846Y-50947602D01*
X72395846Y-50947602D02*
X72491084Y-50995221D01*
X72491084Y-50995221D02*
X72729179Y-50995221D01*
X72729179Y-50995221D02*
X72824417Y-50947602D01*
X72824417Y-50947602D02*
X72872037Y-50899983D01*
X72872037Y-50899983D02*
X72919656Y-50804745D01*
X72919656Y-50804745D02*
X72919656Y-50566650D01*
X72919656Y-50566650D02*
X72872037Y-50471412D01*
X72872037Y-50471412D02*
X72824417Y-50423793D01*
X187219656Y-48519031D02*
X186219656Y-48519031D01*
X186219656Y-48519031D02*
X186219656Y-48757126D01*
X186219656Y-48757126D02*
X186267275Y-48899983D01*
X186267275Y-48899983D02*
X186362513Y-48995221D01*
X186362513Y-48995221D02*
X186457751Y-49042840D01*
X186457751Y-49042840D02*
X186648227Y-49090459D01*
X186648227Y-49090459D02*
X186791084Y-49090459D01*
X186791084Y-49090459D02*
X186981560Y-49042840D01*
X186981560Y-49042840D02*
X187076798Y-48995221D01*
X187076798Y-48995221D02*
X187172037Y-48899983D01*
X187172037Y-48899983D02*
X187219656Y-48757126D01*
X187219656Y-48757126D02*
X187219656Y-48519031D01*
X186314894Y-49471412D02*
X186267275Y-49519031D01*
X186267275Y-49519031D02*
X186219656Y-49614269D01*
X186219656Y-49614269D02*
X186219656Y-49852364D01*
X186219656Y-49852364D02*
X186267275Y-49947602D01*
X186267275Y-49947602D02*
X186314894Y-49995221D01*
X186314894Y-49995221D02*
X186410132Y-50042840D01*
X186410132Y-50042840D02*
X186505370Y-50042840D01*
X186505370Y-50042840D02*
X186648227Y-49995221D01*
X186648227Y-49995221D02*
X187219656Y-49423793D01*
X187219656Y-49423793D02*
X187219656Y-50042840D01*
X187219656Y-50995221D02*
X187219656Y-50423793D01*
X187219656Y-50709507D02*
X186219656Y-50709507D01*
X186219656Y-50709507D02*
X186362513Y-50614269D01*
X186362513Y-50614269D02*
X186457751Y-50519031D01*
X186457751Y-50519031D02*
X186505370Y-50423793D01*
X149119656Y-29945222D02*
X148119656Y-29945222D01*
X148119656Y-29945222D02*
X148119656Y-30183317D01*
X148119656Y-30183317D02*
X148167275Y-30326174D01*
X148167275Y-30326174D02*
X148262513Y-30421412D01*
X148262513Y-30421412D02*
X148357751Y-30469031D01*
X148357751Y-30469031D02*
X148548227Y-30516650D01*
X148548227Y-30516650D02*
X148691084Y-30516650D01*
X148691084Y-30516650D02*
X148881560Y-30469031D01*
X148881560Y-30469031D02*
X148976798Y-30421412D01*
X148976798Y-30421412D02*
X149072037Y-30326174D01*
X149072037Y-30326174D02*
X149119656Y-30183317D01*
X149119656Y-30183317D02*
X149119656Y-29945222D01*
X148119656Y-30849984D02*
X148119656Y-31516650D01*
X148119656Y-31516650D02*
X149119656Y-31088079D01*
X118489982Y-82402397D02*
X117489982Y-82402397D01*
X117489982Y-82402397D02*
X117489982Y-82640492D01*
X117489982Y-82640492D02*
X117537601Y-82783349D01*
X117537601Y-82783349D02*
X117632839Y-82878587D01*
X117632839Y-82878587D02*
X117728077Y-82926206D01*
X117728077Y-82926206D02*
X117918553Y-82973825D01*
X117918553Y-82973825D02*
X118061410Y-82973825D01*
X118061410Y-82973825D02*
X118251886Y-82926206D01*
X118251886Y-82926206D02*
X118347124Y-82878587D01*
X118347124Y-82878587D02*
X118442363Y-82783349D01*
X118442363Y-82783349D02*
X118489982Y-82640492D01*
X118489982Y-82640492D02*
X118489982Y-82402397D01*
X117823315Y-83830968D02*
X118489982Y-83830968D01*
X117442363Y-83592873D02*
X118156648Y-83354778D01*
X118156648Y-83354778D02*
X118156648Y-83973825D01*
X117585220Y-84307159D02*
X117537601Y-84354778D01*
X117537601Y-84354778D02*
X117489982Y-84450016D01*
X117489982Y-84450016D02*
X117489982Y-84688111D01*
X117489982Y-84688111D02*
X117537601Y-84783349D01*
X117537601Y-84783349D02*
X117585220Y-84830968D01*
X117585220Y-84830968D02*
X117680458Y-84878587D01*
X117680458Y-84878587D02*
X117775696Y-84878587D01*
X117775696Y-84878587D02*
X117918553Y-84830968D01*
X117918553Y-84830968D02*
X118489982Y-84259540D01*
X118489982Y-84259540D02*
X118489982Y-84878587D01*
X131811608Y-45101427D02*
X131859227Y-45149047D01*
X131859227Y-45149047D02*
X132002084Y-45196666D01*
X132002084Y-45196666D02*
X132097322Y-45196666D01*
X132097322Y-45196666D02*
X132240179Y-45149047D01*
X132240179Y-45149047D02*
X132335417Y-45053808D01*
X132335417Y-45053808D02*
X132383036Y-44958570D01*
X132383036Y-44958570D02*
X132430655Y-44768094D01*
X132430655Y-44768094D02*
X132430655Y-44625237D01*
X132430655Y-44625237D02*
X132383036Y-44434761D01*
X132383036Y-44434761D02*
X132335417Y-44339523D01*
X132335417Y-44339523D02*
X132240179Y-44244285D01*
X132240179Y-44244285D02*
X132097322Y-44196666D01*
X132097322Y-44196666D02*
X132002084Y-44196666D01*
X132002084Y-44196666D02*
X131859227Y-44244285D01*
X131859227Y-44244285D02*
X131811608Y-44291904D01*
X130906846Y-44196666D02*
X131383036Y-44196666D01*
X131383036Y-44196666D02*
X131430655Y-44672856D01*
X131430655Y-44672856D02*
X131383036Y-44625237D01*
X131383036Y-44625237D02*
X131287798Y-44577618D01*
X131287798Y-44577618D02*
X131049703Y-44577618D01*
X131049703Y-44577618D02*
X130954465Y-44625237D01*
X130954465Y-44625237D02*
X130906846Y-44672856D01*
X130906846Y-44672856D02*
X130859227Y-44768094D01*
X130859227Y-44768094D02*
X130859227Y-45006189D01*
X130859227Y-45006189D02*
X130906846Y-45101427D01*
X130906846Y-45101427D02*
X130954465Y-45149047D01*
X130954465Y-45149047D02*
X131049703Y-45196666D01*
X131049703Y-45196666D02*
X131287798Y-45196666D01*
X131287798Y-45196666D02*
X131383036Y-45149047D01*
X131383036Y-45149047D02*
X131430655Y-45101427D01*
X53869656Y-86619031D02*
X52869656Y-86619031D01*
X52869656Y-86619031D02*
X52869656Y-86857126D01*
X52869656Y-86857126D02*
X52917275Y-86999983D01*
X52917275Y-86999983D02*
X53012513Y-87095221D01*
X53012513Y-87095221D02*
X53107751Y-87142840D01*
X53107751Y-87142840D02*
X53298227Y-87190459D01*
X53298227Y-87190459D02*
X53441084Y-87190459D01*
X53441084Y-87190459D02*
X53631560Y-87142840D01*
X53631560Y-87142840D02*
X53726798Y-87095221D01*
X53726798Y-87095221D02*
X53822037Y-86999983D01*
X53822037Y-86999983D02*
X53869656Y-86857126D01*
X53869656Y-86857126D02*
X53869656Y-86619031D01*
X52869656Y-87523793D02*
X52869656Y-88142840D01*
X52869656Y-88142840D02*
X53250608Y-87809507D01*
X53250608Y-87809507D02*
X53250608Y-87952364D01*
X53250608Y-87952364D02*
X53298227Y-88047602D01*
X53298227Y-88047602D02*
X53345846Y-88095221D01*
X53345846Y-88095221D02*
X53441084Y-88142840D01*
X53441084Y-88142840D02*
X53679179Y-88142840D01*
X53679179Y-88142840D02*
X53774417Y-88095221D01*
X53774417Y-88095221D02*
X53822037Y-88047602D01*
X53822037Y-88047602D02*
X53869656Y-87952364D01*
X53869656Y-87952364D02*
X53869656Y-87666650D01*
X53869656Y-87666650D02*
X53822037Y-87571412D01*
X53822037Y-87571412D02*
X53774417Y-87523793D01*
X53298227Y-88714269D02*
X53250608Y-88619031D01*
X53250608Y-88619031D02*
X53202989Y-88571412D01*
X53202989Y-88571412D02*
X53107751Y-88523793D01*
X53107751Y-88523793D02*
X53060132Y-88523793D01*
X53060132Y-88523793D02*
X52964894Y-88571412D01*
X52964894Y-88571412D02*
X52917275Y-88619031D01*
X52917275Y-88619031D02*
X52869656Y-88714269D01*
X52869656Y-88714269D02*
X52869656Y-88904745D01*
X52869656Y-88904745D02*
X52917275Y-88999983D01*
X52917275Y-88999983D02*
X52964894Y-89047602D01*
X52964894Y-89047602D02*
X53060132Y-89095221D01*
X53060132Y-89095221D02*
X53107751Y-89095221D01*
X53107751Y-89095221D02*
X53202989Y-89047602D01*
X53202989Y-89047602D02*
X53250608Y-88999983D01*
X53250608Y-88999983D02*
X53298227Y-88904745D01*
X53298227Y-88904745D02*
X53298227Y-88714269D01*
X53298227Y-88714269D02*
X53345846Y-88619031D01*
X53345846Y-88619031D02*
X53393465Y-88571412D01*
X53393465Y-88571412D02*
X53488703Y-88523793D01*
X53488703Y-88523793D02*
X53679179Y-88523793D01*
X53679179Y-88523793D02*
X53774417Y-88571412D01*
X53774417Y-88571412D02*
X53822037Y-88619031D01*
X53822037Y-88619031D02*
X53869656Y-88714269D01*
X53869656Y-88714269D02*
X53869656Y-88904745D01*
X53869656Y-88904745D02*
X53822037Y-88999983D01*
X53822037Y-88999983D02*
X53774417Y-89047602D01*
X53774417Y-89047602D02*
X53679179Y-89095221D01*
X53679179Y-89095221D02*
X53488703Y-89095221D01*
X53488703Y-89095221D02*
X53393465Y-89047602D01*
X53393465Y-89047602D02*
X53345846Y-88999983D01*
X53345846Y-88999983D02*
X53298227Y-88904745D01*
X206269656Y-29469031D02*
X205269656Y-29469031D01*
X205269656Y-29469031D02*
X205269656Y-29707126D01*
X205269656Y-29707126D02*
X205317275Y-29849983D01*
X205317275Y-29849983D02*
X205412513Y-29945221D01*
X205412513Y-29945221D02*
X205507751Y-29992840D01*
X205507751Y-29992840D02*
X205698227Y-30040459D01*
X205698227Y-30040459D02*
X205841084Y-30040459D01*
X205841084Y-30040459D02*
X206031560Y-29992840D01*
X206031560Y-29992840D02*
X206126798Y-29945221D01*
X206126798Y-29945221D02*
X206222037Y-29849983D01*
X206222037Y-29849983D02*
X206269656Y-29707126D01*
X206269656Y-29707126D02*
X206269656Y-29469031D01*
X206269656Y-30992840D02*
X206269656Y-30421412D01*
X206269656Y-30707126D02*
X205269656Y-30707126D01*
X205269656Y-30707126D02*
X205412513Y-30611888D01*
X205412513Y-30611888D02*
X205507751Y-30516650D01*
X205507751Y-30516650D02*
X205555370Y-30421412D01*
X205269656Y-31611888D02*
X205269656Y-31707126D01*
X205269656Y-31707126D02*
X205317275Y-31802364D01*
X205317275Y-31802364D02*
X205364894Y-31849983D01*
X205364894Y-31849983D02*
X205460132Y-31897602D01*
X205460132Y-31897602D02*
X205650608Y-31945221D01*
X205650608Y-31945221D02*
X205888703Y-31945221D01*
X205888703Y-31945221D02*
X206079179Y-31897602D01*
X206079179Y-31897602D02*
X206174417Y-31849983D01*
X206174417Y-31849983D02*
X206222037Y-31802364D01*
X206222037Y-31802364D02*
X206269656Y-31707126D01*
X206269656Y-31707126D02*
X206269656Y-31611888D01*
X206269656Y-31611888D02*
X206222037Y-31516650D01*
X206222037Y-31516650D02*
X206174417Y-31469031D01*
X206174417Y-31469031D02*
X206079179Y-31421412D01*
X206079179Y-31421412D02*
X205888703Y-31373793D01*
X205888703Y-31373793D02*
X205650608Y-31373793D01*
X205650608Y-31373793D02*
X205460132Y-31421412D01*
X205460132Y-31421412D02*
X205364894Y-31469031D01*
X205364894Y-31469031D02*
X205317275Y-31516650D01*
X205317275Y-31516650D02*
X205269656Y-31611888D01*
X144042857Y-57959580D02*
X144090476Y-58007200D01*
X144090476Y-58007200D02*
X144233333Y-58054819D01*
X144233333Y-58054819D02*
X144328571Y-58054819D01*
X144328571Y-58054819D02*
X144471428Y-58007200D01*
X144471428Y-58007200D02*
X144566666Y-57911961D01*
X144566666Y-57911961D02*
X144614285Y-57816723D01*
X144614285Y-57816723D02*
X144661904Y-57626247D01*
X144661904Y-57626247D02*
X144661904Y-57483390D01*
X144661904Y-57483390D02*
X144614285Y-57292914D01*
X144614285Y-57292914D02*
X144566666Y-57197676D01*
X144566666Y-57197676D02*
X144471428Y-57102438D01*
X144471428Y-57102438D02*
X144328571Y-57054819D01*
X144328571Y-57054819D02*
X144233333Y-57054819D01*
X144233333Y-57054819D02*
X144090476Y-57102438D01*
X144090476Y-57102438D02*
X144042857Y-57150057D01*
X143090476Y-58054819D02*
X143661904Y-58054819D01*
X143376190Y-58054819D02*
X143376190Y-57054819D01*
X143376190Y-57054819D02*
X143471428Y-57197676D01*
X143471428Y-57197676D02*
X143566666Y-57292914D01*
X143566666Y-57292914D02*
X143661904Y-57340533D01*
X142709523Y-57150057D02*
X142661904Y-57102438D01*
X142661904Y-57102438D02*
X142566666Y-57054819D01*
X142566666Y-57054819D02*
X142328571Y-57054819D01*
X142328571Y-57054819D02*
X142233333Y-57102438D01*
X142233333Y-57102438D02*
X142185714Y-57150057D01*
X142185714Y-57150057D02*
X142138095Y-57245295D01*
X142138095Y-57245295D02*
X142138095Y-57340533D01*
X142138095Y-57340533D02*
X142185714Y-57483390D01*
X142185714Y-57483390D02*
X142757142Y-58054819D01*
X142757142Y-58054819D02*
X142138095Y-58054819D01*
X53869656Y-48519031D02*
X52869656Y-48519031D01*
X52869656Y-48519031D02*
X52869656Y-48757126D01*
X52869656Y-48757126D02*
X52917275Y-48899983D01*
X52917275Y-48899983D02*
X53012513Y-48995221D01*
X53012513Y-48995221D02*
X53107751Y-49042840D01*
X53107751Y-49042840D02*
X53298227Y-49090459D01*
X53298227Y-49090459D02*
X53441084Y-49090459D01*
X53441084Y-49090459D02*
X53631560Y-49042840D01*
X53631560Y-49042840D02*
X53726798Y-48995221D01*
X53726798Y-48995221D02*
X53822037Y-48899983D01*
X53822037Y-48899983D02*
X53869656Y-48757126D01*
X53869656Y-48757126D02*
X53869656Y-48519031D01*
X53869656Y-50042840D02*
X53869656Y-49471412D01*
X53869656Y-49757126D02*
X52869656Y-49757126D01*
X52869656Y-49757126D02*
X53012513Y-49661888D01*
X53012513Y-49661888D02*
X53107751Y-49566650D01*
X53107751Y-49566650D02*
X53155370Y-49471412D01*
X53202989Y-50899983D02*
X53869656Y-50899983D01*
X52822037Y-50661888D02*
X53536322Y-50423793D01*
X53536322Y-50423793D02*
X53536322Y-51042840D01*
X167366666Y-76854819D02*
X167699999Y-76378628D01*
X167938094Y-76854819D02*
X167938094Y-75854819D01*
X167938094Y-75854819D02*
X167557142Y-75854819D01*
X167557142Y-75854819D02*
X167461904Y-75902438D01*
X167461904Y-75902438D02*
X167414285Y-75950057D01*
X167414285Y-75950057D02*
X167366666Y-76045295D01*
X167366666Y-76045295D02*
X167366666Y-76188152D01*
X167366666Y-76188152D02*
X167414285Y-76283390D01*
X167414285Y-76283390D02*
X167461904Y-76331009D01*
X167461904Y-76331009D02*
X167557142Y-76378628D01*
X167557142Y-76378628D02*
X167938094Y-76378628D01*
X166509523Y-75854819D02*
X166699999Y-75854819D01*
X166699999Y-75854819D02*
X166795237Y-75902438D01*
X166795237Y-75902438D02*
X166842856Y-75950057D01*
X166842856Y-75950057D02*
X166938094Y-76092914D01*
X166938094Y-76092914D02*
X166985713Y-76283390D01*
X166985713Y-76283390D02*
X166985713Y-76664342D01*
X166985713Y-76664342D02*
X166938094Y-76759580D01*
X166938094Y-76759580D02*
X166890475Y-76807200D01*
X166890475Y-76807200D02*
X166795237Y-76854819D01*
X166795237Y-76854819D02*
X166604761Y-76854819D01*
X166604761Y-76854819D02*
X166509523Y-76807200D01*
X166509523Y-76807200D02*
X166461904Y-76759580D01*
X166461904Y-76759580D02*
X166414285Y-76664342D01*
X166414285Y-76664342D02*
X166414285Y-76426247D01*
X166414285Y-76426247D02*
X166461904Y-76331009D01*
X166461904Y-76331009D02*
X166509523Y-76283390D01*
X166509523Y-76283390D02*
X166604761Y-76235771D01*
X166604761Y-76235771D02*
X166795237Y-76235771D01*
X166795237Y-76235771D02*
X166890475Y-76283390D01*
X166890475Y-76283390D02*
X166938094Y-76331009D01*
X166938094Y-76331009D02*
X166985713Y-76426247D01*
D11*
%TO.C,D26*%
X50394011Y-66418980D02*
X50394011Y-70428980D01*
X50394011Y-66418980D02*
X52394011Y-66418980D01*
X52394011Y-66418980D02*
X52394011Y-70428980D01*
%TO.C,D44*%
X138766020Y-86098684D02*
X135930522Y-83263186D01*
X140180234Y-84684470D02*
X137344736Y-81848972D01*
X140180234Y-84684470D02*
X138766020Y-86098684D01*
%TO.C,D32*%
X164694011Y-66418980D02*
X164694011Y-70428980D01*
X164694011Y-66418980D02*
X166694011Y-66418980D01*
X166694011Y-66418980D02*
X166694011Y-70428980D01*
%TO.C,D6*%
X126594011Y-28318980D02*
X126594011Y-32328980D01*
X126594011Y-28318980D02*
X128594011Y-28318980D01*
X128594011Y-28318980D02*
X128594011Y-32328980D01*
%TO.C,C10*%
X137669190Y-62778307D02*
X137821693Y-62930810D01*
X138178307Y-62269190D02*
X138330810Y-62421693D01*
%TO.C,C8*%
X127707836Y-62733717D02*
X127492164Y-62733717D01*
X127707836Y-63453717D02*
X127492164Y-63453717D01*
%TO.C,SW29*%
X97271000Y-68150000D02*
X97271000Y-68850000D01*
X97271000Y-68150000D02*
X98271000Y-68150000D01*
X106275000Y-70300000D02*
X105275000Y-70300000D01*
X106275000Y-70300000D02*
X107075000Y-71100000D01*
X106275000Y-74950000D02*
X105275000Y-74950000D01*
X107075000Y-74150000D02*
X106275000Y-74950000D01*
X98325000Y-72800000D02*
G75*
G02*
X97525000Y-72000000I0J800000D01*
G01*
%TO.C,SW12*%
X230621000Y-30050000D02*
X230621000Y-30750000D01*
X230621000Y-30050000D02*
X231621000Y-30050000D01*
X239625000Y-32200000D02*
X238625000Y-32200000D01*
X239625000Y-32200000D02*
X240425000Y-33000000D01*
X239625000Y-36850000D02*
X238625000Y-36850000D01*
X240425000Y-36050000D02*
X239625000Y-36850000D01*
X231675000Y-34700000D02*
G75*
G02*
X230875000Y-33900000I0J800000D01*
G01*
%TO.C,SW48*%
X211571000Y-87200000D02*
X211571000Y-87900000D01*
X211571000Y-87200000D02*
X212571000Y-87200000D01*
X220575000Y-89350000D02*
X219575000Y-89350000D01*
X220575000Y-89350000D02*
X221375000Y-90150000D01*
X220575000Y-94000000D02*
X219575000Y-94000000D01*
X221375000Y-93200000D02*
X220575000Y-94000000D01*
X212625000Y-91850000D02*
G75*
G02*
X211825000Y-91050000I0J800000D01*
G01*
%TO.C,SW13*%
X26274049Y-40143606D02*
X27074049Y-39343606D01*
X27074049Y-39343606D02*
X28074049Y-39343606D01*
X27074049Y-43993606D02*
X26274049Y-43193606D01*
X27074049Y-43993606D02*
X28074049Y-43993606D01*
X36078049Y-46143606D02*
X35078049Y-46143606D01*
X36078049Y-46143606D02*
X36078049Y-45443606D01*
X35024049Y-41493606D02*
G75*
G02*
X35824049Y-42293606I0J-800000D01*
G01*
%TO.C,SW6*%
X116321000Y-30050000D02*
X116321000Y-30750000D01*
X116321000Y-30050000D02*
X117321000Y-30050000D01*
X125325000Y-32200000D02*
X124325000Y-32200000D01*
X125325000Y-32200000D02*
X126125000Y-33000000D01*
X125325000Y-36850000D02*
X124325000Y-36850000D01*
X126125000Y-36050000D02*
X125325000Y-36850000D01*
X117375000Y-34700000D02*
G75*
G02*
X116575000Y-33900000I0J800000D01*
G01*
%TO.C,C4*%
X131573742Y-53965551D02*
X131421239Y-53813048D01*
X132082859Y-53456434D02*
X131930356Y-53303931D01*
%TO.C,SW32*%
X154421000Y-68150000D02*
X154421000Y-68850000D01*
X154421000Y-68150000D02*
X155421000Y-68150000D01*
X163425000Y-70300000D02*
X162425000Y-70300000D01*
X163425000Y-70300000D02*
X164225000Y-71100000D01*
X163425000Y-74950000D02*
X162425000Y-74950000D01*
X164225000Y-74150000D02*
X163425000Y-74950000D01*
X155475000Y-72800000D02*
G75*
G02*
X154675000Y-72000000I0J800000D01*
G01*
%TO.C,SW36*%
X230621000Y-68150000D02*
X230621000Y-68850000D01*
X230621000Y-68150000D02*
X231621000Y-68150000D01*
X239625000Y-70300000D02*
X238625000Y-70300000D01*
X239625000Y-70300000D02*
X240425000Y-71100000D01*
X239625000Y-74950000D02*
X238625000Y-74950000D01*
X240425000Y-74150000D02*
X239625000Y-74950000D01*
X231675000Y-72800000D02*
G75*
G02*
X230875000Y-72000000I0J800000D01*
G01*
%TO.C,R7*%
X130220000Y-49446359D02*
X130220000Y-49753641D01*
X130980000Y-49446359D02*
X130980000Y-49753641D01*
%TO.C,D33*%
X183744011Y-66418980D02*
X183744011Y-70428980D01*
X183744011Y-66418980D02*
X185744011Y-66418980D01*
X185744011Y-66418980D02*
X185744011Y-70428980D01*
%TO.C,SW21*%
X173471000Y-49100000D02*
X173471000Y-49800000D01*
X173471000Y-49100000D02*
X174471000Y-49100000D01*
X182475000Y-51250000D02*
X181475000Y-51250000D01*
X182475000Y-51250000D02*
X183275000Y-52050000D01*
X182475000Y-55900000D02*
X181475000Y-55900000D01*
X183275000Y-55100000D02*
X182475000Y-55900000D01*
X174525000Y-53750000D02*
G75*
G02*
X173725000Y-52950000I0J800000D01*
G01*
%TO.C,SW8*%
X154421000Y-30050000D02*
X154421000Y-30750000D01*
X154421000Y-30050000D02*
X155421000Y-30050000D01*
X163425000Y-32200000D02*
X162425000Y-32200000D01*
X163425000Y-32200000D02*
X164225000Y-33000000D01*
X163425000Y-36850000D02*
X162425000Y-36850000D01*
X164225000Y-36050000D02*
X163425000Y-36850000D01*
X155475000Y-34700000D02*
G75*
G02*
X154675000Y-33900000I0J800000D01*
G01*
%TO.C,D12*%
X240894011Y-28318980D02*
X240894011Y-32328980D01*
X240894011Y-28318980D02*
X242894011Y-28318980D01*
X242894011Y-28318980D02*
X242894011Y-32328980D01*
%TO.C,SW22*%
X192521000Y-49100000D02*
X192521000Y-49800000D01*
X192521000Y-49100000D02*
X193521000Y-49100000D01*
X201525000Y-51250000D02*
X200525000Y-51250000D01*
X201525000Y-51250000D02*
X202325000Y-52050000D01*
X201525000Y-55900000D02*
X200525000Y-55900000D01*
X202325000Y-55100000D02*
X201525000Y-55900000D01*
X193575000Y-53750000D02*
G75*
G02*
X192775000Y-52950000I0J800000D01*
G01*
%TO.C,D19*%
X145644011Y-47368980D02*
X145644011Y-51378980D01*
X145644011Y-47368980D02*
X147644011Y-47368980D01*
X147644011Y-47368980D02*
X147644011Y-51378980D01*
%TO.C,D22*%
X202794011Y-47368980D02*
X202794011Y-51378980D01*
X202794011Y-47368980D02*
X204794011Y-47368980D01*
X204794011Y-47368980D02*
X204794011Y-51378980D01*
%TO.C,C2*%
X125044600Y-39577164D02*
X125044600Y-39792836D01*
X125764600Y-39577164D02*
X125764600Y-39792836D01*
%TO.C,D3*%
X69444011Y-28318980D02*
X69444011Y-32328980D01*
X69444011Y-28318980D02*
X71444011Y-28318980D01*
X71444011Y-28318980D02*
X71444011Y-32328980D01*
%TO.C,SW40*%
X78221000Y-87200000D02*
X78221000Y-87900000D01*
X78221000Y-87200000D02*
X79221000Y-87200000D01*
X87225000Y-89350000D02*
X86225000Y-89350000D01*
X87225000Y-89350000D02*
X88025000Y-90150000D01*
X87225000Y-94000000D02*
X86225000Y-94000000D01*
X88025000Y-93200000D02*
X87225000Y-94000000D01*
X79275000Y-91850000D02*
G75*
G02*
X78475000Y-91050000I0J800000D01*
G01*
%TO.C,D17*%
X107544011Y-47368980D02*
X107544011Y-51378980D01*
X107544011Y-47368980D02*
X109544011Y-47368980D01*
X109544011Y-47368980D02*
X109544011Y-51378980D01*
%TO.C,SW11*%
X211571000Y-30050000D02*
X211571000Y-30750000D01*
X211571000Y-30050000D02*
X212571000Y-30050000D01*
X220575000Y-32200000D02*
X219575000Y-32200000D01*
X220575000Y-32200000D02*
X221375000Y-33000000D01*
X220575000Y-36850000D02*
X219575000Y-36850000D01*
X221375000Y-36050000D02*
X220575000Y-36850000D01*
X212625000Y-34700000D02*
G75*
G02*
X211825000Y-33900000I0J800000D01*
G01*
%TO.C,SW34*%
X192521000Y-68150000D02*
X192521000Y-68850000D01*
X192521000Y-68150000D02*
X193521000Y-68150000D01*
X201525000Y-70300000D02*
X200525000Y-70300000D01*
X201525000Y-70300000D02*
X202325000Y-71100000D01*
X201525000Y-74950000D02*
X200525000Y-74950000D01*
X202325000Y-74150000D02*
X201525000Y-74950000D01*
X193575000Y-72800000D02*
G75*
G02*
X192775000Y-72000000I0J800000D01*
G01*
%TO.C,D45*%
X164694011Y-85468980D02*
X164694011Y-89478980D01*
X164694011Y-85468980D02*
X166694011Y-85468980D01*
X166694011Y-85468980D02*
X166694011Y-89478980D01*
%TO.C,SW15*%
X59171000Y-49100000D02*
X59171000Y-49800000D01*
X59171000Y-49100000D02*
X60171000Y-49100000D01*
X68175000Y-51250000D02*
X67175000Y-51250000D01*
X68175000Y-51250000D02*
X68975000Y-52050000D01*
X68175000Y-55900000D02*
X67175000Y-55900000D01*
X68975000Y-55100000D02*
X68175000Y-55900000D01*
X60225000Y-53750000D02*
G75*
G02*
X59425000Y-52950000I0J800000D01*
G01*
%TO.C,D1*%
X23804189Y-28826674D02*
X23804189Y-24816674D01*
X25804189Y-28826674D02*
X23804189Y-28826674D01*
X25804189Y-28826674D02*
X25804189Y-24816674D01*
%TO.C,D16*%
X88494011Y-47368980D02*
X88494011Y-51378980D01*
X88494011Y-47368980D02*
X90494011Y-47368980D01*
X90494011Y-47368980D02*
X90494011Y-51378980D01*
%TO.C,D13*%
X23805037Y-47874626D02*
X23805037Y-43864626D01*
X25805037Y-47874626D02*
X23805037Y-47874626D01*
X25805037Y-47874626D02*
X25805037Y-43864626D01*
%TO.C,D37*%
X23806734Y-85970529D02*
X23806734Y-81960529D01*
X25806734Y-85970529D02*
X23806734Y-85970529D01*
X25806734Y-85970529D02*
X25806734Y-81960529D01*
%TO.C,SW24*%
X230621000Y-49100000D02*
X230621000Y-49800000D01*
X230621000Y-49100000D02*
X231621000Y-49100000D01*
X239625000Y-51250000D02*
X238625000Y-51250000D01*
X239625000Y-51250000D02*
X240425000Y-52050000D01*
X239625000Y-55900000D02*
X238625000Y-55900000D01*
X240425000Y-55100000D02*
X239625000Y-55900000D01*
X231675000Y-53750000D02*
G75*
G02*
X230875000Y-52950000I0J800000D01*
G01*
%TO.C,U1*%
X127669400Y-38125000D02*
X127669400Y-38175000D01*
X127669400Y-39295000D02*
X127669400Y-40075000D01*
X127669400Y-41195000D02*
X127669400Y-41245000D01*
X127669400Y-41245000D02*
X129489400Y-41245000D01*
X129489400Y-38125000D02*
X127669400Y-38125000D01*
X129489400Y-39125000D02*
X129489400Y-38125000D01*
X129489400Y-41245000D02*
X129489400Y-40245000D01*
X127129400Y-40065000D02*
X126889400Y-39735000D01*
X127369400Y-39735000D01*
X127129400Y-40065000D01*
G36*
X127129400Y-40065000D02*
G01*
X126889400Y-39735000D01*
X127369400Y-39735000D01*
X127129400Y-40065000D01*
G37*
%TO.C,SW9*%
X173471000Y-30050000D02*
X173471000Y-30750000D01*
X173471000Y-30050000D02*
X174471000Y-30050000D01*
X182475000Y-32200000D02*
X181475000Y-32200000D01*
X182475000Y-32200000D02*
X183275000Y-33000000D01*
X182475000Y-36850000D02*
X181475000Y-36850000D01*
X183275000Y-36050000D02*
X182475000Y-36850000D01*
X174525000Y-34700000D02*
G75*
G02*
X173725000Y-33900000I0J800000D01*
G01*
%TO.C,R3*%
X167046359Y-79196300D02*
X167353641Y-79196300D01*
X167046359Y-79956300D02*
X167353641Y-79956300D01*
%TO.C,BOOT1*%
X168689200Y-79826300D02*
X168689200Y-77326300D01*
X169139200Y-76876300D02*
X168689200Y-77326300D01*
X169139200Y-80276300D02*
X168689200Y-79826300D01*
X172439200Y-75826300D02*
X170439200Y-75826300D01*
X172439200Y-81326300D02*
X170439200Y-81326300D01*
X173739200Y-76876300D02*
X174189200Y-77326300D01*
X173739200Y-80276300D02*
X174189200Y-79826300D01*
X174189200Y-79826300D02*
X174189200Y-77326300D01*
%TO.C,C9*%
X135269190Y-65178307D02*
X135421693Y-65330810D01*
X135778307Y-64669190D02*
X135930810Y-64821693D01*
%TO.C,SW35*%
X211571000Y-68150000D02*
X211571000Y-68850000D01*
X211571000Y-68150000D02*
X212571000Y-68150000D01*
X220575000Y-70300000D02*
X219575000Y-70300000D01*
X220575000Y-70300000D02*
X221375000Y-71100000D01*
X220575000Y-74950000D02*
X219575000Y-74950000D01*
X221375000Y-74150000D02*
X220575000Y-74950000D01*
X212625000Y-72800000D02*
G75*
G02*
X211825000Y-72000000I0J800000D01*
G01*
%TO.C,D24*%
X240894011Y-47368980D02*
X240894011Y-51378980D01*
X240894011Y-47368980D02*
X242894011Y-47368980D01*
X242894011Y-47368980D02*
X242894011Y-51378980D01*
%TO.C,SW37*%
X26275746Y-78239509D02*
X27075746Y-77439509D01*
X27075746Y-77439509D02*
X28075746Y-77439509D01*
X27075746Y-82089509D02*
X26275746Y-81289509D01*
X27075746Y-82089509D02*
X28075746Y-82089509D01*
X36079746Y-84239509D02*
X35079746Y-84239509D01*
X36079746Y-84239509D02*
X36079746Y-83539509D01*
X35025746Y-79589509D02*
G75*
G02*
X35825746Y-80389509I0J-800000D01*
G01*
%TO.C,D2*%
X50394011Y-28318980D02*
X50394011Y-32328980D01*
X50394011Y-28318980D02*
X52394011Y-28318980D01*
X52394011Y-28318980D02*
X52394011Y-32328980D01*
%TO.C,C7*%
X127821693Y-57730810D02*
X127669190Y-57578307D01*
X128330810Y-57221693D02*
X128178307Y-57069190D01*
%TO.C,D49*%
X240894011Y-85468980D02*
X240894011Y-89478980D01*
X240894011Y-85468980D02*
X242894011Y-85468980D01*
X242894011Y-85468980D02*
X242894011Y-89478980D01*
%TO.C,SW23*%
X211571000Y-49100000D02*
X211571000Y-49800000D01*
X211571000Y-49100000D02*
X212571000Y-49100000D01*
X220575000Y-51250000D02*
X219575000Y-51250000D01*
X220575000Y-51250000D02*
X221375000Y-52050000D01*
X220575000Y-55900000D02*
X219575000Y-55900000D01*
X221375000Y-55100000D02*
X220575000Y-55900000D01*
X212625000Y-53750000D02*
G75*
G02*
X211825000Y-52950000I0J800000D01*
G01*
%TO.C,D36*%
X240894011Y-66418980D02*
X240894011Y-70428980D01*
X240894011Y-66418980D02*
X242894011Y-66418980D01*
X242894011Y-66418980D02*
X242894011Y-70428980D01*
%TO.C,D47*%
X202794011Y-85468980D02*
X202794011Y-89478980D01*
X202794011Y-85468980D02*
X204794011Y-85468980D01*
X204794011Y-85468980D02*
X204794011Y-89478980D01*
%TO.C,D35*%
X221844011Y-66418980D02*
X221844011Y-70428980D01*
X221844011Y-66418980D02*
X223844011Y-66418980D01*
X223844011Y-66418980D02*
X223844011Y-70428980D01*
%TO.C,R8*%
X131220000Y-49446359D02*
X131220000Y-49753641D01*
X131980000Y-49446359D02*
X131980000Y-49753641D01*
%TO.C,D8*%
X164694011Y-28318980D02*
X164694011Y-32328980D01*
X164694011Y-28318980D02*
X166694011Y-28318980D01*
X166694011Y-28318980D02*
X166694011Y-32328980D01*
%TO.C,SW28*%
X78221000Y-68150000D02*
X78221000Y-68850000D01*
X78221000Y-68150000D02*
X79221000Y-68150000D01*
X87225000Y-70300000D02*
X86225000Y-70300000D01*
X87225000Y-70300000D02*
X88025000Y-71100000D01*
X87225000Y-74950000D02*
X86225000Y-74950000D01*
X88025000Y-74150000D02*
X87225000Y-74950000D01*
X79275000Y-72800000D02*
G75*
G02*
X78475000Y-72000000I0J800000D01*
G01*
%TO.C,SW1*%
X26273200Y-21095654D02*
X27073200Y-20295654D01*
X27073200Y-20295654D02*
X28073200Y-20295654D01*
X27073200Y-24945654D02*
X26273200Y-24145654D01*
X27073200Y-24945654D02*
X28073200Y-24945654D01*
X36077200Y-27095654D02*
X35077200Y-27095654D01*
X36077200Y-27095654D02*
X36077200Y-26395654D01*
X35023200Y-22445654D02*
G75*
G02*
X35823200Y-23245654I0J-800000D01*
G01*
%TO.C,C14*%
X155998900Y-60492164D02*
X155998900Y-60707836D01*
X156718900Y-60492164D02*
X156718900Y-60707836D01*
%TO.C,SW43*%
X134850000Y-89350000D02*
X133850000Y-89350000D01*
X134850000Y-89350000D02*
X135650000Y-90150000D01*
X134850000Y-94000000D02*
X133850000Y-94000000D01*
X135650000Y-93200000D02*
X134850000Y-94000000D01*
X126900000Y-91850000D02*
G75*
G02*
X126100000Y-91050000I0J800000D01*
G01*
%TO.C,D9*%
X183744011Y-28318980D02*
X183744011Y-32328980D01*
X183744011Y-28318980D02*
X185744011Y-28318980D01*
X185744011Y-28318980D02*
X185744011Y-32328980D01*
%TO.C,D34*%
X202794011Y-66418980D02*
X202794011Y-70428980D01*
X202794011Y-66418980D02*
X204794011Y-66418980D01*
X204794011Y-66418980D02*
X204794011Y-70428980D01*
%TO.C,SW49*%
X230621000Y-87200000D02*
X230621000Y-87900000D01*
X230621000Y-87200000D02*
X231621000Y-87200000D01*
X239625000Y-89350000D02*
X238625000Y-89350000D01*
X239625000Y-89350000D02*
X240425000Y-90150000D01*
X239625000Y-94000000D02*
X238625000Y-94000000D01*
X240425000Y-93200000D02*
X239625000Y-94000000D01*
X231675000Y-91850000D02*
G75*
G02*
X230875000Y-91050000I0J800000D01*
G01*
%TO.C,SW16*%
X78221000Y-49100000D02*
X78221000Y-49800000D01*
X78221000Y-49100000D02*
X79221000Y-49100000D01*
X87225000Y-51250000D02*
X86225000Y-51250000D01*
X87225000Y-51250000D02*
X88025000Y-52050000D01*
X87225000Y-55900000D02*
X86225000Y-55900000D01*
X88025000Y-55100000D02*
X87225000Y-55900000D01*
X79275000Y-53750000D02*
G75*
G02*
X78475000Y-52950000I0J800000D01*
G01*
%TO.C,D48*%
X221844011Y-85468980D02*
X221844011Y-89478980D01*
X221844011Y-85468980D02*
X223844011Y-85468980D01*
X223844011Y-85468980D02*
X223844011Y-89478980D01*
%TO.C,D20*%
X164694011Y-47368980D02*
X164694011Y-51378980D01*
X164694011Y-47368980D02*
X166694011Y-47368980D01*
X166694011Y-47368980D02*
X166694011Y-51378980D01*
%TO.C,D11*%
X221844011Y-28318980D02*
X221844011Y-32328980D01*
X221844011Y-28318980D02*
X223844011Y-28318980D01*
X223844011Y-28318980D02*
X223844011Y-32328980D01*
%TO.C,D4*%
X88494011Y-28318980D02*
X88494011Y-32328980D01*
X88494011Y-28318980D02*
X90494011Y-28318980D01*
X90494011Y-28318980D02*
X90494011Y-32328980D01*
%TO.C,SW45*%
X154421000Y-87200000D02*
X154421000Y-87900000D01*
X154421000Y-87200000D02*
X155421000Y-87200000D01*
X163425000Y-89350000D02*
X162425000Y-89350000D01*
X163425000Y-89350000D02*
X164225000Y-90150000D01*
X163425000Y-94000000D02*
X162425000Y-94000000D01*
X164225000Y-93200000D02*
X163425000Y-94000000D01*
X155475000Y-91850000D02*
G75*
G02*
X154675000Y-91050000I0J800000D01*
G01*
%TO.C,SW42*%
X121525000Y-78250000D02*
X122325000Y-77450000D01*
X122325000Y-77450000D02*
X123325000Y-77450000D01*
X122325000Y-82100000D02*
X121525000Y-81300000D01*
X122325000Y-82100000D02*
X123325000Y-82100000D01*
X130275000Y-79600000D02*
G75*
G02*
X131075000Y-80400000I0J-800000D01*
G01*
%TO.C,SW46*%
X173471000Y-87200000D02*
X173471000Y-87900000D01*
X173471000Y-87200000D02*
X174471000Y-87200000D01*
X182475000Y-89350000D02*
X181475000Y-89350000D01*
X182475000Y-89350000D02*
X183275000Y-90150000D01*
X182475000Y-94000000D02*
X181475000Y-94000000D01*
X183275000Y-93200000D02*
X182475000Y-94000000D01*
X174525000Y-91850000D02*
G75*
G02*
X173725000Y-91050000I0J800000D01*
G01*
%TO.C,D28*%
X88494011Y-66418980D02*
X88494011Y-70428980D01*
X88494011Y-66418980D02*
X90494011Y-66418980D01*
X90494011Y-66418980D02*
X90494011Y-70428980D01*
%TO.C,D39*%
X69444011Y-85468980D02*
X69444011Y-89478980D01*
X69444011Y-85468980D02*
X71444011Y-85468980D01*
X71444011Y-85468980D02*
X71444011Y-89478980D01*
%TO.C,SW27*%
X59171000Y-68150000D02*
X59171000Y-68850000D01*
X59171000Y-68150000D02*
X60171000Y-68150000D01*
X68175000Y-70300000D02*
X67175000Y-70300000D01*
X68175000Y-70300000D02*
X68975000Y-71100000D01*
X68175000Y-74950000D02*
X67175000Y-74950000D01*
X68975000Y-74150000D02*
X68175000Y-74950000D01*
X60225000Y-72800000D02*
G75*
G02*
X59425000Y-72000000I0J800000D01*
G01*
%TO.C,F1*%
X130050500Y-31145936D02*
X130050500Y-32350064D01*
X131870500Y-31145936D02*
X131870500Y-32350064D01*
%TO.C,C6*%
X130159528Y-55379765D02*
X130007025Y-55227262D01*
X130668645Y-54870648D02*
X130516142Y-54718145D01*
%TO.C,D27*%
X69444011Y-66418980D02*
X69444011Y-70428980D01*
X69444011Y-66418980D02*
X71444011Y-66418980D01*
X71444011Y-66418980D02*
X71444011Y-70428980D01*
%TO.C,C11*%
X132292164Y-66240000D02*
X132507836Y-66240000D01*
X132292164Y-66960000D02*
X132507836Y-66960000D01*
%TO.C,SW30*%
X116321000Y-68150000D02*
X116321000Y-68850000D01*
X116321000Y-68150000D02*
X117321000Y-68150000D01*
X125325000Y-70300000D02*
X124325000Y-70300000D01*
X125325000Y-70300000D02*
X126125000Y-71100000D01*
X125325000Y-74950000D02*
X124325000Y-74950000D01*
X126125000Y-74150000D02*
X125325000Y-74950000D01*
X117375000Y-72800000D02*
G75*
G02*
X116575000Y-72000000I0J800000D01*
G01*
%TO.C,SW41*%
X97271000Y-87200000D02*
X97271000Y-87900000D01*
X97271000Y-87200000D02*
X98271000Y-87200000D01*
X106275000Y-89350000D02*
X105275000Y-89350000D01*
X106275000Y-89350000D02*
X107075000Y-90150000D01*
X106275000Y-94000000D02*
X105275000Y-94000000D01*
X107075000Y-93200000D02*
X106275000Y-94000000D01*
X98325000Y-91850000D02*
G75*
G02*
X97525000Y-91050000I0J800000D01*
G01*
%TO.C,R9*%
X124422659Y-62160060D02*
X124639940Y-62377341D01*
X124960060Y-61622659D02*
X125177341Y-61839940D01*
%TO.C,D30*%
X126594011Y-66418980D02*
X126594011Y-70428980D01*
X126594011Y-66418980D02*
X128594011Y-66418980D01*
X128594011Y-66418980D02*
X128594011Y-70428980D01*
%TO.C,SW26*%
X40121000Y-68150000D02*
X40121000Y-68850000D01*
X40121000Y-68150000D02*
X41121000Y-68150000D01*
X49125000Y-70300000D02*
X48125000Y-70300000D01*
X49125000Y-70300000D02*
X49925000Y-71100000D01*
X49125000Y-74950000D02*
X48125000Y-74950000D01*
X49925000Y-74150000D02*
X49125000Y-74950000D01*
X41175000Y-72800000D02*
G75*
G02*
X40375000Y-72000000I0J800000D01*
G01*
%TO.C,C13*%
X136869190Y-55421693D02*
X137021693Y-55269190D01*
X137378307Y-55930810D02*
X137530810Y-55778307D01*
%TO.C,D5*%
X107544011Y-28318980D02*
X107544011Y-32328980D01*
X107544011Y-28318980D02*
X109544011Y-28318980D01*
X109544011Y-28318980D02*
X109544011Y-32328980D01*
%TO.C,U2*%
X133341600Y-39657600D02*
X132541600Y-39657600D01*
X133341600Y-39657600D02*
X134141600Y-39657600D01*
X135441600Y-36537600D02*
X132541600Y-36537600D01*
X135441600Y-37147600D02*
X135441600Y-36537600D01*
%TO.C,D40*%
X88494011Y-85468980D02*
X88494011Y-89478980D01*
X88494011Y-85468980D02*
X90494011Y-85468980D01*
X90494011Y-85468980D02*
X90494011Y-89478980D01*
%TO.C,R2*%
X134549000Y-27625859D02*
X134549000Y-27933141D01*
X135309000Y-27625859D02*
X135309000Y-27933141D01*
%TO.C,D46*%
X183744011Y-85468980D02*
X183744011Y-89478980D01*
X183744011Y-85468980D02*
X185744011Y-85468980D01*
X185744011Y-85468980D02*
X185744011Y-89478980D01*
%TO.C,SW18*%
X116321000Y-49100000D02*
X116321000Y-49800000D01*
X116321000Y-49100000D02*
X117321000Y-49100000D01*
X125325000Y-51250000D02*
X124325000Y-51250000D01*
X125325000Y-51250000D02*
X126125000Y-52050000D01*
X125325000Y-55900000D02*
X124325000Y-55900000D01*
X126125000Y-55100000D02*
X125325000Y-55900000D01*
X117375000Y-53750000D02*
G75*
G02*
X116575000Y-52950000I0J800000D01*
G01*
%TO.C,D18*%
X126594011Y-47368980D02*
X126594011Y-51378980D01*
X126594011Y-47368980D02*
X128594011Y-47368980D01*
X128594011Y-47368980D02*
X128594011Y-51378980D01*
%TO.C,SW47*%
X192521000Y-87200000D02*
X192521000Y-87900000D01*
X192521000Y-87200000D02*
X193521000Y-87200000D01*
X201525000Y-89350000D02*
X200525000Y-89350000D01*
X201525000Y-89350000D02*
X202325000Y-90150000D01*
X201525000Y-94000000D02*
X200525000Y-94000000D01*
X202325000Y-93200000D02*
X201525000Y-94000000D01*
X193575000Y-91850000D02*
G75*
G02*
X192775000Y-91050000I0J800000D01*
G01*
%TO.C,D41*%
X107544011Y-85468980D02*
X107544011Y-89478980D01*
X107544011Y-85468980D02*
X109544011Y-85468980D01*
X109544011Y-85468980D02*
X109544011Y-89478980D01*
%TO.C,SW14*%
X40121000Y-49100000D02*
X40121000Y-49800000D01*
X40121000Y-49100000D02*
X41121000Y-49100000D01*
X49125000Y-51250000D02*
X48125000Y-51250000D01*
X49125000Y-51250000D02*
X49925000Y-52050000D01*
X49125000Y-55900000D02*
X48125000Y-55900000D01*
X49925000Y-55100000D02*
X49125000Y-55900000D01*
X41175000Y-53750000D02*
G75*
G02*
X40375000Y-52950000I0J800000D01*
G01*
%TO.C,SW3*%
X59171000Y-30050000D02*
X59171000Y-30750000D01*
X59171000Y-30050000D02*
X60171000Y-30050000D01*
X68175000Y-32200000D02*
X67175000Y-32200000D01*
X68175000Y-32200000D02*
X68975000Y-33000000D01*
X68175000Y-36850000D02*
X67175000Y-36850000D01*
X68975000Y-36050000D02*
X68175000Y-36850000D01*
X60225000Y-34700000D02*
G75*
G02*
X59425000Y-33900000I0J800000D01*
G01*
%TO.C,C16*%
X123821693Y-60269190D02*
X123669190Y-60421693D01*
X124330810Y-60778307D02*
X124178307Y-60930810D01*
%TO.C,C15*%
X122269190Y-61821693D02*
X122421693Y-61669190D01*
X122778307Y-62330810D02*
X122930810Y-62178307D01*
%TO.C,RST1*%
X92494000Y-77326300D02*
X92494000Y-79826300D01*
X92944000Y-76876300D02*
X92494000Y-77326300D01*
X92944000Y-80276300D02*
X92494000Y-79826300D01*
X94244000Y-75826300D02*
X96244000Y-75826300D01*
X94244000Y-81326300D02*
X96244000Y-81326300D01*
X97544000Y-76876300D02*
X97994000Y-77326300D01*
X97544000Y-80276300D02*
X97994000Y-79826300D01*
X97994000Y-77326300D02*
X97994000Y-79826300D01*
%TO.C,R1*%
X131374200Y-27625859D02*
X131374200Y-27933141D01*
X132134200Y-27625859D02*
X132134200Y-27933141D01*
%TO.C,U4*%
X149630400Y-57840000D02*
X149630400Y-63360000D01*
X149630400Y-63360000D02*
X149900400Y-63360000D01*
X149900400Y-57840000D02*
X149630400Y-57840000D01*
X154880400Y-63360000D02*
X155150400Y-63360000D01*
X155150400Y-57840000D02*
X154880400Y-57840000D01*
X155150400Y-63360000D02*
X155150400Y-57840000D01*
X155360400Y-64530000D02*
X154890400Y-64190000D01*
X155360400Y-63850000D01*
X155360400Y-64530000D01*
G36*
X155360400Y-64530000D02*
G01*
X154890400Y-64190000D01*
X155360400Y-63850000D01*
X155360400Y-64530000D01*
G37*
%TO.C,SW17*%
X97271000Y-49100000D02*
X97271000Y-49800000D01*
X97271000Y-49100000D02*
X98271000Y-49100000D01*
X106275000Y-51250000D02*
X105275000Y-51250000D01*
X106275000Y-51250000D02*
X107075000Y-52050000D01*
X106275000Y-55900000D02*
X105275000Y-55900000D01*
X107075000Y-55100000D02*
X106275000Y-55900000D01*
X98325000Y-53750000D02*
G75*
G02*
X97525000Y-52950000I0J800000D01*
G01*
%TO.C,R5*%
X167046359Y-78196300D02*
X167353641Y-78196300D01*
X167046359Y-78956300D02*
X167353641Y-78956300D01*
%TO.C,D43*%
X135842283Y-86837179D02*
X137256497Y-85422965D01*
X135842283Y-86837179D02*
X138677781Y-89672677D01*
X137256497Y-85422965D02*
X140091995Y-88258463D01*
%TO.C,U3*%
X127294689Y-60600000D02*
X127754308Y-61059619D01*
X127754308Y-60140381D02*
X127294689Y-60600000D01*
X131940381Y-65245692D02*
X132400000Y-65705311D01*
X132400000Y-55494689D02*
X131940381Y-55954308D01*
X132400000Y-65705311D02*
X132859619Y-65245692D01*
X132859619Y-55954308D02*
X132400000Y-55494689D01*
X137045692Y-61059619D02*
X137505311Y-60600000D01*
X137505311Y-60600000D02*
X137045692Y-60140381D01*
X137568951Y-61752584D02*
X137229539Y-62091995D01*
X137165900Y-61688944D01*
X137568951Y-61752584D01*
G36*
X137568951Y-61752584D02*
G01*
X137229539Y-62091995D01*
X137165900Y-61688944D01*
X137568951Y-61752584D01*
G37*
%TO.C,SW31*%
X135371000Y-68150000D02*
X135371000Y-68850000D01*
X135371000Y-68150000D02*
X136371000Y-68150000D01*
X144375000Y-70300000D02*
X143375000Y-70300000D01*
X144375000Y-70300000D02*
X145175000Y-71100000D01*
X144375000Y-74950000D02*
X143375000Y-74950000D01*
X145175000Y-74150000D02*
X144375000Y-74950000D01*
X136425000Y-72800000D02*
G75*
G02*
X135625000Y-72000000I0J800000D01*
G01*
%TO.C,SW39*%
X59171000Y-87200000D02*
X59171000Y-87900000D01*
X59171000Y-87200000D02*
X60171000Y-87200000D01*
X68175000Y-89350000D02*
X67175000Y-89350000D01*
X68175000Y-89350000D02*
X68975000Y-90150000D01*
X68175000Y-94000000D02*
X67175000Y-94000000D01*
X68975000Y-93200000D02*
X68175000Y-94000000D01*
X60225000Y-91850000D02*
G75*
G02*
X59425000Y-91050000I0J800000D01*
G01*
%TO.C,SW38*%
X40121000Y-87200000D02*
X40121000Y-87900000D01*
X40121000Y-87200000D02*
X41121000Y-87200000D01*
X49125000Y-89350000D02*
X48125000Y-89350000D01*
X49125000Y-89350000D02*
X49925000Y-90150000D01*
X49125000Y-94000000D02*
X48125000Y-94000000D01*
X49925000Y-93200000D02*
X49125000Y-94000000D01*
X41175000Y-91850000D02*
G75*
G02*
X40375000Y-91050000I0J800000D01*
G01*
%TO.C,SW33*%
X173471000Y-68150000D02*
X173471000Y-68850000D01*
X173471000Y-68150000D02*
X174471000Y-68150000D01*
X182475000Y-70300000D02*
X181475000Y-70300000D01*
X182475000Y-70300000D02*
X183275000Y-71100000D01*
X182475000Y-74950000D02*
X181475000Y-74950000D01*
X183275000Y-74150000D02*
X182475000Y-74950000D01*
X174525000Y-72800000D02*
G75*
G02*
X173725000Y-72000000I0J800000D01*
G01*
%TO.C,Y1*%
X121447487Y-57334207D02*
X123865793Y-59752513D01*
X123865793Y-59752513D02*
X120952513Y-62665793D01*
%TO.C,R4*%
X98620000Y-78446359D02*
X98620000Y-78753641D01*
X99380000Y-78446359D02*
X99380000Y-78753641D01*
%TO.C,SW7*%
X135371000Y-30050000D02*
X135371000Y-30750000D01*
X135371000Y-30050000D02*
X136371000Y-30050000D01*
X144375000Y-32200000D02*
X143375000Y-32200000D01*
X144375000Y-32200000D02*
X145175000Y-33000000D01*
X144375000Y-36850000D02*
X143375000Y-36850000D01*
X145175000Y-36050000D02*
X144375000Y-36850000D01*
X136425000Y-34700000D02*
G75*
G02*
X135625000Y-33900000I0J800000D01*
G01*
%TO.C,C3*%
X128719980Y-43290000D02*
X128438820Y-43290000D01*
X128719980Y-44310000D02*
X128438820Y-44310000D01*
%TO.C,C1*%
X129953266Y-36812715D02*
X129737594Y-36812715D01*
X129953266Y-37532715D02*
X129737594Y-37532715D01*
%TO.C,D23*%
X221844011Y-47368980D02*
X221844011Y-51378980D01*
X221844011Y-47368980D02*
X223844011Y-47368980D01*
X223844011Y-47368980D02*
X223844011Y-51378980D01*
%TO.C,D25*%
X23805886Y-66922577D02*
X23805886Y-62912577D01*
X25805886Y-66922577D02*
X23805886Y-66922577D01*
X25805886Y-66922577D02*
X25805886Y-62912577D01*
%TO.C,J1*%
X128641600Y-23329900D02*
X128641600Y-21329900D01*
X138041600Y-23329900D02*
X138041600Y-21329900D01*
%TO.C,D29*%
X107544011Y-66418980D02*
X107544011Y-70428980D01*
X107544011Y-66418980D02*
X109544011Y-66418980D01*
X109544011Y-66418980D02*
X109544011Y-70428980D01*
%TO.C,D31*%
X145644011Y-66418980D02*
X145644011Y-70428980D01*
X145644011Y-66418980D02*
X147644011Y-66418980D01*
X147644011Y-66418980D02*
X147644011Y-70428980D01*
%TO.C,D15*%
X69444011Y-47368980D02*
X69444011Y-51378980D01*
X69444011Y-47368980D02*
X71444011Y-47368980D01*
X71444011Y-47368980D02*
X71444011Y-51378980D01*
%TO.C,SW20*%
X154421000Y-49100000D02*
X154421000Y-49800000D01*
X154421000Y-49100000D02*
X155421000Y-49100000D01*
X163425000Y-51250000D02*
X162425000Y-51250000D01*
X163425000Y-51250000D02*
X164225000Y-52050000D01*
X163425000Y-55900000D02*
X162425000Y-55900000D01*
X164225000Y-55100000D02*
X163425000Y-55900000D01*
X155475000Y-53750000D02*
G75*
G02*
X154675000Y-52950000I0J800000D01*
G01*
%TO.C,D21*%
X183744011Y-47368980D02*
X183744011Y-51378980D01*
X183744011Y-47368980D02*
X185744011Y-47368980D01*
X185744011Y-47368980D02*
X185744011Y-51378980D01*
%TO.C,SW4*%
X78221000Y-30050000D02*
X78221000Y-30750000D01*
X78221000Y-30050000D02*
X79221000Y-30050000D01*
X87225000Y-32200000D02*
X86225000Y-32200000D01*
X87225000Y-32200000D02*
X88025000Y-33000000D01*
X87225000Y-36850000D02*
X86225000Y-36850000D01*
X88025000Y-36050000D02*
X87225000Y-36850000D01*
X79275000Y-34700000D02*
G75*
G02*
X78475000Y-33900000I0J800000D01*
G01*
%TO.C,D7*%
X145644011Y-28318980D02*
X145644011Y-32328980D01*
X145644011Y-28318980D02*
X147644011Y-28318980D01*
X147644011Y-28318980D02*
X147644011Y-32328980D01*
%TO.C,SW19*%
X135371000Y-49100000D02*
X135371000Y-49800000D01*
X135371000Y-49100000D02*
X136371000Y-49100000D01*
X144375000Y-51250000D02*
X143375000Y-51250000D01*
X144375000Y-51250000D02*
X145175000Y-52050000D01*
X144375000Y-55900000D02*
X143375000Y-55900000D01*
X145175000Y-55100000D02*
X144375000Y-55900000D01*
X136425000Y-53750000D02*
G75*
G02*
X135625000Y-52950000I0J800000D01*
G01*
%TO.C,SW5*%
X97271000Y-30050000D02*
X97271000Y-30750000D01*
X97271000Y-30050000D02*
X98271000Y-30050000D01*
X106275000Y-32200000D02*
X105275000Y-32200000D01*
X106275000Y-32200000D02*
X107075000Y-33000000D01*
X106275000Y-36850000D02*
X105275000Y-36850000D01*
X107075000Y-36050000D02*
X106275000Y-36850000D01*
X98325000Y-34700000D02*
G75*
G02*
X97525000Y-33900000I0J800000D01*
G01*
%TO.C,D42*%
X119055989Y-85981020D02*
X119055989Y-81971020D01*
X121055989Y-85981020D02*
X119055989Y-85981020D01*
X121055989Y-85981020D02*
X121055989Y-81971020D01*
%TO.C,SW44*%
X140575000Y-78250000D02*
X141375000Y-77450000D01*
X141375000Y-77450000D02*
X142375000Y-77450000D01*
X141375000Y-82100000D02*
X140575000Y-81300000D01*
X141375000Y-82100000D02*
X142375000Y-82100000D01*
X150379000Y-84250000D02*
X149379000Y-84250000D01*
X150379000Y-84250000D02*
X150379000Y-83550000D01*
X149325000Y-79600000D02*
G75*
G02*
X150125000Y-80400000I0J-800000D01*
G01*
%TO.C,C5*%
X130866635Y-54672658D02*
X130714132Y-54520155D01*
X131375752Y-54163541D02*
X131223249Y-54011038D01*
%TO.C,D38*%
X50394011Y-85468980D02*
X50394011Y-89478980D01*
X50394011Y-85468980D02*
X52394011Y-85468980D01*
X52394011Y-85468980D02*
X52394011Y-89478980D01*
%TO.C,D10*%
X202794011Y-28318980D02*
X202794011Y-32328980D01*
X202794011Y-28318980D02*
X204794011Y-28318980D01*
X204794011Y-28318980D02*
X204794011Y-32328980D01*
%TO.C,SW25*%
X26274897Y-59191557D02*
X27074897Y-58391557D01*
X27074897Y-58391557D02*
X28074897Y-58391557D01*
X27074897Y-63041557D02*
X26274897Y-62241557D01*
X27074897Y-63041557D02*
X28074897Y-63041557D01*
X36078897Y-65191557D02*
X35078897Y-65191557D01*
X36078897Y-65191557D02*
X36078897Y-64491557D01*
X35024897Y-60541557D02*
G75*
G02*
X35824897Y-61341557I0J-800000D01*
G01*
%TO.C,C12*%
X136162083Y-54714587D02*
X136314586Y-54562084D01*
X136671200Y-55223704D02*
X136823703Y-55071201D01*
%TO.C,SW10*%
X192521000Y-30050000D02*
X192521000Y-30750000D01*
X192521000Y-30050000D02*
X193521000Y-30050000D01*
X201525000Y-32200000D02*
X200525000Y-32200000D01*
X201525000Y-32200000D02*
X202325000Y-33000000D01*
X201525000Y-36850000D02*
X200525000Y-36850000D01*
X202325000Y-36050000D02*
X201525000Y-36850000D01*
X193575000Y-34700000D02*
G75*
G02*
X192775000Y-33900000I0J800000D01*
G01*
%TO.C,D14*%
X50394011Y-47368980D02*
X50394011Y-51378980D01*
X50394011Y-47368980D02*
X52394011Y-47368980D01*
X52394011Y-47368980D02*
X52394011Y-51378980D01*
%TO.C,SW2*%
X40121000Y-30050000D02*
X40121000Y-30750000D01*
X40121000Y-30050000D02*
X41121000Y-30050000D01*
X49125000Y-32200000D02*
X48125000Y-32200000D01*
X49125000Y-32200000D02*
X49925000Y-33000000D01*
X49125000Y-36850000D02*
X48125000Y-36850000D01*
X49925000Y-36050000D02*
X49125000Y-36850000D01*
X41175000Y-34700000D02*
G75*
G02*
X40375000Y-33900000I0J800000D01*
G01*
%TO.C,R6*%
X167353640Y-77196301D02*
X167046358Y-77196301D01*
X167353640Y-77956301D02*
X167046358Y-77956301D01*
%TD*%
M02*
