%TF.GenerationSoftware,KiCad,Pcbnew,9.0.7*%
%TF.CreationDate,2026-03-14T00:10:16+02:00*%
%TF.ProjectId,koiboard2,6b6f6962-6f61-4726-9432-2e6b69636164,rev?*%
%TF.SameCoordinates,Original*%
%TF.FileFunction,Soldermask,Top*%
%TF.FilePolarity,Negative*%
%FSLAX46Y46*%
G04 Gerber Fmt 4.6, Leading zero omitted, Abs format (unit mm)*
G04 Created by KiCad (PCBNEW 9.0.7) date 2026-03-14 00:10:16*
%MOMM*%
%LPD*%
G01*
G04 APERTURE LIST*
%ADD10C,3.200000*%
%ADD11C,5.000000*%
%ADD12C,0.650000*%
%ADD13O,1.000000X1.600000*%
%ADD14O,1.000000X2.100000*%
G04 APERTURE END LIST*
D10*
%TO.C,H1*%
X38097600Y-38097600D03*
%TD*%
%TO.C,H6*%
X171439200Y-57146400D03*
%TD*%
%TO.C,H3*%
X38097600Y-76195200D03*
%TD*%
%TO.C,H4*%
X228585600Y-76195200D03*
%TD*%
%TO.C,H2*%
X228585600Y-38097600D03*
%TD*%
%TO.C,H5*%
X95244000Y-57146400D03*
%TD*%
D11*
%TO.C,SW29*%
X104775000Y-66675000D03*
%TD*%
%TO.C,SW12*%
X238125000Y-28575000D03*
%TD*%
%TO.C,SW48*%
X219075000Y-85725000D03*
%TD*%
%TO.C,SW13*%
X28574049Y-47618606D03*
%TD*%
%TO.C,SW6*%
X123825000Y-28575000D03*
%TD*%
%TO.C,SW32*%
X161925000Y-66675000D03*
%TD*%
%TO.C,SW36*%
X238125000Y-66675000D03*
%TD*%
%TO.C,SW21*%
X180975000Y-47625000D03*
%TD*%
%TO.C,SW8*%
X161925000Y-28575000D03*
%TD*%
%TO.C,SW22*%
X200025000Y-47625000D03*
%TD*%
%TO.C,SW40*%
X85725000Y-85725000D03*
%TD*%
%TO.C,SW11*%
X219075000Y-28575000D03*
%TD*%
%TO.C,SW34*%
X200025000Y-66675000D03*
%TD*%
%TO.C,SW15*%
X66675000Y-47625000D03*
%TD*%
%TO.C,SW24*%
X238125000Y-47625000D03*
%TD*%
%TO.C,SW9*%
X180975000Y-28575000D03*
%TD*%
%TO.C,SW35*%
X219075000Y-66675000D03*
%TD*%
%TO.C,SW37*%
X28575746Y-85714509D03*
%TD*%
%TO.C,SW23*%
X219075000Y-47625000D03*
%TD*%
%TO.C,SW28*%
X85725000Y-66675000D03*
%TD*%
%TO.C,SW1*%
X28573200Y-28570654D03*
%TD*%
%TO.C,SW43*%
X133350000Y-85725000D03*
%TD*%
%TO.C,SW49*%
X238125000Y-85725000D03*
%TD*%
%TO.C,SW16*%
X85725000Y-47625000D03*
%TD*%
%TO.C,SW45*%
X161925000Y-85725000D03*
%TD*%
%TO.C,SW42*%
X123825000Y-85725000D03*
%TD*%
%TO.C,SW46*%
X180975000Y-85725000D03*
%TD*%
%TO.C,SW27*%
X66675000Y-66675000D03*
%TD*%
%TO.C,SW30*%
X123825000Y-66675000D03*
%TD*%
%TO.C,SW41*%
X104775000Y-85725000D03*
%TD*%
%TO.C,SW26*%
X47625000Y-66675000D03*
%TD*%
%TO.C,SW18*%
X123825000Y-47625000D03*
%TD*%
%TO.C,SW47*%
X200025000Y-85725000D03*
%TD*%
%TO.C,SW14*%
X47625000Y-47625000D03*
%TD*%
%TO.C,SW3*%
X66675000Y-28575000D03*
%TD*%
%TO.C,SW17*%
X104775000Y-47625000D03*
%TD*%
%TO.C,SW31*%
X142875000Y-66675000D03*
%TD*%
%TO.C,SW39*%
X66675000Y-85725000D03*
%TD*%
%TO.C,SW38*%
X47625000Y-85725000D03*
%TD*%
%TO.C,SW33*%
X180975000Y-66675000D03*
%TD*%
%TO.C,SW7*%
X142875000Y-28575000D03*
%TD*%
D12*
%TO.C,J1*%
X130451600Y-24029900D03*
X136231600Y-24029900D03*
D13*
X129021600Y-20379900D03*
D14*
X129021600Y-24559900D03*
D13*
X137661600Y-20379900D03*
D14*
X137661600Y-24559900D03*
%TD*%
D11*
%TO.C,SW20*%
X161925000Y-47625000D03*
%TD*%
%TO.C,SW4*%
X85725000Y-28575000D03*
%TD*%
%TO.C,SW19*%
X142875000Y-47625000D03*
%TD*%
%TO.C,SW5*%
X104775000Y-28575000D03*
%TD*%
%TO.C,SW44*%
X142875000Y-85725000D03*
%TD*%
%TO.C,SW25*%
X28574897Y-66666557D03*
%TD*%
%TO.C,SW10*%
X200025000Y-28575000D03*
%TD*%
%TO.C,SW2*%
X47625000Y-28575000D03*
%TD*%
M02*
