M48
; DRILL file {KiCad 9.0.7} date 2026-03-14T00:10:04+0200
; FORMAT={-:-/ absolute / metric / decimal}
; #@! TF.CreationDate,2026-03-14T00:10:04+02:00
; #@! TF.GenerationSoftware,Kicad,Pcbnew,9.0.7
; #@! TF.FileFunction,Plated,1,4,PTH
FMAT,2
METRIC
; #@! TA.AperFunction,Plated,PTH,ViaDrill
T1C0.300
; #@! TA.AperFunction,Plated,PTH,ComponentDrill
T2C0.600
; #@! TA.AperFunction,Plated,PTH,ComponentDrill
T3C3.000
%
G90
G05
T1
X25.398Y-26.986
X25.398Y-46.035
X25.398Y-65.083
X25.398Y-84.132
X35.6Y-60.6
X44.6Y-61.4
X50.797Y-26.986
X50.797Y-46.035
X50.797Y-65.083
X50.797Y-84.132
X52.384Y-26.986
X52.384Y-46.035
X52.384Y-65.083
X52.384Y-84.132
X63.6Y-60.4
X69.846Y-26.986
X69.846Y-46.035
X69.846Y-65.083
X69.846Y-84.132
X71.433Y-26.986
X71.433Y-46.035
X71.433Y-65.083
X71.433Y-84.132
X83.0Y-78.0
X88.894Y-26.986
X88.894Y-46.035
X88.894Y-65.083
X88.894Y-84.132
X90.482Y-26.986
X90.482Y-46.035
X90.482Y-65.083
X90.482Y-84.132
X99.0Y-80.0
X100.6Y-60.6
X100.6Y-61.6
X100.6Y-62.6
X101.2Y-63.8
X102.387Y-69.052
X102.387Y-76.989
X104.6Y-79.2
X107.943Y-26.986
X107.943Y-46.035
X107.943Y-65.083
X107.943Y-84.132
X108.6Y-68.6
X109.531Y-26.986
X109.531Y-46.035
X109.531Y-65.083
X112.0Y-65.8
X112.0Y-77.4
X112.2Y-61.2
X112.2Y-64.4
X113.0Y-61.2
X117.468Y-53.178
X117.468Y-64.29
X118.0Y-55.2
X118.0Y-56.2
X118.0Y-60.4
X118.4Y-59.6
X118.6Y-61.0
X119.0Y-59.0
X119.2Y-61.6
X119.6Y-58.4
X119.6Y-75.0
X119.8Y-62.2
X120.2Y-57.8
X120.4Y-62.8
X120.642Y-84.132
X120.8Y-54.4
X120.8Y-57.2
X120.8Y-76.2
X121.2Y-71.8
X121.4Y-63.0
X121.6Y-56.8
X122.05Y-63.482
X122.2Y-57.4
X122.8Y-58.0
X122.8Y-63.2
X123.4Y-58.6
X123.4Y-62.6
X124.0Y-59.2
X124.0Y-63.2
X124.8Y-59.4
X125.1Y-60.9
X125.4Y-57.6
X125.4Y-60.0
X125.8Y-61.6
X126.0Y-57.0
X126.2Y-38.8
X126.2Y-40.6
X126.2Y-64.8
X126.6Y-63.0
X126.992Y-26.986
X126.992Y-46.035
X126.992Y-68.258
X127.0Y-64.8
X127.2Y-56.8
X127.8Y-60.6
X127.8Y-64.8
X128.579Y-26.986
X128.579Y-46.035
X128.579Y-68.258
X128.6Y-64.8
X129.0Y-70.6
X129.042Y-60.619
X129.4Y-64.8
X130.4Y-43.8
X130.8Y-60.6
X131.0Y-66.6
X132.4Y-56.0
X132.4Y-59.0
X132.4Y-60.6
X132.4Y-62.2
X132.4Y-65.2
X133.294Y-58.499
X133.8Y-55.8
X134.0Y-60.6
X135.4Y-57.4
X135.723Y-88.101
X136.01Y-56.074
X136.8Y-62.6
X137.0Y-60.6
X137.218Y-66.297
X137.8Y-61.4
X137.8Y-64.2
X138.071Y-66.232
X138.4Y-65.4
X139.0Y-64.8
X139.2Y-63.2
X139.691Y-34.129
X139.691Y-44.447
X139.691Y-53.178
X139.691Y-67.465
X139.8Y-66.6
X140.485Y-83.338
X146.041Y-26.986
X146.041Y-46.035
X146.041Y-68.258
X147.628Y-26.986
X147.628Y-46.035
X147.628Y-68.258
X148.6Y-28.0
X148.6Y-47.0
X154.2Y-66.2
X155.565Y-57.146
X155.565Y-66.671
X158.0Y-60.2
X158.0Y-61.2
X158.0Y-62.2
X158.0Y-63.2
X158.74Y-53.178
X165.09Y-26.986
X165.09Y-46.035
X165.09Y-65.083
X165.09Y-84.132
X165.8Y-79.6
X166.677Y-26.986
X166.677Y-46.035
X166.677Y-65.083
X166.677Y-84.132
X175.2Y-60.2
X175.2Y-61.2
X175.2Y-62.2
X184.138Y-26.986
X184.138Y-46.035
X184.138Y-65.083
X184.138Y-84.132
X185.726Y-26.986
X185.726Y-46.035
X185.726Y-65.083
X185.726Y-84.132
X194.0Y-62.2
X203.187Y-26.986
X203.187Y-46.035
X203.187Y-65.083
X203.187Y-84.132
X204.775Y-26.986
X204.775Y-46.035
X204.775Y-65.083
X204.775Y-84.132
X213.0Y-61.2
X222.236Y-26.986
X222.236Y-46.035
X222.236Y-65.083
X222.236Y-84.132
X223.823Y-26.986
X223.823Y-46.035
X223.823Y-65.083
X223.823Y-84.132
X231.8Y-60.2
X241.285Y-26.986
X241.285Y-46.035
X241.285Y-65.083
X241.285Y-84.132
T3
X28.573Y-22.621
X28.574Y-41.669
X28.575Y-60.717
X28.576Y-79.765
X33.573Y-24.821
X33.574Y-43.869
X33.575Y-62.917
X33.576Y-81.965
X42.625Y-32.325
X42.625Y-51.375
X42.625Y-70.425
X42.625Y-89.475
X47.625Y-34.525
X47.625Y-53.575
X47.625Y-72.625
X47.625Y-91.675
X61.675Y-32.325
X61.675Y-51.375
X61.675Y-70.425
X61.675Y-89.475
X66.675Y-34.525
X66.675Y-53.575
X66.675Y-72.625
X66.675Y-91.675
X80.725Y-32.325
X80.725Y-51.375
X80.725Y-70.425
X80.725Y-89.475
X85.725Y-34.525
X85.725Y-53.575
X85.725Y-72.625
X85.725Y-91.675
X99.775Y-32.325
X99.775Y-51.375
X99.775Y-70.425
X99.775Y-89.475
X104.775Y-34.525
X104.775Y-53.575
X104.775Y-72.625
X104.775Y-91.675
X118.825Y-32.325
X118.825Y-51.375
X118.825Y-70.425
X123.825Y-34.525
X123.825Y-53.575
X123.825Y-72.625
X123.825Y-79.775
X128.35Y-89.475
X128.825Y-81.975
X133.35Y-91.675
X137.875Y-32.325
X137.875Y-51.375
X137.875Y-70.425
X142.875Y-34.525
X142.875Y-53.575
X142.875Y-72.625
X142.875Y-79.775
X147.875Y-81.975
X156.925Y-32.325
X156.925Y-51.375
X156.925Y-70.425
X156.925Y-89.475
X161.925Y-34.525
X161.925Y-53.575
X161.925Y-72.625
X161.925Y-91.675
X175.975Y-32.325
X175.975Y-51.375
X175.975Y-70.425
X175.975Y-89.475
X180.975Y-34.525
X180.975Y-53.575
X180.975Y-72.625
X180.975Y-91.675
X195.025Y-32.325
X195.025Y-51.375
X195.025Y-70.425
X195.025Y-89.475
X200.025Y-34.525
X200.025Y-53.575
X200.025Y-72.625
X200.025Y-91.675
X214.075Y-32.325
X214.075Y-51.375
X214.075Y-70.425
X214.075Y-89.475
X219.075Y-34.525
X219.075Y-53.575
X219.075Y-72.625
X219.075Y-91.675
X233.125Y-32.325
X233.125Y-51.375
X233.125Y-70.425
X233.125Y-89.475
X238.125Y-34.525
X238.125Y-53.575
X238.125Y-72.625
X238.125Y-91.675
T2
G00X129.022Y-20.08
M15
G01X129.022Y-20.68
M16
G05
G00X129.022Y-24.01
M15
G01X129.022Y-25.11
M16
G05
G00X137.662Y-20.08
M15
G01X137.662Y-20.68
M16
G05
G00X137.662Y-24.01
M15
G01X137.662Y-25.11
M16
G05
M30
