M48
; DRILL file {KiCad 9.0.7} date 2026-03-13T22:37:08+0200
; FORMAT={-:-/ absolute / metric / decimal}
; #@! TF.CreationDate,2026-03-13T22:37:08+02:00
; #@! TF.GenerationSoftware,Kicad,Pcbnew,9.0.7
; #@! TF.FileFunction,NonPlated,1,4,NPTH
FMAT,2
METRIC
; #@! TA.AperFunction,NonPlated,NPTH,ComponentDrill
T1C0.650
; #@! TA.AperFunction,NonPlated,NPTH,ComponentDrill
T2C3.200
; #@! TA.AperFunction,NonPlated,NPTH,ComponentDrill
T3C5.000
%
G90
G05
T1
X130.452Y-24.03
X136.232Y-24.03
T2
X38.098Y-38.098
X38.098Y-76.195
X95.244Y-57.146
X171.439Y-57.146
X228.586Y-38.098
X228.586Y-76.195
T3
X28.573Y-28.571
X28.574Y-47.619
X28.575Y-66.667
X28.576Y-85.715
X47.625Y-28.575
X47.625Y-47.625
X47.625Y-66.675
X47.625Y-85.725
X66.675Y-28.575
X66.675Y-47.625
X66.675Y-66.675
X66.675Y-85.725
X85.725Y-28.575
X85.725Y-47.625
X85.725Y-66.675
X85.725Y-85.725
X104.775Y-28.575
X104.775Y-47.625
X104.775Y-66.675
X104.775Y-85.725
X123.825Y-28.575
X123.825Y-47.625
X123.825Y-66.675
X123.825Y-85.725
X133.35Y-85.725
X142.875Y-28.575
X142.875Y-47.625
X142.875Y-66.675
X142.875Y-85.725
X161.925Y-28.575
X161.925Y-47.625
X161.925Y-66.675
X161.925Y-85.725
X180.975Y-28.575
X180.975Y-47.625
X180.975Y-66.675
X180.975Y-85.725
X200.025Y-28.575
X200.025Y-47.625
X200.025Y-66.675
X200.025Y-85.725
X219.075Y-28.575
X219.075Y-47.625
X219.075Y-66.675
X219.075Y-85.725
X238.125Y-28.575
X238.125Y-47.625
X238.125Y-66.675
X238.125Y-85.725
M30
