%TF.GenerationSoftware,KiCad,Pcbnew,9.0.7*%
%TF.CreationDate,2026-02-03T22:38:24+02:00*%
%TF.ProjectId,keyboard,6b657962-6f61-4726-942e-6b696361645f,rev?*%
%TF.SameCoordinates,Original*%
%TF.FileFunction,Profile,NP*%
%FSLAX46Y46*%
G04 Gerber Fmt 4.6, Leading zero omitted, Abs format (unit mm)*
G04 Created by KiCad (PCBNEW 9.0.7) date 2026-02-03 22:38:24*
%MOMM*%
%LPD*%
G01*
G04 APERTURE LIST*
%TA.AperFunction,Profile*%
%ADD10C,0.050000*%
%TD*%
G04 APERTURE END LIST*
D10*
X243840700Y-94450300D02*
X22842500Y-94450300D01*
X19842500Y-91450300D02*
X19842500Y-22842500D01*
X139691200Y-19842500D02*
X243840700Y-19842500D01*
X128579400Y-19048800D02*
X126992000Y-19842500D01*
X243840700Y-19842500D02*
G75*
G02*
X246840700Y-22842500I0J-3000000D01*
G01*
X138103800Y-19048800D02*
X128579400Y-19048800D01*
X139691200Y-19842500D02*
X138103800Y-19048800D01*
X22842500Y-94450300D02*
G75*
G02*
X19842500Y-91450300I0J3000000D01*
G01*
X126992000Y-19842500D02*
X22842500Y-19842500D01*
X246840700Y-22842500D02*
X246840700Y-91450300D01*
X19842500Y-22842500D02*
G75*
G02*
X22842500Y-19842500I3000000J0D01*
G01*
X246840700Y-91450300D02*
G75*
G02*
X243840700Y-94450300I-3000000J0D01*
G01*
%TO.C,S1*%
X148500000Y-88275000D02*
G75*
G02*
X148000000Y-88775000I-500000J0D01*
G01*
X118200000Y-88275000D02*
X118200000Y-82425000D01*
X118700000Y-81925000D02*
X119050000Y-81925000D01*
X118700000Y-88775000D02*
X124000000Y-88775000D01*
X119550000Y-81425000D02*
X119550000Y-77775000D01*
X120050000Y-77275000D02*
X122650000Y-77275000D01*
X123150000Y-81425000D02*
X123150000Y-77775000D01*
X124000000Y-81925000D02*
X123650000Y-81925000D01*
X124500000Y-88275000D02*
X124500000Y-82425000D01*
X142200000Y-88275000D02*
X142200000Y-82425000D01*
X142700000Y-81925000D02*
X143050000Y-81925000D01*
X143550000Y-81425000D02*
X143550000Y-77775000D01*
X146650000Y-77275000D02*
X144050000Y-77275000D01*
X147150000Y-81425000D02*
X147150000Y-77775000D01*
X148000000Y-81925000D02*
X147650000Y-81925000D01*
X148000000Y-88775000D02*
X142700000Y-88775000D01*
X148500000Y-88275000D02*
X148500000Y-82425000D01*
X118200000Y-82425000D02*
G75*
G02*
X118700000Y-81925000I500001J-1D01*
G01*
X118700000Y-88775000D02*
G75*
G02*
X118200000Y-88275000I1J500001D01*
G01*
X119550000Y-77775000D02*
G75*
G02*
X120050000Y-77275000I500001J-1D01*
G01*
X119550000Y-81425000D02*
G75*
G02*
X119050000Y-81925000I-500001J1D01*
G01*
X122650000Y-77275000D02*
G75*
G02*
X123150000Y-77775000I-1J-500001D01*
G01*
X123650000Y-81925000D02*
G75*
G02*
X123150000Y-81425000I1J500001D01*
G01*
X124000000Y-81925000D02*
G75*
G02*
X124500000Y-82425000I-1J-500001D01*
G01*
X124500000Y-88275000D02*
G75*
G02*
X124000000Y-88775000I-500001J1D01*
G01*
X142200000Y-82425000D02*
G75*
G02*
X142700000Y-81925000I500000J0D01*
G01*
X142700000Y-88775000D02*
G75*
G02*
X142200000Y-88275000I0J500000D01*
G01*
X143550000Y-77775000D02*
G75*
G02*
X144050000Y-77275000I500000J0D01*
G01*
X143550000Y-81425000D02*
G75*
G02*
X143050000Y-81925000I-500000J0D01*
G01*
X146650000Y-77275000D02*
G75*
G02*
X147150000Y-77775000I0J-500000D01*
G01*
X147650000Y-81925000D02*
G75*
G02*
X147150000Y-81425000I0J500000D01*
G01*
X148000000Y-81925000D02*
G75*
G02*
X148500000Y-82425000I0J-500000D01*
G01*
%TD*%
M02*
