%TF.GenerationSoftware,KiCad,Pcbnew,9.0.7*%
%TF.CreationDate,2026-02-03T22:38:24+02:00*%
%TF.ProjectId,keyboard,6b657962-6f61-4726-942e-6b696361645f,rev?*%
%TF.SameCoordinates,Original*%
%TF.FileFunction,Soldermask,Top*%
%TF.FilePolarity,Negative*%
%FSLAX46Y46*%
G04 Gerber Fmt 4.6, Leading zero omitted, Abs format (unit mm)*
G04 Created by KiCad (PCBNEW 9.0.7) date 2026-02-03 22:38:24*
%MOMM*%
%LPD*%
G01*
G04 APERTURE LIST*
%ADD10C,0.650000*%
%ADD11O,1.000000X2.100000*%
%ADD12O,1.000000X1.600000*%
%ADD13C,1.700000*%
%ADD14C,3.400000*%
%ADD15R,1.700000X1.700000*%
G04 APERTURE END LIST*
D10*
%TO.C,J2*%
X130451600Y-24029900D03*
X136231600Y-24029900D03*
D11*
X129021600Y-24559900D03*
D12*
X129021600Y-20379900D03*
D11*
X137661600Y-24559900D03*
D12*
X137661600Y-20379900D03*
%TD*%
D13*
%TO.C,SW29*%
X110275000Y-66675000D03*
D14*
X104775000Y-66675000D03*
D13*
X99275000Y-66675000D03*
%TD*%
%TO.C,SW12*%
X243625000Y-28575000D03*
D14*
X238125000Y-28575000D03*
D13*
X232625000Y-28575000D03*
%TD*%
%TO.C,SW46*%
X224575000Y-85725000D03*
D14*
X219075000Y-85725000D03*
D13*
X213575000Y-85725000D03*
%TD*%
%TO.C,SW13*%
X34075000Y-47625000D03*
D14*
X28575000Y-47625000D03*
D13*
X23075000Y-47625000D03*
%TD*%
%TO.C,SW6*%
X129325000Y-28575000D03*
D14*
X123825000Y-28575000D03*
D13*
X118325000Y-28575000D03*
%TD*%
%TO.C,SW32*%
X167425000Y-66675000D03*
D14*
X161925000Y-66675000D03*
D13*
X156425000Y-66675000D03*
%TD*%
%TO.C,SW36*%
X243625000Y-66675000D03*
D14*
X238125000Y-66675000D03*
D13*
X232625000Y-66675000D03*
%TD*%
%TO.C,SW21*%
X186475000Y-47625000D03*
D14*
X180975000Y-47625000D03*
D13*
X175475000Y-47625000D03*
%TD*%
%TO.C,SW8*%
X167425000Y-28575000D03*
D14*
X161925000Y-28575000D03*
D13*
X156425000Y-28575000D03*
%TD*%
%TO.C,SW22*%
X205525000Y-47625000D03*
D14*
X200025000Y-47625000D03*
D13*
X194525000Y-47625000D03*
%TD*%
%TO.C,SW40*%
X91225000Y-85725000D03*
D14*
X85725000Y-85725000D03*
D13*
X80225000Y-85725000D03*
%TD*%
%TO.C,SW11*%
X224575000Y-28575000D03*
D14*
X219075000Y-28575000D03*
D13*
X213575000Y-28575000D03*
%TD*%
%TO.C,SW34*%
X205525000Y-66675000D03*
D14*
X200025000Y-66675000D03*
D13*
X194525000Y-66675000D03*
%TD*%
%TO.C,SW15*%
X72175000Y-47625000D03*
D14*
X66675000Y-47625000D03*
D13*
X61175000Y-47625000D03*
%TD*%
%TO.C,SW24*%
X243625000Y-47625000D03*
D14*
X238125000Y-47625000D03*
D13*
X232625000Y-47625000D03*
%TD*%
%TO.C,SW9*%
X186475000Y-28575000D03*
D14*
X180975000Y-28575000D03*
D13*
X175475000Y-28575000D03*
%TD*%
%TO.C,SW35*%
X224575000Y-66675000D03*
D14*
X219075000Y-66675000D03*
D13*
X213575000Y-66675000D03*
%TD*%
%TO.C,SW37*%
X34075000Y-85725000D03*
D14*
X28575000Y-85725000D03*
D13*
X23075000Y-85725000D03*
%TD*%
%TO.C,SW23*%
X224575000Y-47625000D03*
D14*
X219075000Y-47625000D03*
D13*
X213575000Y-47625000D03*
%TD*%
%TO.C,SW28*%
X91225000Y-66675000D03*
D14*
X85725000Y-66675000D03*
D13*
X80225000Y-66675000D03*
%TD*%
%TO.C,SW1*%
X34075000Y-28575000D03*
D14*
X28575000Y-28575000D03*
D13*
X23075000Y-28575000D03*
%TD*%
%TO.C,SW47*%
X243625000Y-85725000D03*
D14*
X238125000Y-85725000D03*
D13*
X232625000Y-85725000D03*
%TD*%
%TO.C,SW16*%
X91225000Y-47625000D03*
D14*
X85725000Y-47625000D03*
D13*
X80225000Y-47625000D03*
%TD*%
%TO.C,SW43*%
X167425000Y-85725000D03*
D14*
X161925000Y-85725000D03*
D13*
X156425000Y-85725000D03*
%TD*%
%TO.C,SW44*%
X186475000Y-85725000D03*
D14*
X180975000Y-85725000D03*
D13*
X175475000Y-85725000D03*
%TD*%
%TO.C,SW27*%
X72175000Y-66675000D03*
D14*
X66675000Y-66675000D03*
D13*
X61175000Y-66675000D03*
%TD*%
D15*
%TO.C,J3*%
X114292800Y-80639600D03*
D13*
X114292800Y-83179600D03*
X114292800Y-85719600D03*
X114292800Y-88259600D03*
X114292800Y-90799600D03*
%TD*%
%TO.C,SW30*%
X129325000Y-66675000D03*
D14*
X123825000Y-66675000D03*
D13*
X118325000Y-66675000D03*
%TD*%
%TO.C,SW41*%
X110275000Y-85725000D03*
D14*
X104775000Y-85725000D03*
D13*
X99275000Y-85725000D03*
%TD*%
%TO.C,SW26*%
X53125000Y-66675000D03*
D14*
X47625000Y-66675000D03*
D13*
X42125000Y-66675000D03*
%TD*%
%TO.C,SW42*%
X138850000Y-85725000D03*
D14*
X133350000Y-85725000D03*
D13*
X127850000Y-85725000D03*
%TD*%
%TO.C,SW18*%
X129325000Y-47625000D03*
D14*
X123825000Y-47625000D03*
D13*
X118325000Y-47625000D03*
%TD*%
%TO.C,SW45*%
X205525000Y-85725000D03*
D14*
X200025000Y-85725000D03*
D13*
X194525000Y-85725000D03*
%TD*%
%TO.C,SW14*%
X53125000Y-47625000D03*
D14*
X47625000Y-47625000D03*
D13*
X42125000Y-47625000D03*
%TD*%
%TO.C,SW3*%
X72175000Y-28575000D03*
D14*
X66675000Y-28575000D03*
D13*
X61175000Y-28575000D03*
%TD*%
%TO.C,SW17*%
X110275000Y-47625000D03*
D14*
X104775000Y-47625000D03*
D13*
X99275000Y-47625000D03*
%TD*%
%TO.C,SW31*%
X148375000Y-66675000D03*
D14*
X142875000Y-66675000D03*
D13*
X137375000Y-66675000D03*
%TD*%
%TO.C,SW39*%
X72175000Y-85725000D03*
D14*
X66675000Y-85725000D03*
D13*
X61175000Y-85725000D03*
%TD*%
%TO.C,SW38*%
X53125000Y-85725000D03*
D14*
X47625000Y-85725000D03*
D13*
X42125000Y-85725000D03*
%TD*%
%TO.C,SW33*%
X186475000Y-66675000D03*
D14*
X180975000Y-66675000D03*
D13*
X175475000Y-66675000D03*
%TD*%
%TO.C,SW7*%
X148375000Y-28575000D03*
D14*
X142875000Y-28575000D03*
D13*
X137375000Y-28575000D03*
%TD*%
%TO.C,SW20*%
X167425000Y-47625000D03*
D14*
X161925000Y-47625000D03*
D13*
X156425000Y-47625000D03*
%TD*%
%TO.C,SW4*%
X91225000Y-28575000D03*
D14*
X85725000Y-28575000D03*
D13*
X80225000Y-28575000D03*
%TD*%
%TO.C,SW19*%
X148375000Y-47625000D03*
D14*
X142875000Y-47625000D03*
D13*
X137375000Y-47625000D03*
%TD*%
%TO.C,SW5*%
X110275000Y-28575000D03*
D14*
X104775000Y-28575000D03*
D13*
X99275000Y-28575000D03*
%TD*%
%TO.C,SW25*%
X34075000Y-66675000D03*
D14*
X28575000Y-66675000D03*
D13*
X23075000Y-66675000D03*
%TD*%
%TO.C,SW10*%
X205525000Y-28575000D03*
D14*
X200025000Y-28575000D03*
D13*
X194525000Y-28575000D03*
%TD*%
%TO.C,SW2*%
X53125000Y-28575000D03*
D14*
X47625000Y-28575000D03*
D13*
X42125000Y-28575000D03*
%TD*%
M02*
