  0
SECTION
  2
HEADER
  9
$ANGBASE
  50
0.0
  9
$ANGDIR
  70
1
  9
$MEASUREMENT
  70
1
  0
ENDSEC
  0
SECTION
  2
TABLES
  0
TABLE
  2
LTYPE
  70
4
  0
LTYPE
  5
40F
  2
CONTINUOUS
  70
0
  3
Solid line
  72
65
  73
0
  40
0.0
  0
LTYPE
  5
410
  2
DASHDOT
 70
0
  3
Dash Dot ____ _ ____ _
 72
65
 73
4
 40
2.0
 49
1.25
 49
-0.25
 49
0.25
 49
-0.25
  0
LTYPE
  5
411
  2
DASHED
 70
0
  3
Dashed __ __ __ __ __
 72
65
 73
2
 40
0.75
 49
0.5
 49
-0.25
  0
LTYPE
  5
43B
  2
DOTTED
 70
0
  3
Dotted .  .  .  .
 72
65
 73
2
 40
0.2
 49
0.0
 49
-0.2
  0
ENDTAB
  0
TABLE
  2
STYLE
  70
4
  0
STYLE
  2
KICAD
  70
0
  40
0
  41
1
  42
1
  50
0
  71
0
  3
isocp.shx
  0
STYLE
  2
KICADB
  70
0
  40
0
  41
1
  42
1
  50
0
  71
0
  3
isocp.shx
  0
STYLE
  2
KICADI
  70
0
  40
0
  41
1
  42
1
  50
15
  71
0
  3
isocp.shx
  0
STYLE
  2
KICADBI
  70
0
  40
0
  41
1
  42
1
  50
15
  71
0
  3
isocp.shx
  0
ENDTAB
  0
TABLE
  2
LAYER
  70
1
  0
LAYER
  2
BLACK
  70
0
  62
7
  6
CONTINUOUS
  0
ENDTAB
  0
ENDSEC
  0
SECTION
  2
ENTITIES
0
LINE
8
BLACK
6
CONTINUOUS
10
138.1050280000000043
20
-19.024044
11
138.1055719999999951
21
-19.0238629999999986
0
LINE
8
BLACK
6
CONTINUOUS
10
138.1055719999999951
20
-19.0238629999999986
11
138.1094359999999881
21
-19.0249209999999991
0
LINE
8
BLACK
6
CONTINUOUS
10
138.1094359999999881
20
-19.0249209999999991
11
138.1133669999999825
21
-19.025703
0
LINE
8
BLACK
6
CONTINUOUS
10
138.1133669999999825
20
-19.025703
11
138.1137719999999831
21
-19.0261080000000007
0
LINE
8
BLACK
6
CONTINUOUS
10
138.1137719999999831
20
-19.0261080000000007
11
138.1149800000000027
21
-19.0264389999999999
0
LINE
8
BLACK
6
CONTINUOUS
10
138.1149800000000027
20
-19.0264389999999999
11
139.697102000000001
21
-19.817499999999999
0
LINE
8
BLACK
6
CONTINUOUS
10
139.697102000000001
20
-19.817499999999999
11
243.8406999999999982
21
-19.817499999999999
0
LINE
8
BLACK
6
CONTINUOUS
10
243.8406999999999982
20
-19.817499999999999
11
244.1568989999999815
21
-19.834070999999998
0
LINE
8
BLACK
6
CONTINUOUS
10
244.1568989999999815
20
-19.834070999999998
11
244.4696329999999875
21
-19.8836039999999983
0
LINE
8
BLACK
6
CONTINUOUS
10
244.4696329999999875
20
-19.8836039999999983
11
244.7754759999999976
21
-19.9655539999999974
0
LINE
8
BLACK
6
CONTINUOUS
10
244.7754759999999976
20
-19.9655539999999974
11
245.071078
21
-20.0790249999999979
0
LINE
8
BLACK
6
CONTINUOUS
10
245.071078
20
-20.0790249999999979
11
245.3531999999999869
21
-20.2227730000000001
0
LINE
8
BLACK
6
CONTINUOUS
10
245.3531999999999869
20
-20.2227730000000001
11
245.6187499999999773
21
-20.3952239999999989
0
LINE
8
BLACK
6
CONTINUOUS
10
245.6187499999999773
20
-20.3952239999999989
11
245.8648199999999804
21
-20.5944869999999973
0
LINE
8
BLACK
6
CONTINUOUS
10
245.8648199999999804
20
-20.5944869999999973
11
246.0887129999999843
21
-20.8183799999999977
0
LINE
8
BLACK
6
CONTINUOUS
10
246.0887129999999843
20
-20.8183799999999977
11
246.2879759999999862
21
-21.0644500000000008
0
LINE
8
BLACK
6
CONTINUOUS
10
246.2879759999999862
20
-21.0644500000000008
11
246.4604269999999815
21
-21.3299999999999983
0
LINE
8
BLACK
6
CONTINUOUS
10
246.4604269999999815
20
-21.3299999999999983
11
246.6041749999999979
21
-21.6121219999999994
0
LINE
8
BLACK
6
CONTINUOUS
10
246.6041749999999979
20
-21.6121219999999994
11
246.717646000000002
21
-21.9077239999999982
0
LINE
8
BLACK
6
CONTINUOUS
10
246.717646000000002
20
-21.9077239999999982
11
246.7995959999999798
21
-22.2135669999999976
0
LINE
8
BLACK
6
CONTINUOUS
10
246.7995959999999798
20
-22.2135669999999976
11
246.8491289999999765
21
-22.5263010000000001
0
LINE
8
BLACK
6
CONTINUOUS
10
246.8491289999999765
20
-22.5263010000000001
11
246.8656999999999755
21
-22.8424999999999976
0
LINE
8
BLACK
6
CONTINUOUS
10
246.8656999999999755
20
-22.8424999999999976
11
246.8656999999999755
21
-91.4502999999999986
0
LINE
8
BLACK
6
CONTINUOUS
10
246.8656999999999755
20
-91.4502999999999986
11
246.8491289999999765
21
-91.766498999999996
0
LINE
8
BLACK
6
CONTINUOUS
10
246.8491289999999765
20
-91.766498999999996
11
246.7995959999999798
21
-92.0792330000000021
0
LINE
8
BLACK
6
CONTINUOUS
10
246.7995959999999798
20
-92.0792330000000021
11
246.717646000000002
21
-92.385075999999998
0
LINE
8
BLACK
6
CONTINUOUS
10
246.717646000000002
20
-92.385075999999998
11
246.6041749999999979
21
-92.6806780000000003
0
LINE
8
BLACK
6
CONTINUOUS
10
246.6041749999999979
20
-92.6806780000000003
11
246.4604269999999815
21
-92.9628000000000014
0
LINE
8
BLACK
6
CONTINUOUS
10
246.4604269999999815
20
-92.9628000000000014
11
246.2879759999999862
21
-93.2283499999999918
0
LINE
8
BLACK
6
CONTINUOUS
10
246.2879759999999862
20
-93.2283499999999918
11
246.0887129999999843
21
-93.474419999999995
0
LINE
8
BLACK
6
CONTINUOUS
10
246.0887129999999843
20
-93.474419999999995
11
245.8648199999999804
21
-93.6983129999999989
0
LINE
8
BLACK
6
CONTINUOUS
10
245.8648199999999804
20
-93.6983129999999989
11
245.6187499999999773
21
-93.8975760000000008
0
LINE
8
BLACK
6
CONTINUOUS
10
245.6187499999999773
20
-93.8975760000000008
11
245.3531999999999869
21
-94.0700269999999961
0
LINE
8
BLACK
6
CONTINUOUS
10
245.3531999999999869
20
-94.0700269999999961
11
245.071078
21
-94.2137749999999983
0
LINE
8
BLACK
6
CONTINUOUS
10
245.071078
20
-94.2137749999999983
11
244.7754759999999976
21
-94.3272460000000024
0
LINE
8
BLACK
6
CONTINUOUS
10
244.7754759999999976
20
-94.3272460000000024
11
244.4696329999999875
21
-94.4091959999999943
0
LINE
8
BLACK
6
CONTINUOUS
10
244.4696329999999875
20
-94.4091959999999943
11
244.1568989999999815
21
-94.4587289999999911
0
LINE
8
BLACK
6
CONTINUOUS
10
244.1568989999999815
20
-94.4587289999999911
11
243.8406999999999982
21
-94.4752999999999901
0
LINE
8
BLACK
6
CONTINUOUS
10
243.8406999999999982
20
-94.4752999999999901
11
22.8424999999999976
21
-94.4752999999999901
0
LINE
8
BLACK
6
CONTINUOUS
10
22.8424999999999976
20
-94.4752999999999901
11
22.5263010000000001
21
-94.4587289999999911
0
LINE
8
BLACK
6
CONTINUOUS
10
22.5263010000000001
20
-94.4587289999999911
11
22.2135669999999976
21
-94.4091959999999943
0
LINE
8
BLACK
6
CONTINUOUS
10
22.2135669999999976
20
-94.4091959999999943
11
21.9077239999999982
21
-94.3272460000000024
0
LINE
8
BLACK
6
CONTINUOUS
10
21.9077239999999982
20
-94.3272460000000024
11
21.6121219999999994
21
-94.2137749999999983
0
LINE
8
BLACK
6
CONTINUOUS
10
21.6121219999999994
20
-94.2137749999999983
11
21.3299999999999983
21
-94.0700269999999961
0
LINE
8
BLACK
6
CONTINUOUS
10
21.3299999999999983
20
-94.0700269999999961
11
21.0644500000000008
21
-93.8975760000000008
0
LINE
8
BLACK
6
CONTINUOUS
10
21.0644500000000008
20
-93.8975760000000008
11
20.8183799999999977
21
-93.6983129999999989
0
LINE
8
BLACK
6
CONTINUOUS
10
20.8183799999999977
20
-93.6983129999999989
11
20.5944869999999973
21
-93.474419999999995
0
LINE
8
BLACK
6
CONTINUOUS
10
20.5944869999999973
20
-93.474419999999995
11
20.3952239999999989
21
-93.2283499999999918
0
LINE
8
BLACK
6
CONTINUOUS
10
20.3952239999999989
20
-93.2283499999999918
11
20.2227730000000001
21
-92.9628000000000014
0
LINE
8
BLACK
6
CONTINUOUS
10
20.2227730000000001
20
-92.9628000000000014
11
20.0790249999999979
21
-92.6806780000000003
0
LINE
8
BLACK
6
CONTINUOUS
10
20.0790249999999979
20
-92.6806780000000003
11
19.9655539999999974
21
-92.385075999999998
0
LINE
8
BLACK
6
CONTINUOUS
10
19.9655539999999974
20
-92.385075999999998
11
19.8836039999999983
21
-92.0792330000000021
0
LINE
8
BLACK
6
CONTINUOUS
10
19.8836039999999983
20
-92.0792330000000021
11
19.834070999999998
21
-91.766498999999996
0
LINE
8
BLACK
6
CONTINUOUS
10
19.834070999999998
20
-91.766498999999996
11
19.817499999999999
21
-91.4502999999999986
0
LINE
8
BLACK
6
CONTINUOUS
10
19.817499999999999
20
-91.4502999999999986
11
19.817499999999999
21
-22.8424999999999976
0
LINE
8
BLACK
6
CONTINUOUS
10
19.817499999999999
20
-22.8424999999999976
11
19.834070999999998
21
-22.5263010000000001
0
LINE
8
BLACK
6
CONTINUOUS
10
19.834070999999998
20
-22.5263010000000001
11
19.8836039999999983
21
-22.2135669999999976
0
LINE
8
BLACK
6
CONTINUOUS
10
19.8836039999999983
20
-22.2135669999999976
11
19.9655539999999974
21
-21.9077239999999982
0
LINE
8
BLACK
6
CONTINUOUS
10
19.9655539999999974
20
-21.9077239999999982
11
20.0790249999999979
21
-21.6121219999999994
0
LINE
8
BLACK
6
CONTINUOUS
10
20.0790249999999979
20
-21.6121219999999994
11
20.2227730000000001
21
-21.3299999999999983
0
LINE
8
BLACK
6
CONTINUOUS
10
20.2227730000000001
20
-21.3299999999999983
11
20.3952239999999989
21
-21.0644500000000008
0
LINE
8
BLACK
6
CONTINUOUS
10
20.3952239999999989
20
-21.0644500000000008
11
20.5944869999999973
21
-20.8183799999999977
0
LINE
8
BLACK
6
CONTINUOUS
10
20.5944869999999973
20
-20.8183799999999977
11
20.8183799999999977
21
-20.5944869999999973
0
LINE
8
BLACK
6
CONTINUOUS
10
20.8183799999999977
20
-20.5944869999999973
11
21.0644500000000008
21
-20.3952239999999989
0
LINE
8
BLACK
6
CONTINUOUS
10
21.0644500000000008
20
-20.3952239999999989
11
21.3299999999999983
21
-20.2227730000000001
0
LINE
8
BLACK
6
CONTINUOUS
10
21.3299999999999983
20
-20.2227730000000001
11
21.6121219999999994
21
-20.0790249999999979
0
LINE
8
BLACK
6
CONTINUOUS
10
21.6121219999999994
20
-20.0790249999999979
11
21.9077239999999982
21
-19.9655539999999974
0
LINE
8
BLACK
6
CONTINUOUS
10
21.9077239999999982
20
-19.9655539999999974
11
22.2135669999999976
21
-19.8836039999999983
0
LINE
8
BLACK
6
CONTINUOUS
10
22.2135669999999976
20
-19.8836039999999983
11
22.5263010000000001
21
-19.834070999999998
0
LINE
8
BLACK
6
CONTINUOUS
10
22.5263010000000001
20
-19.834070999999998
11
22.8424999999999976
21
-19.817499999999999
0
LINE
8
BLACK
6
CONTINUOUS
10
22.8424999999999976
20
-19.817499999999999
11
126.9860979999999984
21
-19.817499999999999
0
LINE
8
BLACK
6
CONTINUOUS
10
126.9860979999999984
20
-19.817499999999999
11
128.5682199999999966
21
-19.0264389999999999
0
LINE
8
BLACK
6
CONTINUOUS
10
128.5682199999999966
20
-19.0264389999999999
11
128.5694269999999904
21
-19.0261080000000007
0
LINE
8
BLACK
6
CONTINUOUS
10
128.5694269999999904
20
-19.0261080000000007
11
128.5698329999999885
21
-19.025703
0
LINE
8
BLACK
6
CONTINUOUS
10
128.5698329999999885
20
-19.025703
11
128.5737629999999854
21
-19.0249209999999991
0
LINE
8
BLACK
6
CONTINUOUS
10
128.5737629999999854
20
-19.0249209999999991
11
128.5776280000000042
21
-19.0238629999999986
0
LINE
8
BLACK
6
CONTINUOUS
10
128.5776280000000042
20
-19.0238629999999986
11
128.5781709999999975
21
-19.024044
0
LINE
8
BLACK
6
CONTINUOUS
10
128.5781709999999975
20
-19.024044
11
128.5793999999999926
21
-19.0237999999999978
0
LINE
8
BLACK
6
CONTINUOUS
10
128.5793999999999926
20
-19.0237999999999978
11
138.1038000000000068
21
-19.0237999999999978
0
LINE
8
BLACK
6
CONTINUOUS
10
138.1038000000000068
20
-19.0237999999999978
11
138.1050280000000043
21
-19.024044
0
LINE
8
BLACK
6
CONTINUOUS
10
128.5853019999999844
20
-19.0737999999999985
11
127.0031800000000004
21
-19.8648609999999977
0
LINE
8
BLACK
6
CONTINUOUS
10
127.0031800000000004
20
-19.8648609999999977
11
127.001971999999995
21
-19.8651909999999994
0
LINE
8
BLACK
6
CONTINUOUS
10
127.001971999999995
20
-19.8651909999999994
11
127.0015669999999943
21
-19.8655969999999975
0
LINE
8
BLACK
6
CONTINUOUS
10
127.0015669999999943
20
-19.8655969999999975
11
126.997636
21
-19.8663779999999974
0
LINE
8
BLACK
6
CONTINUOUS
10
126.997636
20
-19.8663779999999974
11
126.9937719999999928
21
-19.8674369999999989
0
LINE
8
BLACK
6
CONTINUOUS
10
126.9937719999999928
20
-19.8674369999999989
11
126.9932279999999878
21
-19.8672550000000001
0
LINE
8
BLACK
6
CONTINUOUS
10
126.9932279999999878
20
-19.8672550000000001
11
126.9919999999999902
21
-19.8674999999999997
0
LINE
8
BLACK
6
CONTINUOUS
10
126.9919999999999902
20
-19.8674999999999997
11
22.8424999999999976
21
-19.8674999999999997
0
LINE
8
BLACK
6
CONTINUOUS
10
22.8424999999999976
20
-19.8674999999999997
11
22.6865869999999994
21
-19.8674999999999997
0
LINE
8
BLACK
6
CONTINUOUS
10
22.6865869999999994
20
-19.8674999999999997
11
22.3764690000000002
21
-19.9000939999999993
0
LINE
8
BLACK
6
CONTINUOUS
10
22.3764690000000002
20
-19.9000939999999993
11
22.0714569999999988
21
-19.9649269999999994
0
LINE
8
BLACK
6
CONTINUOUS
10
22.0714569999999988
20
-19.9649269999999994
11
21.7748919999999977
21
-20.0612859999999991
0
LINE
8
BLACK
6
CONTINUOUS
10
21.7748919999999977
20
-20.0612859999999991
11
21.4900249999999993
21
-20.1881179999999993
0
LINE
8
BLACK
6
CONTINUOUS
10
21.4900249999999993
20
-20.1881179999999993
11
21.219974999999998
21
-20.3440309999999975
0
LINE
8
BLACK
6
CONTINUOUS
10
21.219974999999998
20
-20.3440309999999975
11
20.9677019999999992
21
-20.5273179999999975
0
LINE
8
BLACK
6
CONTINUOUS
10
20.9677019999999992
20
-20.5273179999999975
11
20.7359699999999982
21
-20.7359699999999982
0
LINE
8
BLACK
6
CONTINUOUS
10
20.7359699999999982
20
-20.7359699999999982
11
20.5273179999999975
21
-20.9677019999999992
0
LINE
8
BLACK
6
CONTINUOUS
10
20.5273179999999975
20
-20.9677019999999992
11
20.3440309999999975
21
-21.219974999999998
0
LINE
8
BLACK
6
CONTINUOUS
10
20.3440309999999975
20
-21.219974999999998
11
20.1881179999999993
21
-21.4900249999999993
0
LINE
8
BLACK
6
CONTINUOUS
10
20.1881179999999993
20
-21.4900249999999993
11
20.0612859999999991
21
-21.7748919999999977
0
LINE
8
BLACK
6
CONTINUOUS
10
20.0612859999999991
20
-21.7748919999999977
11
19.9649269999999994
21
-22.0714569999999988
0
LINE
8
BLACK
6
CONTINUOUS
10
19.9649269999999994
20
-22.0714569999999988
11
19.9000939999999993
21
-22.3764690000000002
0
LINE
8
BLACK
6
CONTINUOUS
10
19.9000939999999993
20
-22.3764690000000002
11
19.8674999999999997
21
-22.6865869999999994
0
LINE
8
BLACK
6
CONTINUOUS
10
19.8674999999999997
20
-22.6865869999999994
11
19.8674999999999997
21
-22.8424999999999976
0
LINE
8
BLACK
6
CONTINUOUS
10
19.8674999999999997
20
-22.8424999999999976
11
19.8674999999999997
21
-91.4502999999999986
0
LINE
8
BLACK
6
CONTINUOUS
10
19.8674999999999997
20
-91.4502999999999986
11
19.8674999999999997
21
-91.6062129999999968
0
LINE
8
BLACK
6
CONTINUOUS
10
19.8674999999999997
20
-91.6062129999999968
11
19.9000939999999993
21
-91.9163309999999996
0
LINE
8
BLACK
6
CONTINUOUS
10
19.9000939999999993
20
-91.9163309999999996
11
19.9649269999999994
21
-92.2213429999999903
0
LINE
8
BLACK
6
CONTINUOUS
10
19.9649269999999994
20
-92.2213429999999903
11
20.0612859999999991
21
-92.5179079999999914
0
LINE
8
BLACK
6
CONTINUOUS
10
20.0612859999999991
20
-92.5179079999999914
11
20.1881179999999993
21
-92.8027749999999969
0
LINE
8
BLACK
6
CONTINUOUS
10
20.1881179999999993
20
-92.8027749999999969
11
20.3440309999999975
21
-93.0728249999999946
0
LINE
8
BLACK
6
CONTINUOUS
10
20.3440309999999975
20
-93.0728249999999946
11
20.5273179999999975
21
-93.325097999999997
0
LINE
8
BLACK
6
CONTINUOUS
10
20.5273179999999975
20
-93.325097999999997
11
20.7359699999999982
21
-93.5568299999999908
0
LINE
8
BLACK
6
CONTINUOUS
10
20.7359699999999982
20
-93.5568299999999908
11
20.9677019999999992
21
-93.7654819999999916
0
LINE
8
BLACK
6
CONTINUOUS
10
20.9677019999999992
20
-93.7654819999999916
11
21.219974999999998
21
-93.9487689999999986
0
LINE
8
BLACK
6
CONTINUOUS
10
21.219974999999998
20
-93.9487689999999986
11
21.4900249999999993
21
-94.1046819999999968
0
LINE
8
BLACK
6
CONTINUOUS
10
21.4900249999999993
20
-94.1046819999999968
11
21.7748919999999977
21
-94.23151399999999
0
LINE
8
BLACK
6
CONTINUOUS
10
21.7748919999999977
20
-94.23151399999999
11
22.0714569999999988
21
-94.3278729999999968
0
LINE
8
BLACK
6
CONTINUOUS
10
22.0714569999999988
20
-94.3278729999999968
11
22.3764690000000002
21
-94.3927059999999898
0
LINE
8
BLACK
6
CONTINUOUS
10
22.3764690000000002
20
-94.3927059999999898
11
22.6865869999999994
21
-94.4252999999999929
0
LINE
8
BLACK
6
CONTINUOUS
10
22.6865869999999994
20
-94.4252999999999929
11
22.8424999999999976
21
-94.4252999999999929
0
LINE
8
BLACK
6
CONTINUOUS
10
22.8424999999999976
20
-94.4252999999999929
11
243.8406999999999982
21
-94.4252999999999929
0
LINE
8
BLACK
6
CONTINUOUS
10
243.8406999999999982
20
-94.4252999999999929
11
243.9966129999999964
21
-94.4252999999999929
0
LINE
8
BLACK
6
CONTINUOUS
10
243.9966129999999964
20
-94.4252999999999929
11
244.306730999999985
21
-94.3927059999999898
0
LINE
8
BLACK
6
CONTINUOUS
10
244.306730999999985
20
-94.3927059999999898
11
244.6117429999999899
21
-94.3278729999999968
0
LINE
8
BLACK
6
CONTINUOUS
10
244.6117429999999899
20
-94.3278729999999968
11
244.9083079999999768
21
-94.23151399999999
0
LINE
8
BLACK
6
CONTINUOUS
10
244.9083079999999768
20
-94.23151399999999
11
245.1931749999999965
21
-94.1046819999999968
0
LINE
8
BLACK
6
CONTINUOUS
10
245.1931749999999965
20
-94.1046819999999968
11
245.4632249999999942
21
-93.9487689999999986
0
LINE
8
BLACK
6
CONTINUOUS
10
245.4632249999999942
20
-93.9487689999999986
11
245.7154979999999966
21
-93.7654819999999916
0
LINE
8
BLACK
6
CONTINUOUS
10
245.7154979999999966
20
-93.7654819999999916
11
245.9472299999999905
21
-93.5568299999999908
0
LINE
8
BLACK
6
CONTINUOUS
10
245.9472299999999905
20
-93.5568299999999908
11
246.1558819999999912
21
-93.325097999999997
0
LINE
8
BLACK
6
CONTINUOUS
10
246.1558819999999912
20
-93.325097999999997
11
246.3391689999999983
21
-93.0728249999999946
0
LINE
8
BLACK
6
CONTINUOUS
10
246.3391689999999983
20
-93.0728249999999946
11
246.4950819999999965
21
-92.8027749999999969
0
LINE
8
BLACK
6
CONTINUOUS
10
246.4950819999999965
20
-92.8027749999999969
11
246.6219139999999754
21
-92.5179079999999914
0
LINE
8
BLACK
6
CONTINUOUS
10
246.6219139999999754
20
-92.5179079999999914
11
246.7182729999999822
21
-92.2213429999999903
0
LINE
8
BLACK
6
CONTINUOUS
10
246.7182729999999822
20
-92.2213429999999903
11
246.7831059999999752
21
-91.9163309999999996
0
LINE
8
BLACK
6
CONTINUOUS
10
246.7831059999999752
20
-91.9163309999999996
11
246.8156999999999925
21
-91.6062129999999968
0
LINE
8
BLACK
6
CONTINUOUS
10
246.8156999999999925
20
-91.6062129999999968
11
246.8156999999999925
21
-91.4502999999999986
0
LINE
8
BLACK
6
CONTINUOUS
10
246.8156999999999925
20
-91.4502999999999986
11
246.8156999999999925
21
-22.8424999999999976
0
LINE
8
BLACK
6
CONTINUOUS
10
246.8156999999999925
20
-22.8424999999999976
11
246.8156999999999925
21
-22.6865869999999994
0
LINE
8
BLACK
6
CONTINUOUS
10
246.8156999999999925
20
-22.6865869999999994
11
246.7831059999999752
21
-22.3764690000000002
0
LINE
8
BLACK
6
CONTINUOUS
10
246.7831059999999752
20
-22.3764690000000002
11
246.7182729999999822
21
-22.0714569999999988
0
LINE
8
BLACK
6
CONTINUOUS
10
246.7182729999999822
20
-22.0714569999999988
11
246.6219139999999754
21
-21.7748919999999977
0
LINE
8
BLACK
6
CONTINUOUS
10
246.6219139999999754
20
-21.7748919999999977
11
246.4950819999999965
21
-21.4900249999999993
0
LINE
8
BLACK
6
CONTINUOUS
10
246.4950819999999965
20
-21.4900249999999993
11
246.3391689999999983
21
-21.219974999999998
0
LINE
8
BLACK
6
CONTINUOUS
10
246.3391689999999983
20
-21.219974999999998
11
246.1558819999999912
21
-20.9677019999999992
0
LINE
8
BLACK
6
CONTINUOUS
10
246.1558819999999912
20
-20.9677019999999992
11
245.9472299999999905
21
-20.7359699999999982
0
LINE
8
BLACK
6
CONTINUOUS
10
245.9472299999999905
20
-20.7359699999999982
11
245.7154979999999966
21
-20.5273179999999975
0
LINE
8
BLACK
6
CONTINUOUS
10
245.7154979999999966
20
-20.5273179999999975
11
245.4632249999999942
21
-20.3440309999999975
0
LINE
8
BLACK
6
CONTINUOUS
10
245.4632249999999942
20
-20.3440309999999975
11
245.1931749999999965
21
-20.1881179999999993
0
LINE
8
BLACK
6
CONTINUOUS
10
245.1931749999999965
20
-20.1881179999999993
11
244.9083079999999768
21
-20.0612859999999991
0
LINE
8
BLACK
6
CONTINUOUS
10
244.9083079999999768
20
-20.0612859999999991
11
244.6117429999999899
21
-19.9649269999999994
0
LINE
8
BLACK
6
CONTINUOUS
10
244.6117429999999899
20
-19.9649269999999994
11
244.306730999999985
21
-19.9000939999999993
0
LINE
8
BLACK
6
CONTINUOUS
10
244.306730999999985
20
-19.9000939999999993
11
243.9966129999999964
21
-19.8674999999999997
0
LINE
8
BLACK
6
CONTINUOUS
10
243.9966129999999964
20
-19.8674999999999997
11
243.8406999999999982
21
-19.8674999999999997
0
LINE
8
BLACK
6
CONTINUOUS
10
243.8406999999999982
20
-19.8674999999999997
11
139.6911999999999807
21
-19.8674999999999997
0
LINE
8
BLACK
6
CONTINUOUS
10
139.6911999999999807
20
-19.8674999999999997
11
139.6899709999999857
21
-19.8672550000000001
0
LINE
8
BLACK
6
CONTINUOUS
10
139.6899709999999857
20
-19.8672550000000001
11
139.6894279999999924
21
-19.8674369999999989
0
LINE
8
BLACK
6
CONTINUOUS
10
139.6894279999999924
20
-19.8674369999999989
11
139.6855630000000019
21
-19.8663779999999974
0
LINE
8
BLACK
6
CONTINUOUS
10
139.6855630000000019
20
-19.8663779999999974
11
139.681633000000005
21
-19.8655969999999975
0
LINE
8
BLACK
6
CONTINUOUS
10
139.681633000000005
20
-19.8655969999999975
11
139.6812270000000069
21
-19.8651909999999994
0
LINE
8
BLACK
6
CONTINUOUS
10
139.6812270000000069
20
-19.8651909999999994
11
139.6800199999999847
21
-19.8648609999999977
0
LINE
8
BLACK
6
CONTINUOUS
10
139.6800199999999847
20
-19.8648609999999977
11
138.0978979999999865
21
-19.0737999999999985
0
LINE
8
BLACK
6
CONTINUOUS
10
138.0978979999999865
20
-19.0737999999999985
11
128.5853019999999844
21
-19.0737999999999985
  0
ENDSEC
  0
EOF
